<svg width="268" height="142" viewBox="0 0 268 142" fill="none" xmlns="http://www.w3.org/2000/svg">
<path d="M182.649 64.1826C182.869 64.8395 183.019 65.5038 183.094 66.1745L182.597 66.2303C182.633 66.5511 182.651 66.8733 182.651 67.197C182.651 67.5206 182.633 67.8428 182.597 68.1636L183.094 68.2194C183.019 68.8901 182.869 69.5544 182.649 70.2113L182.175 70.0523C181.974 70.6513 181.71 71.2467 181.384 71.8375L181.821 72.0792C181.501 72.6583 181.126 73.2308 180.696 73.7959L180.298 73.4933C179.914 73.9992 179.483 74.5008 179.008 74.9973L179.369 75.343C178.914 75.8188 178.42 76.2885 177.888 76.7518L177.559 76.3748C177.071 76.8005 176.549 77.2214 175.995 77.6372L176.295 78.0372C175.765 78.4351 175.206 78.8276 174.62 79.2146L174.345 78.7973C173.797 79.1587 173.225 79.5155 172.629 79.8675L172.883 80.298C172.309 80.6368 171.714 80.9707 171.097 81.2997L170.862 80.8586C170.278 81.1701 169.675 81.4774 169.053 81.7801L169.272 82.2296C168.669 82.523 168.049 82.8119 167.413 83.0963L167.209 82.6398C166.599 82.9121 165.974 83.1803 165.334 83.4442L165.524 83.9065C164.906 84.1614 164.273 84.4123 163.627 84.659L163.449 84.1919C162.826 84.4297 162.191 84.6636 161.543 84.8936L161.71 85.3647C161.076 85.59 160.429 85.8114 159.772 86.0288L159.615 85.5541C158.976 85.7654 158.326 85.9729 157.666 86.1766L157.813 86.6544C157.171 86.8525 156.519 87.0469 155.857 87.2375L155.719 86.7571C155.074 86.9429 154.42 87.1251 153.758 87.3038L153.888 87.7865C153.234 87.9628 152.571 88.1356 151.9 88.3047L151.777 87.8199C151.126 87.9841 150.466 88.1449 149.799 88.3022L149.913 88.7888C149.256 88.9437 148.592 89.0952 147.92 89.2432L147.813 88.7549C147.152 88.9005 146.483 89.0428 145.809 89.1816L145.909 89.6714C145.249 89.8073 144.581 89.94 143.908 90.0693L143.813 89.5782C143.15 89.7055 142.481 89.8295 141.806 89.9502L141.894 90.4424C141.225 90.5619 140.551 90.6782 139.871 90.7911L139.789 90.2979C139.125 90.4083 138.455 90.5155 137.78 90.6194L137.856 91.1136C137.184 91.2171 136.506 91.3174 135.824 91.4145L135.754 90.9195C135.085 91.0145 134.413 91.1064 133.735 91.1951L133.8 91.6909C133.127 91.7791 132.449 91.8641 131.767 91.9459L131.708 91.4495C131.035 91.5302 130.358 91.6078 129.677 91.6822L129.731 92.1793C129.058 92.2529 128.38 92.3235 127.698 92.3909L127.649 91.8934C126.973 91.9602 126.293 92.024 125.609 92.0847L125.653 92.5827C124.979 92.6426 124.301 92.6994 123.619 92.7531L123.58 92.2546C122.902 92.3081 122.221 92.3584 121.536 92.4057L121.57 92.9045C120.894 92.9511 120.215 92.9948 119.533 93.0353L119.504 92.5362C118.825 92.5766 118.144 92.6139 117.46 92.6481L117.484 93.1475C116.807 93.1814 116.126 93.2122 115.443 93.2401L115.422 92.7405C114.744 92.7681 114.062 92.7927 113.378 92.8143L113.394 93.314C112.715 93.3354 112.033 93.3538 111.349 93.3691L111.338 92.8693C110.659 92.8845 109.977 92.8967 109.294 92.9059L109.3 93.4058C108.62 93.4149 107.938 93.4211 107.254 93.4241L107.251 92.9241C106.91 92.9256 106.568 92.9264 106.225 92.9264C105.883 92.9264 105.54 92.9256 105.199 92.9241L105.197 93.4241C104.512 93.4211 103.83 93.4149 103.15 93.4058L103.156 92.9059C102.473 92.8967 101.792 92.8845 101.113 92.8693L101.101 93.3692C100.417 93.3538 99.7355 93.3354 99.0563 93.314L99.0721 92.8143C98.3881 92.7927 97.7067 92.7681 97.0281 92.7405L97.0077 93.2401C96.3243 93.2122 95.6436 93.1814 94.9658 93.1475L94.9907 92.6481C94.3064 92.6139 93.6251 92.5766 92.9467 92.5362L92.9171 93.0353C92.2349 92.9948 91.5558 92.9511 90.8799 92.9045L90.9143 92.4057C90.2297 92.3584 89.5484 92.3081 88.8706 92.2546L88.8313 92.7531C88.1497 92.6994 87.4717 92.6426 86.7972 92.5827L86.8414 92.0847C86.1577 92.024 85.4777 91.9602 84.8016 91.8934L84.7524 92.3909C84.0706 92.3235 83.3927 92.2529 82.7189 92.1793L82.7732 91.6822C82.0921 91.6078 81.4152 91.5302 80.7426 91.4495L80.683 91.9459C80.001 91.8641 79.3233 91.7791 78.6502 91.6909L78.7151 91.1952C78.0376 91.1064 77.3648 91.0145 76.6967 90.9195L76.6263 91.4145C75.944 91.3174 75.2667 91.2171 74.5945 91.1136L74.6706 90.6194C73.9955 90.5155 73.3257 90.4083 72.6612 90.2979L72.5793 90.7911C71.8992 90.6782 71.2248 90.5619 70.5562 90.4424L70.6442 89.9502C69.969 89.8295 69.2998 89.7055 68.6368 89.5782L68.5426 90.0693C67.869 89.94 67.2017 89.8073 66.5409 89.6714L66.6416 89.1816C65.9667 89.0428 65.2987 88.9005 64.6377 88.7549L64.5301 89.2432C63.8584 89.0952 63.1939 88.9437 62.5368 88.7888L62.6515 88.3022C61.9841 88.1449 61.3244 87.9841 60.6728 87.8199L60.5506 88.3047C59.8795 88.1356 59.2167 87.9628 58.5625 87.7865L58.6926 87.3038C58.0298 87.1251 57.3759 86.9429 56.7313 86.7571L56.5928 87.2375C55.9313 87.0469 55.2794 86.8525 54.6373 86.6544L54.7847 86.1766C54.1242 85.9729 53.4744 85.7654 52.8354 85.5541L52.6784 86.0289C52.0208 85.8114 51.3745 85.59 50.74 85.3648L50.9072 84.8936C50.2594 84.6636 49.624 84.4297 49.0014 84.1919L48.823 84.659C48.1771 84.4123 47.5447 84.1614 46.9261 83.9065L47.1166 83.4442C46.4762 83.1803 45.851 82.9121 45.2414 82.6398L45.0375 83.0963C44.4009 82.8119 43.781 82.523 43.1783 82.2297L43.3971 81.7801C42.7752 81.4774 42.172 81.1701 41.5882 80.8586L41.3528 81.2997C40.7364 80.9707 40.141 80.6368 39.5671 80.2981L39.8212 79.8675C39.225 79.5155 38.6529 79.1587 38.1056 78.7974L37.8301 79.2146C37.2441 78.8276 36.6855 78.4351 36.1552 78.0372L36.4553 77.6372C35.9011 77.2214 35.3793 76.8005 34.8908 76.3748L34.5623 76.7518C34.0306 76.2885 33.5364 75.8188 33.0809 75.3431L33.4421 74.9973C32.9668 74.5008 32.5364 73.9992 32.1519 73.4933L31.7538 73.7959C31.3244 73.2308 30.9488 72.6584 30.629 72.0792L31.0667 71.8375C30.7405 71.2467 30.4764 70.6514 30.2753 70.0523L29.8013 70.2114C29.5809 69.5545 29.4316 68.8902 29.3562 68.2194L29.8531 68.1636C29.817 67.8428 29.7988 67.5206 29.7988 67.197C29.7988 66.8734 29.817 66.5511 29.8531 66.2304L29.3562 66.1745C29.4316 65.5038 29.5809 64.8395 29.8013 64.1826L30.2753 64.3417C30.4764 63.7426 30.7405 63.1473 31.0667 62.5564L30.629 62.3148C30.9488 61.7356 31.3243 61.1631 31.7538 60.5981L32.1519 60.9006C32.5364 60.3947 32.9668 59.8932 33.4421 59.3966L33.0809 59.0509C33.5363 58.5752 34.0305 58.1055 34.5623 57.6421L34.8907 58.0191C35.3793 57.5935 35.9011 57.1725 36.4553 56.7567L36.1552 56.3568C36.6855 55.9589 37.2441 55.5663 37.8301 55.1794L38.1056 55.5966C38.6529 55.2352 39.225 54.8784 39.8212 54.5265L39.5671 54.0959C40.141 53.7572 40.7364 53.4232 41.3528 53.0942L41.5882 53.5354C42.172 53.2238 42.7751 52.9166 43.3971 52.6139L43.1783 52.1643C43.781 51.8709 44.4009 51.582 45.0375 51.2976L45.2414 51.7541C45.851 51.4818 46.4762 51.2136 47.1166 50.9497L46.9261 50.4874C47.5447 50.2325 48.1771 49.9816 48.823 49.735L49.0014 50.2021C49.624 49.9643 50.2594 49.7303 50.9072 49.5004L50.74 49.0292C51.3745 48.8039 52.0208 48.5825 52.6784 48.3651L52.8354 48.8398C53.4744 48.6285 54.1242 48.421 54.7847 48.2173L54.6373 47.7395C55.2794 47.5415 55.9313 47.3471 56.5928 47.1564L56.7313 47.6369C57.3759 47.4511 58.0298 47.2688 58.6926 47.0902L58.5625 46.6074C59.2167 46.4311 59.8795 46.2584 60.5506 46.0892L60.6728 46.5741C61.3244 46.4099 61.9841 46.2491 62.6515 46.0918L62.5368 45.6051C63.1939 45.4502 63.8584 45.2988 64.5301 45.1508L64.6377 45.6391C65.2987 45.4934 65.9667 45.3512 66.6416 45.2123L66.5409 44.7226C67.2017 44.5866 67.869 44.454 68.5425 44.3247L68.6368 44.8157C69.2998 44.6884 69.969 44.5644 70.6442 44.4437L70.5562 43.9515C71.2248 43.832 71.8992 43.7157 72.5793 43.6028L72.6612 44.096C73.3257 43.9857 73.9955 43.8785 74.6706 43.7745L74.5945 43.2803C75.2667 43.1768 75.944 43.0765 76.6263 42.9794L76.6967 43.4745C77.3647 43.3794 78.0376 43.2875 78.7151 43.1988L78.6502 42.703C79.3233 42.6149 80.001 42.5298 80.683 42.448L80.7426 42.9444C81.4152 42.8637 82.0921 42.7862 82.7732 42.7117L82.7188 42.2147C83.3927 42.141 84.0706 42.0704 84.7524 42.003L84.8016 42.5006C85.4777 42.4337 86.1577 42.3699 86.8413 42.3092L86.7972 41.8112C87.4716 41.7514 88.1497 41.6946 88.8312 41.6408L88.8705 42.1393C89.5484 42.0859 90.2297 42.0355 90.9143 41.9883L90.8799 41.4894C91.5558 41.4428 92.2349 41.3992 92.917 41.3586L92.9467 41.8577C93.625 41.8174 94.3064 41.7801 94.9907 41.7459L94.9657 41.2465C95.6436 41.2126 96.3243 41.1817 97.0077 41.1539L97.028 41.6535C97.7067 41.6258 98.3881 41.6012 99.072 41.5797L99.0563 41.0799C99.7355 41.0585 100.417 41.0401 101.101 41.0248L101.113 41.5247C101.792 41.5094 102.473 41.4972 103.156 41.4881L103.15 40.9881C103.83 40.979 104.512 40.9729 105.197 40.9698L105.199 41.4698C105.54 41.4683 105.883 41.4675 106.225 41.4675C106.568 41.4675 106.91 41.4683 107.251 41.4698L107.253 40.9698C107.938 40.9729 108.62 40.979 109.3 40.9881L109.294 41.4881C109.977 41.4972 110.659 41.5094 111.338 41.5247L111.349 41.0248C112.033 41.0401 112.715 41.0585 113.394 41.0799L113.378 41.5797C114.062 41.6012 114.744 41.6258 115.422 41.6535L115.443 41.1539C116.126 41.1817 116.807 41.2126 117.484 41.2465L117.459 41.7459C118.144 41.7801 118.825 41.8174 119.503 41.8577L119.533 41.3586C120.215 41.3992 120.894 41.4428 121.57 41.4894L121.536 41.9883C122.221 42.0355 122.902 42.0859 123.58 42.1393L123.619 41.6408C124.3 41.6946 124.979 41.7514 125.653 41.8112L125.609 42.3092C126.293 42.3699 126.973 42.4337 127.649 42.5006L127.698 42.003C128.38 42.0704 129.058 42.141 129.731 42.2147L129.677 42.7117C130.358 42.7861 131.035 42.8637 131.708 42.9444L131.767 42.448C132.449 42.5298 133.127 42.6149 133.8 42.703L133.735 43.1988C134.413 43.2875 135.085 43.3794 135.754 43.4745L135.824 42.9794C136.506 43.0765 137.184 43.1768 137.856 43.2803L137.78 43.7745C138.455 43.8785 139.125 43.9857 139.789 44.096L139.871 43.6028C140.551 43.7157 141.225 43.832 141.894 43.9515L141.806 44.4437C142.481 44.5644 143.15 44.6884 143.813 44.8157L143.908 44.3247C144.581 44.454 145.249 44.5866 145.909 44.7226L145.809 45.2123C146.483 45.3511 147.152 45.4934 147.812 45.6391L147.92 45.1508C148.592 45.2988 149.256 45.4502 149.913 45.6051L149.799 46.0918C150.466 46.2491 151.126 46.4099 151.777 46.5741L151.9 46.0892C152.571 46.2584 153.234 46.4311 153.888 46.6074L153.758 47.0902C154.42 47.2688 155.074 47.4511 155.719 47.6369L155.857 47.1564C156.519 47.3471 157.171 47.5415 157.813 47.7395L157.666 48.2173C158.326 48.421 158.976 48.6285 159.615 48.8398L159.772 48.3651C160.429 48.5825 161.076 48.8039 161.71 49.0292L161.543 49.5004C162.191 49.7303 162.826 49.9643 163.449 50.2021L163.627 49.735C164.273 49.9816 164.906 50.2325 165.524 50.4874L165.334 50.9497C165.974 51.2136 166.599 51.4818 167.209 51.7541L167.413 51.2976C168.049 51.582 168.669 51.8709 169.272 52.1643L169.053 52.6139C169.675 52.9166 170.278 53.2238 170.862 53.5354L171.097 53.0942C171.714 53.4232 172.309 53.7571 172.883 54.0959L172.629 54.5265C173.225 54.8784 173.797 55.2352 174.345 55.5966L174.62 55.1793C175.206 55.5663 175.765 55.9589 176.295 56.3567L175.995 56.7567C176.549 57.1725 177.071 57.5934 177.559 58.0191L177.888 57.6421C178.42 58.1054 178.914 58.5752 179.369 59.0509L179.008 59.3966C179.483 59.8931 179.914 60.3947 180.298 60.9006L180.696 60.5981C181.126 61.1631 181.501 61.7356 181.821 62.3147L181.383 62.5564C181.71 63.1473 181.974 63.7426 182.175 64.3417L182.649 64.1826Z" stroke="#FFF0E3" stroke-dasharray="2 2"/>
<path d="M213.132 66.5066C213.132 71.1535 210.376 75.6556 205.219 79.8201C200.067 83.9811 192.581 87.7505 183.287 90.9255C164.703 97.2739 138.997 101.209 110.58 101.209C82.1623 101.209 56.4564 97.2739 37.8723 90.9255C28.5777 87.7505 21.092 83.9811 15.9399 79.8201C10.7834 75.6556 8.02734 71.1535 8.02734 66.5066C8.02734 61.8598 10.7834 57.3577 15.9399 53.1931C21.092 49.0321 28.5777 45.2627 37.8723 42.0877C56.4564 35.7394 82.1623 31.804 110.58 31.804C138.997 31.804 164.703 35.7394 183.287 42.0877C192.581 45.2627 200.067 49.0321 205.219 53.1931C210.376 57.3577 213.132 61.8598 213.132 66.5066Z" stroke="#FFF0E3"/>
<path d="M261.238 64.2394C261.367 64.8902 261.454 65.545 261.497 66.2035L260.998 66.2365C261.02 66.5558 261.03 66.876 261.03 67.197C261.03 67.5181 261.02 67.8383 260.998 68.1576L261.497 68.1906C261.454 68.8491 261.367 69.5039 261.238 70.1547L260.748 70.0576C260.625 70.6804 260.461 71.3002 260.259 71.9166L260.733 72.0728C260.529 72.6936 260.287 73.3103 260.006 73.9228L259.552 73.7147C259.288 74.2906 258.99 74.8636 258.657 75.4334L259.089 75.6854C258.764 76.2432 258.407 76.7971 258.019 77.3469L257.61 77.0587C257.245 77.5762 256.852 78.0908 256.431 78.602L256.816 78.92C256.403 79.4211 255.965 79.9186 255.5 80.412L255.136 80.0695C254.696 80.5373 254.233 81.0019 253.746 81.4633L254.09 81.8261C253.623 82.269 253.135 82.7085 252.627 83.1445L252.302 82.765C251.814 83.1835 251.307 83.5989 250.782 84.0112L251.09 84.4046C250.576 84.8082 250.044 85.2085 249.494 85.6055L249.202 85.2003C248.683 85.5749 248.149 85.9467 247.599 86.3155L247.878 86.7307C247.334 87.096 246.774 87.4582 246.201 87.8173L245.936 87.3935C245.39 87.7352 244.83 88.0741 244.258 88.4102L244.511 88.8414C243.948 89.1722 243.372 89.5001 242.783 89.8251L242.542 89.3875C241.973 89.7016 241.393 90.0131 240.801 90.3218L241.032 90.7651C240.454 91.0667 239.865 91.3657 239.266 91.6619L239.044 91.2136C238.459 91.5027 237.864 91.7893 237.258 92.0732L237.47 92.526C236.88 92.8028 236.28 93.077 235.671 93.3487L235.467 92.8921C234.87 93.1585 234.264 93.4225 233.649 93.6839L233.844 94.1441C233.243 94.3996 232.634 94.6526 232.016 94.9031L231.828 94.4398C231.222 94.6856 230.608 94.929 229.986 95.17L230.167 95.6362C229.555 95.873 228.937 96.1075 228.311 96.3396L228.137 95.8707C227.525 96.0977 226.905 96.3223 226.279 96.5446L226.446 97.0158C225.826 97.2362 225.198 97.4542 224.564 97.6699L224.403 97.1965C223.786 97.4062 223.163 97.6136 222.534 97.8189L222.689 98.2942C222.059 98.4997 221.423 98.703 220.78 98.9039L220.631 98.4268C220.011 98.6205 219.386 98.8122 218.755 99.0016L218.899 99.4805C218.267 99.6705 217.628 99.8584 216.984 100.044L216.846 99.5636C216.218 99.7446 215.585 99.9236 214.946 100.1L215.08 100.582C214.447 100.758 213.808 100.931 213.165 101.102L213.036 100.619C212.399 100.788 211.757 100.956 211.11 101.121L211.233 101.606C210.6 101.767 209.962 101.927 209.319 102.085L209.2 101.599C208.559 101.757 207.913 101.912 207.263 102.065L207.378 102.552C206.74 102.703 206.097 102.851 205.45 102.997L205.34 102.51C204.7 102.655 204.056 102.798 203.407 102.938L203.514 103.427C202.866 103.568 202.214 103.707 201.559 103.843L201.457 103.354C200.818 103.487 200.175 103.618 199.529 103.748L199.627 104.238C198.979 104.368 198.328 104.495 197.673 104.621L197.579 104.13C196.933 104.254 196.283 104.376 195.629 104.496L195.72 104.988C195.074 105.106 194.425 105.223 193.773 105.338L193.686 104.846C193.035 104.96 192.381 105.073 191.723 105.184L191.806 105.677C191.158 105.786 190.507 105.893 189.853 105.998L189.773 105.505C189.125 105.609 188.473 105.711 187.818 105.812L187.894 106.306C187.238 106.407 186.58 106.506 185.918 106.603L185.845 106.108C185.198 106.203 184.547 106.296 183.894 106.387L183.963 106.882C183.31 106.974 182.655 107.063 181.996 107.15L181.93 106.655C181.274 106.742 180.614 106.827 179.952 106.91L180.015 107.407C179.364 107.488 178.712 107.569 178.056 107.647L177.997 107.15C177.343 107.228 176.686 107.305 176.027 107.379L176.083 107.876C175.424 107.95 174.763 108.023 174.099 108.094L174.046 107.596C173.395 107.666 172.741 107.733 172.085 107.799L172.135 108.297C171.478 108.363 170.819 108.427 170.157 108.489L170.11 107.991C169.452 108.053 168.791 108.113 168.127 108.171L168.171 108.669C167.517 108.727 166.861 108.783 166.202 108.836L166.162 108.338C165.504 108.392 164.845 108.444 164.184 108.494L164.222 108.993C163.561 109.043 162.898 109.091 162.232 109.138L162.198 108.639C161.543 108.685 160.887 108.729 160.229 108.771L160.261 109.27C159.602 109.312 158.941 109.353 158.278 109.391L158.249 108.892C157.588 108.931 156.925 108.967 156.26 109.002L156.286 109.502C155.63 109.536 154.972 109.569 154.313 109.6L154.289 109.1C153.631 109.131 152.971 109.16 152.309 109.188L152.329 109.687C151.667 109.715 151.002 109.74 150.336 109.764L150.319 109.264C149.662 109.288 149.004 109.309 148.344 109.329L148.359 109.829C147.7 109.849 147.039 109.867 146.376 109.883L146.364 109.383C145.702 109.399 145.039 109.414 144.375 109.426L144.384 109.926C143.725 109.939 143.064 109.95 142.402 109.959L142.396 109.459C141.737 109.468 141.077 109.475 140.416 109.48L140.42 109.98C139.758 109.986 139.095 109.989 138.43 109.991L138.429 109.491C138.097 109.492 137.765 109.492 137.432 109.492C137.1 109.492 136.767 109.492 136.435 109.491L136.434 109.991C135.769 109.989 135.106 109.986 134.444 109.98L134.448 109.48C133.787 109.475 133.127 109.468 132.468 109.459L132.462 109.959C131.8 109.95 131.139 109.939 130.48 109.926L130.489 109.426C129.825 109.414 129.162 109.399 128.5 109.383L128.488 109.883C127.825 109.867 127.164 109.849 126.505 109.829L126.52 109.329C125.86 109.309 125.202 109.288 124.545 109.264L124.528 109.764C123.862 109.74 123.197 109.715 122.535 109.687L122.555 109.188C121.894 109.16 121.233 109.131 120.575 109.1L120.551 109.6C119.892 109.569 119.234 109.536 118.578 109.502L118.604 109.002C117.939 108.967 117.276 108.931 116.615 108.892L116.586 109.391C115.923 109.353 115.262 109.312 114.603 109.27L114.635 108.771C113.977 108.729 113.321 108.685 112.666 108.639L112.632 109.138C111.967 109.091 111.303 109.043 110.642 108.993L110.68 108.494C110.019 108.444 109.36 108.392 108.702 108.338L108.662 108.836C108.003 108.783 107.347 108.727 106.693 108.669L106.737 108.171C106.074 108.113 105.412 108.053 104.754 107.991L104.707 108.489C104.045 108.427 103.386 108.363 102.729 108.297L102.779 107.799C102.123 107.733 101.469 107.666 100.818 107.596L100.765 108.094C100.101 108.023 99.4399 107.95 98.7811 107.876L98.8372 107.379C98.178 107.305 97.5213 107.228 96.867 107.15L96.8077 107.647C96.1524 107.569 95.4996 107.488 94.8493 107.407L94.9118 106.91C94.2497 106.827 93.5903 106.742 92.9336 106.655L92.8678 107.15C92.2094 107.063 91.5537 106.974 90.9007 106.882L90.9698 106.387C90.3167 106.296 89.6663 106.203 89.0188 106.108L88.9463 106.603C88.2845 106.506 87.6257 106.407 86.9698 106.306L87.0458 105.812C86.3911 105.711 85.7395 105.609 85.0909 105.505L85.0114 105.998C84.3572 105.893 83.706 105.786 83.0581 105.677L83.1411 105.184C82.4834 105.073 81.829 104.96 81.1779 104.846L81.0912 105.338C80.4389 105.223 79.79 105.106 79.1444 104.988L79.2348 104.496C78.5813 104.376 77.9314 104.254 77.2851 104.13L77.1908 104.621C76.5359 104.495 75.8846 104.368 75.237 104.238L75.3351 103.748C74.6888 103.618 74.0462 103.487 73.4074 103.354L73.3054 103.843C72.6497 103.707 71.9981 103.568 71.3504 103.427L71.4566 102.938C70.8084 102.798 70.1642 102.655 69.5242 102.51L69.4138 102.997C68.7669 102.851 68.1243 102.702 67.486 102.552L67.6007 102.065C66.9506 101.912 66.3049 101.757 65.6639 101.599L65.5447 102.085C64.9021 101.927 64.264 101.767 63.6306 101.606L63.7544 101.121C63.1073 100.956 62.4652 100.788 61.828 100.619L61.6994 101.102C61.056 100.931 60.4175 100.758 59.7842 100.582L59.9177 100.1C59.2793 99.9236 58.6461 99.7446 58.0182 99.5636L57.8797 100.044C57.2358 99.8584 56.5975 99.6705 55.9649 99.4805L56.1087 99.0016C55.4778 98.8121 54.8526 98.6205 54.2331 98.4267L54.0839 98.9039C53.4414 98.703 52.8051 98.4997 52.175 98.2942L52.33 97.8189C51.7008 97.6136 51.0779 97.4062 50.4614 97.1965L50.3004 97.6699C49.6661 97.4542 49.0385 97.2362 48.4178 97.0158L48.585 96.5446C47.9586 96.3223 47.3393 96.0977 46.7271 95.8707L46.5533 96.3395C45.9272 96.1075 45.3086 95.873 44.6974 95.6362L44.8781 95.17C44.2562 94.929 43.6421 94.6856 43.0361 94.4398L42.8482 94.9031C42.2305 94.6526 41.621 94.3996 41.0199 94.1441L41.2154 93.6839C40.6002 93.4225 39.9939 93.1585 39.3966 92.8921L39.1929 93.3487C38.5839 93.077 37.9841 92.8027 37.3938 92.5259L37.606 92.0732C37.0005 91.7893 36.405 91.5027 35.8199 91.2136L35.5984 91.6619C34.9989 91.3657 34.41 91.0667 33.8318 90.7651L34.0631 90.3218C33.4713 90.0131 32.891 89.7016 32.3225 89.3875L32.0807 89.8251C31.4924 89.5001 30.9165 89.1722 30.3531 88.8414L30.6062 88.4102C30.0337 88.0741 29.4744 87.7352 28.9285 87.3935L28.6632 87.8173C28.0896 87.4582 27.5305 87.096 26.9861 86.7307L27.2647 86.3155C26.7151 85.9467 26.1809 85.5749 25.6625 85.2002L25.3696 85.6055C24.8203 85.2085 24.2882 84.8082 23.7736 84.4046L24.0822 84.0112C23.5566 83.5989 23.0499 83.1835 22.5623 82.765L22.2367 83.1444C21.7287 82.7085 21.241 82.269 20.7738 81.8261L21.1179 81.4633C20.6312 81.0019 20.1678 80.5372 19.7278 80.0695L19.3636 80.412C18.8995 79.9185 18.4606 79.4211 18.0476 78.9199L18.4335 78.602C18.0122 78.0907 17.6188 77.5762 17.2537 77.0586L16.8451 77.3468C16.4574 76.7971 16.1004 76.2432 15.7749 75.6853L16.2068 75.4333C15.8743 74.8636 15.576 74.2906 15.3124 73.7146L14.8577 73.9227C14.5774 73.3103 14.3347 72.6936 14.1306 72.0728L14.6056 71.9166C14.4028 71.3001 14.2395 70.6804 14.1162 70.0576L13.6257 70.1546C13.4969 69.5038 13.4103 68.849 13.3668 68.1905L13.8657 68.1575C13.8446 67.8382 13.834 67.5181 13.834 67.197C13.834 66.876 13.8446 66.5558 13.8657 66.2364L13.3668 66.2035C13.4103 65.545 13.4969 64.8902 13.6257 64.2393L14.1162 64.3364C14.2395 63.7136 14.4028 63.0939 14.6056 62.4774L14.1306 62.3212C14.3348 61.7004 14.5774 61.0837 14.8577 60.4713L15.3124 60.6794C15.576 60.1034 15.8743 59.5304 16.2068 58.9607L15.7749 58.7087C16.1005 58.1508 16.4574 57.5969 16.8452 57.0472L17.2537 57.3354C17.6188 56.8178 18.0122 56.3033 18.4335 55.792L18.0476 55.4741C18.4607 54.9729 18.8995 54.4755 19.3636 53.982L19.7278 54.3246C20.1678 53.8568 20.6313 53.3921 21.1179 52.9307L20.7739 52.5679C21.241 52.125 21.7288 51.6855 22.2367 51.2496L22.5623 51.629C23.0499 51.2106 23.5566 50.7951 24.0823 50.3829L23.7737 49.9894C24.2882 49.5858 24.8203 49.1855 25.3697 48.7885L25.6625 49.1938C26.181 48.8191 26.7151 48.4473 27.2648 48.0785L26.9862 47.6633C27.5305 47.298 28.0896 46.9358 28.6633 46.5767L28.9285 47.0006C29.4744 46.6589 30.0337 46.3199 30.6063 45.9838L30.3531 45.5526C30.9165 45.2218 31.4925 44.8939 32.0807 44.5689L32.3225 45.0066C32.8911 44.6924 33.4713 44.381 34.0631 44.0722L33.8319 43.6289C34.41 43.3273 34.9989 43.0284 35.5984 42.7322L35.8199 43.1804C36.4051 42.8913 37.0005 42.6047 37.6061 42.3208L37.3938 41.8681C37.9841 41.5913 38.5839 41.317 39.1929 41.0453L39.3966 41.502C39.9939 41.2355 40.6002 40.9716 41.2154 40.7101L41.0199 40.2499C41.621 39.9945 42.2305 39.7415 42.8483 39.4909L43.0362 39.9543C43.6422 39.7085 44.2562 39.4651 44.8781 39.2241L44.6974 38.7579C45.3086 38.521 45.9273 38.2866 46.5533 38.0545L46.7271 38.5233C47.3393 38.2964 47.9587 38.0717 48.585 37.8494L48.4178 37.3782C49.0386 37.1579 49.6661 36.9398 50.3004 36.7241L50.4614 37.1975C51.0779 36.9879 51.7008 36.7804 52.3301 36.5752L52.175 36.0998C52.8051 35.8943 53.4414 35.6911 54.0839 35.4901L54.2332 35.9673C54.8526 35.7735 55.4778 35.5819 56.1087 35.3924L55.9649 34.9135C56.5976 34.7235 57.2359 34.5357 57.8797 34.35L58.0182 34.8304C58.6461 34.6494 59.2793 34.4705 59.9177 34.2937L59.7842 33.8118C60.4176 33.6364 61.056 33.4631 61.6995 33.2919L61.828 33.7751C62.4652 33.6056 63.1074 33.4382 63.7544 33.2729L63.6306 32.7884C64.2641 32.6266 64.9021 32.4668 65.5447 32.309L65.6639 32.7946C66.305 32.6373 66.9506 32.4819 67.6007 32.3287L67.486 31.842C68.1244 31.6915 68.767 31.5431 69.4138 31.3966L69.5242 31.8843C70.1643 31.7394 70.8084 31.5965 71.4567 31.4555L71.3505 30.967C71.9981 30.8262 72.6498 30.6874 73.3054 30.5507L73.4075 31.0402C74.0463 30.9069 74.6888 30.7757 75.3351 30.6463L75.237 30.156C75.8846 30.0265 76.5359 29.8988 77.1909 29.7732L77.2851 30.2642C77.9315 30.1402 78.5814 30.0182 79.2348 29.8981L79.1444 29.4063C79.79 29.2876 80.439 29.1709 81.0913 29.0561L81.1779 29.5485C81.829 29.4339 82.4834 29.3212 83.1411 29.2105L83.0581 28.7174C83.7061 28.6083 84.3572 28.5011 85.0115 28.3958L85.0909 28.8895C85.7395 28.7851 86.3912 28.6826 87.0458 28.582L86.9699 28.0878C87.6257 27.987 88.2845 27.8881 88.9463 27.7912L89.0188 28.2859C89.6663 28.191 90.3167 28.098 90.9699 28.0068L90.9008 27.5116C91.5537 27.4205 92.2094 27.3312 92.8678 27.2438L92.9336 27.7395C93.5903 27.6523 94.2498 27.567 94.9118 27.4836L94.8493 26.9875C95.4996 26.9056 96.1525 26.8255 96.8078 26.7473L96.8671 27.2437C97.5213 27.1656 98.1781 27.0893 98.8373 27.0149L98.7812 26.518C99.4399 26.4436 100.101 26.3711 100.765 26.3004L100.818 26.7976C101.469 26.7282 102.123 26.6607 102.779 26.5949L102.729 26.0974C103.386 26.0315 104.045 25.9675 104.707 25.9053L104.754 26.4031C105.413 26.3411 106.074 26.281 106.737 26.2227L106.693 25.7246C107.347 25.6672 108.003 25.6115 108.662 25.5576L108.702 26.0559C109.36 26.0021 110.019 25.9501 110.68 25.8999L110.642 25.4014C111.303 25.3512 111.967 25.3028 112.632 25.2563L112.666 25.7551C113.321 25.7093 113.977 25.6654 114.635 25.6232L114.603 25.1242C115.262 25.0819 115.923 25.0415 116.586 25.0028L116.615 25.502C117.276 25.4634 117.939 25.4266 118.604 25.3917L118.578 24.8923C119.234 24.8579 119.892 24.8251 120.552 24.7942L120.575 25.2937C121.233 25.2628 121.894 25.2337 122.555 25.2064L122.535 24.7068C123.197 24.6795 123.862 24.6539 124.528 24.6302L124.545 25.1299C125.202 25.1065 125.86 25.0849 126.52 25.065L126.505 24.5652C127.164 24.5454 127.826 24.5273 128.488 24.5111L128.5 25.0109C129.162 24.9947 129.825 24.9802 130.489 24.9675L130.48 24.4676C131.139 24.4551 131.8 24.4443 132.462 24.4353L132.468 24.9353C133.127 24.9263 133.787 24.9191 134.448 24.9138L134.444 24.4138C135.106 24.4084 135.77 24.4048 136.434 24.403L136.436 24.903C136.767 24.9021 137.1 24.9016 137.432 24.9016C137.765 24.9016 138.097 24.9021 138.429 24.903L138.43 24.403C139.095 24.4048 139.758 24.4084 140.42 24.4138L140.416 24.9138C141.077 24.9191 141.737 24.9263 142.396 24.9353L142.403 24.4353C143.064 24.4443 143.725 24.4551 144.384 24.4676L144.375 24.9675C145.039 24.9802 145.702 24.9947 146.364 25.0109L146.376 24.5111C147.039 24.5273 147.7 24.5454 148.359 24.5652L148.344 25.065C149.004 25.0849 149.662 25.1065 150.319 25.1299L150.337 24.6302C151.002 24.6539 151.667 24.6795 152.329 24.7068L152.309 25.2064C152.971 25.2337 153.631 25.2628 154.289 25.2937L154.313 24.7942C154.972 24.8251 155.63 24.8579 156.286 24.8923L156.26 25.3917C156.925 25.4266 157.588 25.4634 158.249 25.502L158.279 25.0028C158.941 25.0415 159.602 25.0819 160.261 25.1242L160.229 25.6232C160.887 25.6654 161.543 25.7094 162.198 25.7551L162.233 25.2563C162.898 25.3029 163.561 25.3512 164.222 25.4014L164.184 25.8999C164.845 25.9501 165.504 26.0021 166.162 26.0559L166.203 25.5576C166.861 25.6115 167.517 25.6672 168.171 25.7246L168.127 26.2227C168.791 26.281 169.452 26.3411 170.11 26.4031L170.157 25.9053C170.819 25.9675 171.478 26.0315 172.135 26.0974L172.085 26.5949C172.741 26.6607 173.395 26.7282 174.046 26.7976L174.099 26.3004C174.763 26.3711 175.424 26.4436 176.083 26.518L176.027 27.0149C176.686 27.0893 177.343 27.1656 177.997 27.2437L178.056 26.7473C178.712 26.8255 179.365 26.9056 180.015 26.9875L179.952 27.4836C180.614 27.567 181.274 27.6523 181.931 27.7395L181.996 27.2438C182.655 27.3312 183.31 27.4205 183.963 27.5116L183.894 28.0068C184.547 28.098 185.198 28.191 185.845 28.2859L185.918 27.7912C186.58 27.8881 187.238 27.987 187.894 28.0878L187.818 28.582C188.473 28.6826 189.125 28.7851 189.773 28.8895L189.853 28.3958C190.507 28.5011 191.158 28.6083 191.806 28.7174L191.723 29.2105C192.381 29.3212 193.035 29.4339 193.686 29.5485L193.773 29.0561C194.425 29.1709 195.074 29.2876 195.72 29.4063L195.629 29.8981C196.283 30.0182 196.933 30.1402 197.579 30.2642L197.673 29.7732C198.328 29.8988 198.98 30.0265 199.627 30.1561L199.529 30.6463C200.175 30.7757 200.818 30.9069 201.457 31.0402L201.559 30.5507C202.214 30.6874 202.866 30.8262 203.514 30.967L203.407 31.4556C204.056 31.5965 204.7 31.7394 205.34 31.8843L205.45 31.3966C206.097 31.5431 206.74 31.6915 207.378 31.842L207.263 32.3287C207.914 32.4819 208.559 32.6373 209.2 32.7946L209.319 32.3091C209.962 32.4668 210.6 32.6266 211.233 32.7884L211.11 33.2729C211.757 33.4382 212.399 33.6056 213.036 33.7751L213.165 33.2919C213.808 33.4631 214.447 33.6364 215.08 33.8118L214.946 34.2937C215.585 34.4705 216.218 34.6494 216.846 34.8305L216.984 34.35C217.628 34.5357 218.267 34.7235 218.899 34.9135L218.755 35.3924C219.386 35.5819 220.012 35.7735 220.631 35.9673L220.78 35.4901C221.423 35.6911 222.059 35.8943 222.689 36.0998L222.534 36.5752C223.163 36.7804 223.786 36.9879 224.403 37.1975L224.564 36.7242C225.198 36.9398 225.826 37.1579 226.446 37.3782L226.279 37.8494C226.905 38.0717 227.525 38.2964 228.137 38.5233L228.311 38.0545C228.937 38.2866 229.556 38.521 230.167 38.7579L229.986 39.2241C230.608 39.4651 231.222 39.7085 231.828 39.9543L232.016 39.4909C232.634 39.7415 233.243 39.9945 233.844 40.25L233.649 40.7101C234.264 40.9716 234.87 41.2355 235.467 41.502L235.671 41.0453C236.28 41.317 236.88 41.5913 237.47 41.8681L237.258 42.3208C237.864 42.6047 238.459 42.8913 239.044 43.1804L239.266 42.7322C239.865 43.0284 240.454 43.3273 241.032 43.6289L240.801 44.0722C241.393 44.381 241.973 44.6925 242.542 45.0066L242.783 44.569C243.372 44.8939 243.948 45.2219 244.511 45.5526L244.258 45.9838C244.83 46.3199 245.39 46.6589 245.936 47.0006L246.201 46.5768C246.775 46.9358 247.334 47.2981 247.878 47.6633L247.599 48.0785C248.149 48.4474 248.683 48.8192 249.202 49.1938L249.494 48.7885C250.044 49.1855 250.576 49.5859 251.09 49.9895L250.782 50.3829C251.307 50.7952 251.814 51.2106 252.302 51.629L252.627 51.2496C253.135 51.6856 253.623 52.125 254.09 52.5679L253.746 52.9308C254.233 53.3921 254.696 53.8568 255.136 54.3246L255.501 53.982C255.965 54.4755 256.403 54.9729 256.816 55.4741L256.431 55.7921C256.852 56.3033 257.245 56.8178 257.61 57.3354L258.019 57.0472C258.407 57.597 258.764 58.1509 259.089 58.7087L258.657 58.9607C258.99 59.5305 259.288 60.1035 259.552 60.6794L260.006 60.4713C260.287 61.0838 260.529 61.7005 260.734 62.3213L260.259 62.4775C260.461 63.0939 260.625 63.7137 260.748 64.3365L261.238 64.2394Z" stroke="#FFF0E3" stroke-dasharray="2 2"/>
<ellipse cx="170.816" cy="78.9312" rx="12.3372" ry="11.7342" fill="#FF8225"/>
<path d="M223.292 52.0114C223.292 61.6235 215.092 69.4579 204.923 69.4579C194.755 69.4579 186.555 61.6235 186.555 52.0114C186.555 42.3993 194.755 34.5649 204.923 34.5649C215.092 34.5649 223.292 42.3993 223.292 52.0114Z" fill="#BF9BD2" stroke="black"/>
<ellipse cx="241.028" cy="91.8487" rx="26.1259" ry="24.849" fill="#10B9C3"/>
<g filter="url(#filter0_d_1196_1913)">
<path d="M4.625 133.461C43.1022 133.461 74.2941 103.793 74.2941 67.197C74.2941 30.6004 43.1022 0.933105 4.625 0.933105V133.461Z" fill="#FFF0E3"/>
<path d="M73.7941 67.197C73.7941 103.336 43.1194 132.704 5.125 132.959V1.43479C43.1194 1.69041 73.7941 31.0583 73.7941 67.197Z" stroke="white"/>
</g>
<defs>
<filter id="filter0_d_1196_1913" x="0.625" y="0.933105" width="77.6699" height="140.528" filterUnits="userSpaceOnUse" color-interpolation-filters="sRGB">
<feFlood flood-opacity="0" result="BackgroundImageFix"/>
<feColorMatrix in="SourceAlpha" type="matrix" values="0 0 0 0 0 0 0 0 0 0 0 0 0 0 0 0 0 0 127 0" result="hardAlpha"/>
<feOffset dy="4"/>
<feGaussianBlur stdDeviation="2"/>
<feComposite in2="hardAlpha" operator="out"/>
<feColorMatrix type="matrix" values="0 0 0 0 0 0 0 0 0 0 0 0 0 0 0 0 0 0 0.25 0"/>
<feBlend mode="normal" in2="BackgroundImageFix" result="effect1_dropShadow_1196_1913"/>
<feBlend mode="normal" in="SourceGraphic" in2="effect1_dropShadow_1196_1913" result="shape"/>
</filter>
</defs>
</svg>
