<svg width="230" height="102" viewBox="0 0 230 102" fill="none" xmlns="http://www.w3.org/2000/svg">
<path d="M124.453 2.96291C112.935 4.663 101.34 7.00834 90.0286 10.1385C78.706 13.3167 67.4441 17.2203 56.6542 22.467C47.0968 27.0616 20.9554 41.4265 27.6728 57.2306C34.7086 72.0829 65.1614 75.4259 78.3837 76.3137C94.9145 77.3159 111.572 76.4327 128.018 74.2429C145.33 71.9388 162.607 68.1885 179.392 62.5643C181.216 61.9259 184.263 60.8688 186.077 60.1618C194.93 56.7868 203.696 52.8809 211.893 47.593C215.961 44.9411 219.93 41.9573 223.361 38.2071C227.517 33.7223 231.377 26.8945 228.353 20.1674C223.1 8.77707 204.199 4.42274 194.15 2.58079C182.638 0.562656 170.933 -0.020819 159.307 0.118757C147.705 0.29952 135.977 1.32918 124.453 2.96062V2.96291ZM124.453 2.96291C133.653 1.6541 143.068 0.683927 152.318 0.281215C166.274 -0.359463 180.333 0.00892669 194.186 2.28105C204.474 4.07266 223.418 8.28283 228.835 19.8608C230.674 23.8399 230.209 28.4276 228.327 32.2511C220.496 47.9431 193.951 58.7523 179.667 63.7427C163.967 69.1267 147.817 72.7465 131.618 75.133C115.412 77.4303 99.0116 78.5172 82.7008 77.7621C67.8157 76.9841 39.9377 74.0485 29.2559 61.0381C26.6907 57.8645 25.3199 53.5467 26.338 49.1467C29.3374 36.3354 46.9603 26.8419 56.5613 22.1855C69.5789 16.0282 83.1653 11.6601 96.8521 8.30342C105.919 6.05647 115.26 4.31062 124.453 2.96291Z" fill="white"/>
<path d="M17.6483 79.6045C17.0835 78.9148 17.2454 77.845 18.0092 77.2195C18.7097 76.6459 19.6698 76.6477 20.2612 77.1842C30.6599 66.9137 30.5584 64.2627 18.019 47.4646C17.2607 48.0079 16.2519 47.9386 15.7105 47.2775C15.1457 46.5878 15.3076 45.518 16.0714 44.8925C16.8352 44.2671 17.916 44.3193 18.4807 45.009C18.9987 45.6415 18.9006 46.5874 18.2912 47.2238C32.2215 62.7575 34.8452 63.4505 46.8092 55.4144C46.4745 54.7393 46.6813 53.8535 47.3502 53.3058C48.114 52.6803 49.1947 52.7326 49.7595 53.4222C50.3242 54.1119 50.1623 55.1817 49.3985 55.8072C48.6783 56.397 47.6829 56.3764 47.0947 55.7954C36.7711 66.0284 37.0466 68.6981 49.9012 85.8649C50.6473 85.3793 51.6088 85.4635 52.1325 86.1031C52.6973 86.7928 52.5354 87.8626 51.7716 88.4881C51.0078 89.1136 49.9271 89.0613 49.3623 88.3717C48.8151 87.7034 48.955 86.6875 49.6539 86.0554C35.2846 69.9857 32.7752 69.2707 20.5363 77.5201C20.9457 78.2057 20.7581 79.1473 20.0576 79.7209C19.2938 80.3464 18.2131 80.2941 17.6483 79.6045Z" fill="#10B9C3"/>
<path d="M46.328 33.98V30.94H56.688V33.98H46.328ZM54.048 22L60.968 37H56.948L51.008 23.58H52.168L46.248 37H42.228L49.148 22H54.048ZM62.2352 21.6H65.9352V29.06L65.4352 30.04V32.72L65.9352 33.68V37H62.2352V21.6ZM64.6952 31.3C64.8952 30.0733 65.2752 29.0133 65.8352 28.12C66.3952 27.2267 67.1018 26.5333 67.9552 26.04C68.8085 25.5333 69.7685 25.28 70.8352 25.28C71.9552 25.28 72.9352 25.5333 73.7752 26.04C74.6285 26.5467 75.2952 27.2533 75.7752 28.16C76.2552 29.0533 76.4952 30.1 76.4952 31.3C76.4952 32.5 76.2552 33.5533 75.7752 34.46C75.2952 35.3533 74.6285 36.0533 73.7752 36.56C72.9352 37.0667 71.9552 37.32 70.8352 37.32C69.7685 37.32 68.8085 37.0733 67.9552 36.58C67.1018 36.0733 66.3952 35.3733 65.8352 34.48C65.2752 33.5733 64.8952 32.5133 64.6952 31.3ZM72.7352 31.3C72.7352 30.6867 72.6085 30.1467 72.3552 29.68C72.1018 29.2 71.7485 28.8267 71.2952 28.56C70.8552 28.28 70.3418 28.14 69.7552 28.14C69.1685 28.14 68.6085 28.28 68.0752 28.56C67.5552 28.8267 67.0952 29.2 66.6952 29.68C66.3085 30.1467 66.0085 30.6867 65.7952 31.3C66.0085 31.9133 66.3085 32.46 66.6952 32.94C67.0952 33.4067 67.5552 33.78 68.0752 34.06C68.6085 34.3267 69.1685 34.46 69.7552 34.46C70.3418 34.46 70.8552 34.3267 71.2952 34.06C71.7485 33.78 72.1018 33.4067 72.3552 32.94C72.6085 32.46 72.7352 31.9133 72.7352 31.3ZM91.1884 33.34C91.1884 34.1933 90.9351 34.92 90.4284 35.52C89.9351 36.1067 89.2084 36.5533 88.2484 36.86C87.2884 37.1667 86.1218 37.32 84.7484 37.32C83.3484 37.32 82.1218 37.1467 81.0684 36.8C80.0151 36.4533 79.1951 35.9667 78.6084 35.34C78.0218 34.7133 77.7084 33.9867 77.6684 33.16H81.4484C81.5284 33.4933 81.7151 33.7867 82.0084 34.04C82.3151 34.2933 82.7084 34.4867 83.1884 34.62C83.6684 34.74 84.2351 34.8 84.8884 34.8C85.7684 34.8 86.4351 34.7067 86.8884 34.52C87.3418 34.3333 87.5684 34.0533 87.5684 33.68C87.5684 33.4 87.4018 33.1867 87.0684 33.04C86.7484 32.8933 86.1684 32.7867 85.3284 32.72L83.2484 32.56C81.9418 32.4533 80.9018 32.2467 80.1284 31.94C79.3551 31.62 78.8018 31.2133 78.4684 30.72C78.1484 30.2267 77.9884 29.6733 77.9884 29.06C77.9884 28.22 78.2484 27.5267 78.7684 26.98C79.3018 26.42 80.0351 26 80.9684 25.72C81.9018 25.4267 82.9951 25.28 84.2484 25.28C85.5018 25.28 86.6151 25.4467 87.5884 25.78C88.5751 26.1133 89.3618 26.5733 89.9484 27.16C90.5484 27.7467 90.8884 28.4333 90.9684 29.22H87.1884C87.1351 28.9533 86.9884 28.7067 86.7484 28.48C86.5218 28.2533 86.1884 28.0733 85.7484 27.94C85.3218 27.7933 84.7618 27.72 84.0684 27.72C83.2818 27.72 82.6818 27.8067 82.2684 27.98C81.8551 28.1533 81.6484 28.4067 81.6484 28.74C81.6484 28.9933 81.7751 29.2 82.0284 29.36C82.2818 29.5067 82.7618 29.6067 83.4684 29.66L86.1684 29.86C87.4484 29.9667 88.4484 30.1733 89.1684 30.48C89.9018 30.7733 90.4218 31.16 90.7284 31.64C91.0351 32.12 91.1884 32.6867 91.1884 33.34ZM99.6759 37.32C98.2359 37.32 96.9759 37.0667 95.8959 36.56C94.8159 36.0533 93.9759 35.3467 93.3759 34.44C92.7759 33.5333 92.4759 32.4867 92.4759 31.3C92.4759 30.1 92.7759 29.0533 93.3759 28.16C93.9759 27.2533 94.8159 26.5467 95.8959 26.04C96.9893 25.5333 98.2493 25.28 99.6759 25.28C101.116 25.28 102.376 25.5333 103.456 26.04C104.536 26.5467 105.376 27.2533 105.976 28.16C106.589 29.0533 106.896 30.1 106.896 31.3C106.896 32.5 106.589 33.5533 105.976 34.46C105.376 35.3533 104.536 36.0533 103.456 36.56C102.376 37.0667 101.116 37.32 99.6759 37.32ZM99.6759 34.52C100.409 34.52 101.029 34.3933 101.536 34.14C102.056 33.8733 102.449 33.5 102.716 33.02C102.996 32.54 103.136 31.9667 103.136 31.3C103.136 30.6333 102.996 30.06 102.716 29.58C102.449 29.0867 102.056 28.7133 101.536 28.46C101.029 28.1933 100.409 28.06 99.6759 28.06C98.9693 28.06 98.3559 28.1933 97.8359 28.46C97.3159 28.7133 96.9159 29.0867 96.6359 29.58C96.3559 30.06 96.2159 30.6333 96.2159 31.3C96.2159 31.9667 96.3559 32.54 96.6359 33.02C96.9159 33.5 97.3159 33.8733 97.8359 34.14C98.3559 34.3933 98.9693 34.52 99.6759 34.52ZM113.599 37.3C112.546 37.3 111.639 37.0867 110.879 36.66C110.132 36.22 109.559 35.6 109.159 34.8C108.772 34 108.579 33.0533 108.579 31.96V25.6H112.299V31.42C112.299 32.34 112.519 33.0467 112.959 33.54C113.399 34.0333 114.032 34.28 114.859 34.28C115.472 34.28 115.992 34.1533 116.419 33.9C116.846 33.6467 117.172 33.28 117.399 32.8C117.639 32.32 117.759 31.7533 117.759 31.1L118.919 31.72C118.786 32.92 118.466 33.94 117.959 34.78C117.466 35.6067 116.839 36.2333 116.079 36.66C115.332 37.0867 114.506 37.3 113.599 37.3ZM118.479 37L117.759 32.56V25.6H121.459V33.12L122.199 37H118.479ZM123.512 25.6H127.272L127.952 29.7V37H124.232V29.38L123.512 25.6ZM133.392 25.44V28.64C133.032 28.56 132.672 28.5 132.312 28.46C131.965 28.42 131.645 28.4 131.352 28.4C130.712 28.4 130.132 28.5333 129.612 28.8C129.105 29.0533 128.698 29.46 128.392 30.02C128.098 30.58 127.952 31.3067 127.952 32.2L127.212 31.28C127.305 30.4667 127.458 29.7 127.672 28.98C127.885 28.26 128.178 27.6267 128.552 27.08C128.925 26.52 129.385 26.08 129.932 25.76C130.492 25.44 131.165 25.28 131.952 25.28C132.178 25.28 132.418 25.2933 132.672 25.32C132.925 25.3467 133.165 25.3867 133.392 25.44ZM144.999 37L144.499 32.7L145.179 31.34L144.519 29.62L145.439 21.6H149.299L148.159 31.02L148.839 37H144.999ZM145.859 31.3C145.659 32.5133 145.279 33.5733 144.719 34.48C144.159 35.3733 143.452 36.0733 142.599 36.58C141.746 37.0733 140.786 37.32 139.719 37.32C138.599 37.32 137.612 37.0667 136.759 36.56C135.919 36.0533 135.259 35.3533 134.779 34.46C134.299 33.5533 134.059 32.5 134.059 31.3C134.059 30.1 134.299 29.0533 134.779 28.16C135.259 27.2533 135.919 26.5467 136.759 26.04C137.612 25.5333 138.599 25.28 139.719 25.28C140.786 25.28 141.746 25.5333 142.599 26.04C143.452 26.5333 144.159 27.2267 144.719 28.12C145.292 29.0133 145.672 30.0733 145.859 31.3ZM137.819 31.3C137.819 31.9133 137.946 32.46 138.199 32.94C138.452 33.4067 138.799 33.78 139.239 34.06C139.692 34.3267 140.212 34.46 140.799 34.46C141.386 34.46 141.939 34.3267 142.459 34.06C142.992 33.78 143.459 33.4067 143.859 32.94C144.259 32.46 144.559 31.9133 144.759 31.3C144.559 30.6867 144.259 30.1467 143.859 29.68C143.459 29.2 142.992 28.8267 142.459 28.56C141.939 28.28 141.386 28.14 140.799 28.14C140.212 28.14 139.692 28.28 139.239 28.56C138.799 28.8267 138.452 29.2 138.199 29.68C137.946 30.1467 137.819 30.6867 137.819 31.3ZM153.926 35.45C153.873 35.6567 153.873 35.8167 153.926 35.93C153.979 36.0433 154.093 36.1167 154.266 36.15L154.836 36.27C154.969 36.3033 155.066 36.35 155.126 36.41C155.186 36.4633 155.216 36.5367 155.216 36.63C155.216 36.7433 155.163 36.8333 155.056 36.9C154.956 36.9667 154.823 37 154.656 37H150.366C150.179 37 150.053 36.97 149.986 36.91C149.919 36.8433 149.886 36.76 149.886 36.66C149.886 36.5533 149.923 36.4667 149.996 36.4C150.076 36.3333 150.183 36.2833 150.316 36.25L150.936 36.14C151.136 36.1 151.293 36.0233 151.406 35.91C151.526 35.7967 151.623 35.63 151.696 35.41C151.763 35.15 151.856 34.7967 151.976 34.35C152.103 33.8967 152.243 33.3833 152.396 32.81C152.556 32.2367 152.723 31.63 152.896 30.99C153.069 30.35 153.239 29.71 153.406 29.07C153.579 28.43 153.739 27.82 153.886 27.24C154.039 26.6533 154.173 26.1267 154.286 25.66C154.399 25.1933 154.483 24.8167 154.536 24.53C154.583 24.3433 154.583 24.1967 154.536 24.09C154.489 23.9833 154.376 23.91 154.196 23.87L153.596 23.74C153.456 23.7 153.356 23.6533 153.296 23.6C153.243 23.54 153.216 23.4633 153.216 23.37C153.216 23.25 153.273 23.16 153.386 23.1C153.499 23.0333 153.663 23 153.876 23H158.116C158.296 23 158.416 23.03 158.476 23.09C158.543 23.1433 158.576 23.22 158.576 23.32C158.576 23.4267 158.536 23.5133 158.456 23.58C158.383 23.6467 158.269 23.7 158.116 23.74L157.446 23.9C157.259 23.94 157.116 24.0033 157.016 24.09C156.916 24.1767 156.833 24.32 156.766 24.52C156.686 24.82 156.579 25.2167 156.446 25.71C156.313 26.1967 156.163 26.7467 155.996 27.36C155.829 27.9667 155.656 28.6033 155.476 29.27C155.296 29.93 155.119 30.5867 154.946 31.24C154.779 31.8867 154.623 32.4933 154.476 33.06C154.336 33.62 154.216 34.11 154.116 34.53C154.016 34.95 153.953 35.2567 153.926 35.45ZM158.502 29.7C158.429 29.66 158.392 29.59 158.392 29.49C158.392 29.39 158.432 29.27 158.512 29.13C158.759 28.6833 159.106 28.33 159.552 28.07C160.006 27.8033 160.506 27.67 161.052 27.67C161.412 27.67 161.696 27.75 161.902 27.91C162.116 28.07 162.222 28.31 162.222 28.63C162.222 28.8233 162.182 29.0467 162.102 29.3C162.029 29.5533 161.922 29.8533 161.782 30.2C161.642 30.5467 161.472 30.9633 161.272 31.45C161.072 31.93 160.852 32.4967 160.612 33.15L160.572 32.75C160.952 31.7967 161.382 30.9933 161.862 30.34C162.342 29.6867 162.836 29.1633 163.342 28.77C163.856 28.3767 164.356 28.0967 164.842 27.93C165.329 27.7567 165.772 27.67 166.172 27.67C166.726 27.67 167.116 27.79 167.342 28.03C167.576 28.2633 167.682 28.5967 167.662 29.03C167.642 29.4633 167.526 29.9833 167.312 30.59L165.972 34.42C165.779 34.9533 165.709 35.3267 165.762 35.54C165.816 35.7467 165.929 35.85 166.102 35.85C166.216 35.85 166.336 35.8133 166.462 35.74C166.589 35.6667 166.742 35.54 166.922 35.36C167.036 35.2667 167.126 35.2067 167.192 35.18C167.266 35.1533 167.332 35.1567 167.392 35.19C167.472 35.2233 167.509 35.29 167.502 35.39C167.502 35.49 167.466 35.6133 167.392 35.76C167.146 36.2 166.799 36.5533 166.352 36.82C165.912 37.08 165.419 37.21 164.872 37.21C164.466 37.21 164.159 37.1167 163.952 36.93C163.746 36.7433 163.636 36.4733 163.622 36.12C163.616 35.76 163.699 35.33 163.872 34.83L165.252 30.87C165.492 30.21 165.572 29.7467 165.492 29.48C165.419 29.2133 165.202 29.08 164.842 29.08C164.569 29.08 164.256 29.17 163.902 29.35C163.549 29.53 163.182 29.8 162.802 30.16C162.429 30.52 162.069 30.9767 161.722 31.53C161.382 32.0767 161.079 32.7167 160.812 33.45C160.672 33.8567 160.559 34.1867 160.472 34.44C160.392 34.6933 160.336 34.8933 160.302 35.04C160.269 35.1867 160.252 35.3133 160.252 35.42C160.252 35.5933 160.279 35.74 160.332 35.86C160.386 35.9733 160.412 36.1133 160.412 36.28C160.412 36.56 160.259 36.7867 159.952 36.96C159.652 37.1267 159.246 37.21 158.732 37.21C158.319 37.21 158.069 37.0567 157.982 36.75C157.896 36.4367 157.969 35.96 158.202 35.32L159.932 30.46C160.119 29.9267 160.189 29.5567 160.142 29.35C160.096 29.1367 159.979 29.03 159.792 29.03C159.686 29.03 159.566 29.0667 159.432 29.14C159.306 29.2067 159.152 29.3333 158.972 29.52C158.866 29.6133 158.776 29.6733 158.702 29.7C158.636 29.7267 158.569 29.7267 158.502 29.7ZM170.24 29.7C170.167 29.66 170.13 29.59 170.13 29.49C170.13 29.39 170.17 29.27 170.25 29.13C170.497 28.6833 170.844 28.33 171.29 28.07C171.744 27.8033 172.244 27.67 172.79 27.67C173.15 27.67 173.434 27.75 173.64 27.91C173.854 28.07 173.96 28.31 173.96 28.63C173.96 28.8233 173.92 29.0467 173.84 29.3C173.767 29.5533 173.66 29.8533 173.52 30.2C173.38 30.5467 173.21 30.9633 173.01 31.45C172.81 31.93 172.59 32.4967 172.35 33.15L172.31 32.75C172.69 31.7967 173.12 30.9933 173.6 30.34C174.08 29.6867 174.574 29.1633 175.08 28.77C175.594 28.3767 176.094 28.0967 176.58 27.93C177.067 27.7567 177.51 27.67 177.91 27.67C178.464 27.67 178.854 27.79 179.08 28.03C179.314 28.2633 179.42 28.5967 179.4 29.03C179.38 29.4633 179.264 29.9833 179.05 30.59L177.71 34.42C177.517 34.9533 177.447 35.3267 177.5 35.54C177.554 35.7467 177.667 35.85 177.84 35.85C177.954 35.85 178.074 35.8133 178.2 35.74C178.327 35.6667 178.48 35.54 178.66 35.36C178.774 35.2667 178.864 35.2067 178.93 35.18C179.004 35.1533 179.07 35.1567 179.13 35.19C179.21 35.2233 179.247 35.29 179.24 35.39C179.24 35.49 179.204 35.6133 179.13 35.76C178.884 36.2 178.537 36.5533 178.09 36.82C177.65 37.08 177.157 37.21 176.61 37.21C176.204 37.21 175.897 37.1167 175.69 36.93C175.484 36.7433 175.374 36.4733 175.36 36.12C175.354 35.76 175.437 35.33 175.61 34.83L176.99 30.87C177.23 30.21 177.31 29.7467 177.23 29.48C177.157 29.2133 176.94 29.08 176.58 29.08C176.307 29.08 175.994 29.17 175.64 29.35C175.287 29.53 174.92 29.8 174.54 30.16C174.167 30.52 173.807 30.9767 173.46 31.53C173.12 32.0767 172.817 32.7167 172.55 33.45C172.41 33.8567 172.297 34.1867 172.21 34.44C172.13 34.6933 172.074 34.8933 172.04 35.04C172.007 35.1867 171.99 35.3133 171.99 35.42C171.99 35.5933 172.017 35.74 172.07 35.86C172.124 35.9733 172.15 36.1133 172.15 36.28C172.15 36.56 171.997 36.7867 171.69 36.96C171.39 37.1267 170.984 37.21 170.47 37.21C170.057 37.21 169.807 37.0567 169.72 36.75C169.634 36.4367 169.707 35.96 169.94 35.32L171.67 30.46C171.857 29.9267 171.927 29.5567 171.88 29.35C171.834 29.1367 171.717 29.03 171.53 29.03C171.424 29.03 171.304 29.0667 171.17 29.14C171.044 29.2067 170.89 29.3333 170.71 29.52C170.604 29.6133 170.514 29.6733 170.44 29.7C170.374 29.7267 170.307 29.7267 170.24 29.7ZM186.779 27.66C187.599 27.68 188.295 27.88 188.869 28.26C189.442 28.64 189.852 29.1767 190.099 29.87C190.352 30.5567 190.392 31.38 190.219 32.34C190.085 33.0667 189.849 33.7333 189.509 34.34C189.169 34.9467 188.749 35.4667 188.249 35.9C187.749 36.3333 187.189 36.6667 186.569 36.9C185.955 37.1267 185.302 37.23 184.609 37.21C183.815 37.1833 183.132 36.9833 182.559 36.61C181.992 36.2367 181.585 35.7033 181.339 35.01C181.099 34.3167 181.062 33.49 181.229 32.53C181.369 31.7967 181.605 31.1267 181.939 30.52C182.272 29.9133 182.685 29.3933 183.179 28.96C183.679 28.5267 184.232 28.1967 184.839 27.97C185.452 27.7367 186.099 27.6333 186.779 27.66ZM184.649 36.4C184.935 36.4267 185.219 36.3867 185.499 36.28C185.779 36.1733 186.045 36.0067 186.299 35.78C186.559 35.5467 186.795 35.2633 187.009 34.93C187.229 34.59 187.422 34.1967 187.589 33.75C187.762 33.3033 187.902 32.8133 188.009 32.28C188.175 31.4533 188.229 30.7667 188.169 30.22C188.109 29.6667 187.955 29.2467 187.709 28.96C187.469 28.6667 187.145 28.5033 186.739 28.47C186.452 28.4367 186.172 28.4733 185.899 28.58C185.632 28.6867 185.372 28.8567 185.119 29.09C184.872 29.3167 184.639 29.6 184.419 29.94C184.205 30.28 184.015 30.6733 183.849 31.12C183.682 31.56 183.545 32.05 183.439 32.59C183.272 33.4167 183.215 34.1067 183.269 34.66C183.329 35.2067 183.479 35.6233 183.719 35.91C183.959 36.1967 184.269 36.36 184.649 36.4ZM192.893 35.97C192.893 35.75 192.906 35.4633 192.933 35.11C192.959 34.75 192.993 34.3533 193.033 33.92C193.073 33.48 193.113 33.0333 193.153 32.58C193.193 32.12 193.226 31.6833 193.253 31.27C193.286 30.85 193.303 30.48 193.303 30.16C193.309 29.84 193.269 29.6 193.183 29.44C193.103 29.28 192.979 29.2 192.813 29.2C192.679 29.2 192.559 29.2467 192.453 29.34C192.353 29.4333 192.263 29.58 192.183 29.78C192.116 29.9267 192.053 30.03 191.993 30.09C191.933 30.1433 191.863 30.17 191.783 30.17C191.696 30.17 191.626 30.1367 191.573 30.07C191.519 29.9967 191.506 29.89 191.533 29.75C191.586 29.4233 191.723 29.1067 191.943 28.8C192.169 28.4867 192.459 28.23 192.813 28.03C193.173 27.8233 193.573 27.72 194.013 27.72C194.513 27.72 194.856 27.8833 195.043 28.21C195.236 28.5367 195.333 29.0367 195.333 29.71C195.333 30.0167 195.319 30.3733 195.293 30.78C195.266 31.1867 195.236 31.61 195.203 32.05C195.176 32.4833 195.143 32.9067 195.103 33.32C195.069 33.7267 195.039 34.0933 195.013 34.42C194.993 34.74 194.983 34.9833 194.983 35.15C194.989 35.4567 195.026 35.67 195.093 35.79C195.166 35.91 195.276 35.97 195.423 35.97C195.609 35.97 195.839 35.86 196.113 35.64C196.386 35.4133 196.669 35.11 196.963 34.73C197.263 34.3433 197.543 33.9133 197.803 33.44C198.063 32.9667 198.276 32.48 198.443 31.98C198.609 31.48 198.696 31 198.703 30.54C198.716 30.3333 198.696 30.1767 198.643 30.07C198.589 29.9633 198.483 29.8367 198.323 29.69C198.176 29.5567 198.063 29.4133 197.983 29.26C197.903 29.1067 197.869 28.9233 197.883 28.71C197.896 28.4167 198.009 28.17 198.223 27.97C198.443 27.77 198.719 27.67 199.053 27.67C199.419 27.67 199.703 27.7967 199.903 28.05C200.109 28.2967 200.203 28.68 200.183 29.2C200.163 29.9533 200.023 30.7133 199.763 31.48C199.503 32.24 199.159 32.9667 198.733 33.66C198.306 34.3467 197.826 34.9567 197.293 35.49C196.766 36.0233 196.223 36.4467 195.663 36.76C195.103 37.0667 194.563 37.22 194.043 37.22C193.663 37.22 193.376 37.12 193.183 36.92C192.996 36.72 192.899 36.4033 192.893 35.97ZM208.624 34.42C208.484 34.9667 208.438 35.3433 208.484 35.55C208.531 35.7567 208.634 35.86 208.794 35.86C208.914 35.86 209.034 35.8233 209.154 35.75C209.274 35.6767 209.428 35.5533 209.614 35.38C209.721 35.28 209.808 35.2167 209.874 35.19C209.948 35.1633 210.014 35.1667 210.074 35.2C210.154 35.24 210.191 35.31 210.184 35.41C210.184 35.5033 210.148 35.6233 210.074 35.77C209.834 36.21 209.491 36.56 209.044 36.82C208.604 37.08 208.151 37.21 207.684 37.21C207.298 37.21 207.011 37.1133 206.824 36.92C206.638 36.7267 206.544 36.4467 206.544 36.08C206.544 35.9267 206.554 35.7567 206.574 35.57C206.601 35.3833 206.648 35.1533 206.714 34.88C206.781 34.6 206.874 34.2567 206.994 33.85C207.114 33.4367 207.268 32.9333 207.454 32.34L207.634 32.66C207.274 33.6267 206.838 34.45 206.324 35.13C205.811 35.8033 205.254 36.32 204.654 36.68C204.054 37.0333 203.441 37.21 202.814 37.21C202.114 37.21 201.571 36.9733 201.184 36.5C200.804 36.0267 200.664 35.28 200.764 34.26C200.824 33.5933 200.991 32.94 201.264 32.3C201.544 31.66 201.908 31.06 202.354 30.5C202.808 29.94 203.328 29.4467 203.914 29.02C204.501 28.5933 205.138 28.2633 205.824 28.03C206.518 27.79 207.238 27.67 207.984 27.67C208.544 27.67 209.011 27.71 209.384 27.79C209.758 27.87 210.034 27.98 210.214 28.12C210.401 28.2533 210.488 28.4067 210.474 28.58C210.461 28.72 210.411 28.83 210.324 28.91C210.244 28.99 210.161 29.07 210.074 29.15C209.988 29.2233 209.924 29.3333 209.884 29.48L208.624 34.42ZM202.864 34.19C202.798 34.8833 202.851 35.37 203.024 35.65C203.204 35.93 203.458 36.07 203.784 36.07C204.084 36.07 204.401 35.9533 204.734 35.72C205.074 35.4867 205.414 35.1567 205.754 34.73C206.101 34.3033 206.424 33.8133 206.724 33.26C207.024 32.7 207.288 32.0967 207.514 31.45C207.741 30.8033 207.908 30.1367 208.014 29.45C208.074 29.11 208.054 28.8633 207.954 28.71C207.854 28.55 207.684 28.47 207.444 28.47C207.031 28.47 206.614 28.5767 206.194 28.79C205.781 29.0033 205.388 29.3 205.014 29.68C204.641 30.0533 204.301 30.4833 203.994 30.97C203.688 31.4567 203.434 31.9767 203.234 32.53C203.041 33.0767 202.918 33.63 202.864 34.19ZM213.723 28.91L212.933 28.76C212.827 28.72 212.747 28.6667 212.693 28.6C212.64 28.5333 212.613 28.46 212.613 28.38C212.613 28.26 212.66 28.1667 212.753 28.1C212.853 28.0333 212.987 28 213.153 28H214.043C214.197 28 214.33 27.97 214.443 27.91C214.563 27.8433 214.673 27.7533 214.773 27.64L215.873 26.17C215.96 26.0633 216.05 25.9933 216.143 25.96C216.237 25.92 216.333 25.9 216.433 25.9C216.553 25.9 216.643 25.93 216.703 25.99C216.763 26.05 216.793 26.1367 216.793 26.25C216.793 26.3233 216.783 26.42 216.763 26.54C216.743 26.6533 216.71 26.7867 216.663 26.94L214.473 34.14C214.267 34.82 214.213 35.2733 214.313 35.5C214.42 35.72 214.653 35.83 215.013 35.83C215.32 35.83 215.607 35.7633 215.873 35.63C216.147 35.49 216.427 35.2567 216.713 34.93C216.793 34.8433 216.86 34.7867 216.913 34.76C216.973 34.7267 217.033 34.71 217.093 34.71C217.167 34.71 217.223 34.7367 217.263 34.79C217.31 34.8433 217.327 34.9133 217.313 35C217.287 35.22 217.177 35.46 216.983 35.72C216.797 35.9733 216.543 36.2133 216.223 36.44C215.903 36.66 215.533 36.8433 215.113 36.99C214.693 37.1367 214.243 37.21 213.763 37.21C213.257 37.21 212.873 37.1067 212.613 36.9C212.36 36.6867 212.22 36.38 212.193 35.98C212.167 35.5733 212.243 35.0733 212.423 34.48L213.873 29.85C213.973 29.5167 214.01 29.2867 213.983 29.16C213.963 29.0333 213.877 28.95 213.723 28.91ZM215.413 28.86L215.683 28.02H218.373C218.607 28.02 218.723 28.12 218.723 28.32C218.723 28.4867 218.65 28.62 218.503 28.72C218.357 28.8133 218.16 28.86 217.913 28.86H215.413ZM219.993 32.87C219.993 32.87 220.116 32.8233 220.363 32.73C220.61 32.6367 220.933 32.5167 221.333 32.37C221.733 32.2167 222.163 32.0533 222.623 31.88C223.09 31.7 223.543 31.5267 223.983 31.36C224.423 31.1933 224.806 31.0467 225.133 30.92L224.903 31.24C224.956 31.0733 224.996 30.8867 225.023 30.68C225.05 30.4733 225.066 30.2267 225.073 29.94C225.073 29.4933 224.976 29.1267 224.783 28.84C224.596 28.5533 224.343 28.41 224.023 28.41C223.71 28.41 223.386 28.5267 223.053 28.76C222.72 28.9933 222.406 29.32 222.113 29.74C221.82 30.16 221.573 30.65 221.373 31.21C221.173 31.77 221.05 32.3767 221.003 33.03C220.93 34.01 221.076 34.75 221.443 35.25C221.816 35.7433 222.346 35.99 223.033 35.99C223.446 35.99 223.843 35.9133 224.223 35.76C224.61 35.6 224.956 35.37 225.263 35.07C225.576 34.7633 225.82 34.3933 225.993 33.96C226.086 33.82 226.17 33.7267 226.243 33.68C226.316 33.6267 226.396 33.6 226.483 33.6C226.59 33.6 226.67 33.6467 226.723 33.74C226.783 33.8267 226.793 33.9667 226.753 34.16C226.646 34.68 226.396 35.1733 226.003 35.64C225.616 36.1067 225.1 36.4867 224.453 36.78C223.806 37.0667 223.036 37.21 222.143 37.21C221.376 37.21 220.743 37.0667 220.243 36.78C219.743 36.4867 219.38 36.0733 219.153 35.54C218.926 35 218.84 34.3533 218.893 33.6C218.946 32.8 219.13 32.0433 219.443 31.33C219.763 30.6167 220.18 29.9867 220.693 29.44C221.206 28.8867 221.783 28.4533 222.423 28.14C223.07 27.82 223.746 27.66 224.453 27.66C224.98 27.66 225.42 27.7633 225.773 27.97C226.126 28.1767 226.396 28.4533 226.583 28.8C226.77 29.14 226.876 29.5233 226.903 29.95C226.916 30.05 226.946 30.1333 226.993 30.2C227.04 30.2667 227.106 30.3 227.193 30.3C227.286 30.2933 227.356 30.31 227.403 30.35C227.45 30.39 227.473 30.45 227.473 30.53C227.473 30.63 227.43 30.7233 227.343 30.81C227.256 30.8967 227.09 30.9833 226.843 31.07C226.583 31.1567 226.236 31.28 225.803 31.44C225.376 31.5933 224.91 31.7633 224.403 31.95C223.896 32.13 223.386 32.3133 222.873 32.5C222.366 32.68 221.9 32.8467 221.473 33C221.053 33.1533 220.713 33.2767 220.453 33.37C220.2 33.4633 220.073 33.51 220.073 33.51L219.993 32.87ZM73.2862 47H77.0662V62H73.2862V47ZM79.0682 50.6H82.7682L83.5082 55.04V62H79.7882V54.48L79.0682 50.6ZM87.7682 50.28C88.8615 50.28 89.7882 50.5 90.5482 50.94C91.3215 51.38 91.9082 52 92.3082 52.8C92.7215 53.5867 92.9282 54.5333 92.9282 55.64V62H89.2082V56.2C89.2082 55.2533 88.9749 54.54 88.5082 54.06C88.0415 53.5667 87.3749 53.32 86.5082 53.32C85.8949 53.32 85.3615 53.4533 84.9082 53.72C84.4549 53.9733 84.1082 54.34 83.8682 54.82C83.6282 55.2867 83.5082 55.8467 83.5082 56.5L82.3282 55.88C82.4749 54.6667 82.8015 53.6467 83.3082 52.82C83.8282 51.9933 84.4682 51.3667 85.2282 50.94C86.0015 50.5 86.8482 50.28 87.7682 50.28ZM105.595 62L105.095 57.7L105.775 56.34L105.115 54.62L106.035 46.6H109.895L108.755 56.02L109.435 62H105.595ZM106.455 56.3C106.255 57.5133 105.875 58.5733 105.315 59.48C104.755 60.3733 104.048 61.0733 103.195 61.58C102.341 62.0733 101.381 62.32 100.315 62.32C99.1946 62.32 98.2079 62.0667 97.3546 61.56C96.5146 61.0533 95.8546 60.3533 95.3746 59.46C94.8946 58.5533 94.6546 57.5 94.6546 56.3C94.6546 55.1 94.8946 54.0533 95.3746 53.16C95.8546 52.2533 96.5146 51.5467 97.3546 51.04C98.2079 50.5333 99.1946 50.28 100.315 50.28C101.381 50.28 102.341 50.5333 103.195 51.04C104.048 51.5333 104.755 52.2267 105.315 53.12C105.888 54.0133 106.268 55.0733 106.455 56.3ZM98.4146 56.3C98.4146 56.9133 98.5413 57.46 98.7946 57.94C99.0479 58.4067 99.3946 58.78 99.8346 59.06C100.288 59.3267 100.808 59.46 101.395 59.46C101.981 59.46 102.535 59.3267 103.055 59.06C103.588 58.78 104.055 58.4067 104.455 57.94C104.855 57.46 105.155 56.9133 105.355 56.3C105.155 55.6867 104.855 55.1467 104.455 54.68C104.055 54.2 103.588 53.8267 103.055 53.56C102.535 53.28 101.981 53.14 101.395 53.14C100.808 53.14 100.288 53.28 99.8346 53.56C99.3946 53.8267 99.0479 54.2 98.7946 54.68C98.5413 55.1467 98.4146 55.6867 98.4146 56.3ZM116.402 62.3C115.348 62.3 114.442 62.0867 113.682 61.66C112.935 61.22 112.362 60.6 111.962 59.8C111.575 59 111.382 58.0533 111.382 56.96V50.6H115.102V56.42C115.102 57.34 115.322 58.0467 115.762 58.54C116.202 59.0333 116.835 59.28 117.662 59.28C118.275 59.28 118.795 59.1533 119.222 58.9C119.648 58.6467 119.975 58.28 120.202 57.8C120.442 57.32 120.562 56.7533 120.562 56.1L121.722 56.72C121.588 57.92 121.268 58.94 120.762 59.78C120.268 60.6067 119.642 61.2333 118.882 61.66C118.135 62.0867 117.308 62.3 116.402 62.3ZM121.282 62L120.562 57.56V50.6H124.262V58.12L125.002 62H121.282ZM139.694 58.34C139.694 59.1933 139.441 59.92 138.934 60.52C138.441 61.1067 137.714 61.5533 136.754 61.86C135.794 62.1667 134.628 62.32 133.254 62.32C131.854 62.32 130.628 62.1467 129.574 61.8C128.521 61.4533 127.701 60.9667 127.114 60.34C126.528 59.7133 126.214 58.9867 126.174 58.16H129.954C130.034 58.4933 130.221 58.7867 130.514 59.04C130.821 59.2933 131.214 59.4867 131.694 59.62C132.174 59.74 132.741 59.8 133.394 59.8C134.274 59.8 134.941 59.7067 135.394 59.52C135.848 59.3333 136.074 59.0533 136.074 58.68C136.074 58.4 135.908 58.1867 135.574 58.04C135.254 57.8933 134.674 57.7867 133.834 57.72L131.754 57.56C130.448 57.4533 129.408 57.2467 128.634 56.94C127.861 56.62 127.308 56.2133 126.974 55.72C126.654 55.2267 126.494 54.6733 126.494 54.06C126.494 53.22 126.754 52.5267 127.274 51.98C127.808 51.42 128.541 51 129.474 50.72C130.408 50.4267 131.501 50.28 132.754 50.28C134.008 50.28 135.121 50.4467 136.094 50.78C137.081 51.1133 137.868 51.5733 138.454 52.16C139.054 52.7467 139.394 53.4333 139.474 54.22H135.694C135.641 53.9533 135.494 53.7067 135.254 53.48C135.028 53.2533 134.694 53.0733 134.254 52.94C133.828 52.7933 133.268 52.72 132.574 52.72C131.788 52.72 131.188 52.8067 130.774 52.98C130.361 53.1533 130.154 53.4067 130.154 53.74C130.154 53.9933 130.281 54.2 130.534 54.36C130.788 54.5067 131.268 54.6067 131.974 54.66L134.674 54.86C135.954 54.9667 136.954 55.1733 137.674 55.48C138.408 55.7733 138.928 56.16 139.234 56.64C139.541 57.12 139.694 57.6867 139.694 58.34ZM140.286 53.36V51.74L142.646 50.88L144.226 47.56H146.366V50.6H151.286V53.36H146.366V57.12C146.366 57.9733 146.539 58.5733 146.886 58.92C147.232 59.2533 147.852 59.42 148.746 59.42C149.306 59.42 149.806 59.3733 150.246 59.28C150.686 59.1733 151.099 59.0333 151.486 58.86V61.68C151.086 61.84 150.559 61.9867 149.906 62.12C149.266 62.2533 148.599 62.32 147.906 62.32C146.692 62.32 145.692 62.1267 144.906 61.74C144.132 61.3533 143.559 60.8133 143.186 60.12C142.826 59.4133 142.646 58.5867 142.646 57.64V53.36H140.286ZM152.662 50.6H156.422L157.102 54.7V62H153.382V54.38L152.662 50.6ZM162.542 50.44V53.64C162.182 53.56 161.822 53.5 161.462 53.46C161.115 53.42 160.795 53.4 160.502 53.4C159.862 53.4 159.282 53.5333 158.762 53.8C158.255 54.0533 157.849 54.46 157.542 55.02C157.249 55.58 157.102 56.3067 157.102 57.2L156.362 56.28C156.455 55.4667 156.609 54.7 156.822 53.98C157.035 53.26 157.329 52.6267 157.702 52.08C158.075 51.52 158.535 51.08 159.082 50.76C159.642 50.44 160.315 50.28 161.102 50.28C161.329 50.28 161.569 50.2933 161.822 50.32C162.075 50.3467 162.315 50.3867 162.542 50.44ZM164.042 50.44L165.882 50.82L167.742 50.44V62H164.042V50.44ZM165.902 49.4C165.248 49.4 164.715 49.2333 164.302 48.9C163.888 48.5533 163.682 48.1 163.682 47.54C163.682 46.9667 163.888 46.5133 164.302 46.18C164.715 45.8467 165.248 45.68 165.902 45.68C166.568 45.68 167.102 45.8467 167.502 46.18C167.902 46.5133 168.102 46.9667 168.102 47.54C168.102 48.1 167.902 48.5533 167.502 48.9C167.102 49.2333 166.568 49.4 165.902 49.4ZM176.676 62.32C175.316 62.32 174.096 62.0667 173.016 61.56C171.949 61.0533 171.109 60.3467 170.496 59.44C169.882 58.5333 169.576 57.4733 169.576 56.26C169.576 55.0733 169.869 54.0333 170.456 53.14C171.042 52.2467 171.849 51.5467 172.876 51.04C173.916 50.5333 175.089 50.28 176.396 50.28C177.729 50.28 178.876 50.5733 179.836 51.16C180.796 51.7467 181.536 52.5733 182.056 53.64C182.576 54.7067 182.836 55.96 182.836 57.4H172.556V55.06H180.796L179.456 55.9C179.416 55.2733 179.262 54.7467 178.996 54.32C178.742 53.88 178.402 53.5467 177.976 53.32C177.549 53.08 177.042 52.96 176.456 52.96C175.816 52.96 175.262 53.0867 174.796 53.34C174.329 53.5933 173.962 53.9467 173.696 54.4C173.442 54.8533 173.316 55.38 173.316 55.98C173.316 56.74 173.482 57.3867 173.816 57.92C174.162 58.4533 174.656 58.86 175.296 59.14C175.949 59.42 176.742 59.56 177.676 59.56C178.529 59.56 179.382 59.4467 180.236 59.22C181.089 58.98 181.856 58.6467 182.536 58.22V60.64C181.762 61.1733 180.876 61.5867 179.876 61.88C178.889 62.1733 177.822 62.32 176.676 62.32ZM197.526 58.34C197.526 59.1933 197.273 59.92 196.766 60.52C196.273 61.1067 195.546 61.5533 194.586 61.86C193.626 62.1667 192.46 62.32 191.086 62.32C189.686 62.32 188.46 62.1467 187.406 61.8C186.353 61.4533 185.533 60.9667 184.946 60.34C184.36 59.7133 184.046 58.9867 184.006 58.16H187.786C187.866 58.4933 188.053 58.7867 188.346 59.04C188.653 59.2933 189.046 59.4867 189.526 59.62C190.006 59.74 190.573 59.8 191.226 59.8C192.106 59.8 192.773 59.7067 193.226 59.52C193.68 59.3333 193.906 59.0533 193.906 58.68C193.906 58.4 193.74 58.1867 193.406 58.04C193.086 57.8933 192.506 57.7867 191.666 57.72L189.586 57.56C188.28 57.4533 187.24 57.2467 186.466 56.94C185.693 56.62 185.14 56.2133 184.806 55.72C184.486 55.2267 184.326 54.6733 184.326 54.06C184.326 53.22 184.586 52.5267 185.106 51.98C185.64 51.42 186.373 51 187.306 50.72C188.24 50.4267 189.333 50.28 190.586 50.28C191.84 50.28 192.953 50.4467 193.926 50.78C194.913 51.1133 195.7 51.5733 196.286 52.16C196.886 52.7467 197.226 53.4333 197.306 54.22H193.526C193.473 53.9533 193.326 53.7067 193.086 53.48C192.86 53.2533 192.526 53.0733 192.086 52.94C191.66 52.7933 191.1 52.72 190.406 52.72C189.62 52.72 189.02 52.8067 188.606 52.98C188.193 53.1533 187.986 53.4067 187.986 53.74C187.986 53.9933 188.113 54.2 188.366 54.36C188.62 54.5067 189.1 54.6067 189.806 54.66L192.506 54.86C193.786 54.9667 194.786 55.1733 195.506 55.48C196.24 55.7733 196.76 56.16 197.066 56.64C197.373 57.12 197.526 57.6867 197.526 58.34Z" fill="#FFF0E3"/>
</svg>
