<svg width="254" height="142" viewBox="0 0 254 142" fill="none" xmlns="http://www.w3.org/2000/svg">
<path d="M173.359 64.296C173.553 64.9294 173.685 65.5696 173.751 66.2158L173.254 66.2668C173.285 66.5755 173.301 66.8856 173.301 67.197C173.301 67.5084 173.285 67.8184 173.254 68.1272L173.751 68.1782C173.685 68.8243 173.553 69.4645 173.359 70.098L172.881 69.9513C172.702 70.5337 172.467 71.1123 172.176 71.6864L172.622 71.9123C172.335 72.4804 171.996 73.0422 171.608 73.5969L171.198 73.3104C170.847 73.813 170.452 74.3115 170.015 74.805L170.39 75.1363C169.971 75.6101 169.515 76.0781 169.024 76.5399L168.681 76.1756C168.228 76.6012 167.744 77.0223 167.229 77.4383L167.543 77.8272C167.048 78.2272 166.526 78.622 165.977 79.0111L165.688 78.6033C165.175 78.9673 164.638 79.3267 164.078 79.6813L164.345 80.1038C163.804 80.4461 163.243 80.7837 162.661 81.1162L162.413 80.6821C161.861 80.9972 161.291 81.3079 160.703 81.6141L160.934 82.0576C160.363 82.3549 159.775 82.6477 159.171 82.936L158.955 82.4847C158.381 82.7589 157.791 83.029 157.187 83.2948L157.389 83.7525C156.801 84.0111 156.199 84.2657 155.585 84.516L155.396 84.053C154.803 84.2946 154.198 84.5322 153.581 84.7658L153.758 85.2335C153.153 85.4625 152.536 85.6875 151.908 85.9086L151.742 85.437C151.135 85.6508 150.517 85.8609 149.889 86.0671L150.045 86.5422C149.433 86.7432 148.812 86.9406 148.181 87.1342L148.034 86.6562C147.418 86.8452 146.793 87.0306 146.159 87.2123L146.297 87.6929C145.671 87.8723 145.037 88.048 144.395 88.2201L144.265 87.7371C143.645 87.9034 143.017 88.0662 142.381 88.2254L142.503 88.7104C141.874 88.8681 141.237 89.0223 140.594 89.173L140.48 88.6861C139.848 88.8341 139.209 88.9786 138.564 89.1197L138.67 89.6082C138.039 89.7462 137.401 89.8809 136.757 90.0122L136.657 89.5223C136.022 89.6518 135.381 89.778 134.734 89.9009L134.827 90.3921C134.188 90.5134 133.544 90.6313 132.894 90.746L132.807 90.2536C132.17 90.3659 131.528 90.475 130.881 90.5808L130.961 91.0743C130.317 91.1796 129.668 91.2817 129.013 91.3805L128.939 90.8861C128.3 90.9826 127.656 91.0759 127.008 91.166L127.077 91.6612C126.431 91.7509 125.782 91.8375 125.127 91.9208L125.064 91.4248C124.42 91.5067 123.773 91.5856 123.121 91.6612L123.178 92.1578C122.532 92.2328 121.882 92.3046 121.227 92.3733L121.175 91.876C120.528 91.944 119.877 92.0088 119.222 92.0704L119.269 92.5682C118.622 92.6291 117.971 92.6869 117.317 92.7416L117.276 92.2433C116.626 92.2977 115.972 92.3489 115.316 92.397L115.352 92.8956C114.704 92.9431 114.053 92.9874 113.399 93.0287L113.368 92.5296C112.717 92.5707 112.064 92.6086 111.408 92.6434L111.434 93.1427C110.784 93.1772 110.132 93.2086 109.476 93.2369L109.455 92.7373C108.804 92.7654 108.15 92.7905 107.494 92.8124L107.511 93.3121C106.86 93.3339 106.206 93.3526 105.55 93.3682L105.538 92.8683C104.887 92.8838 104.233 92.8962 103.578 92.9055L103.585 93.4055C102.933 93.4148 102.278 93.421 101.622 93.4241L101.619 92.9241C101.292 92.9256 100.964 92.9264 100.635 92.9264C100.307 92.9264 99.9786 92.9256 99.6511 92.9241L99.6487 93.4241C98.9921 93.421 98.3376 93.4148 97.6853 93.4055L97.6924 92.9055C97.0368 92.8962 96.3834 92.8838 95.7323 92.8683L95.7204 93.3682C95.0642 93.3526 94.4105 93.3339 93.7591 93.3121L93.7758 92.8124C93.1198 92.7905 92.4663 92.7654 91.8154 92.7373L91.7939 93.2369C91.1386 93.2086 90.4859 93.1772 89.8361 93.1427L89.8626 92.6434C89.2062 92.6086 88.5527 92.5707 87.9022 92.5296L87.8708 93.0287C87.2168 92.9874 86.5659 92.9431 85.9181 92.8956L85.9546 92.397C85.298 92.3489 84.6446 92.2977 83.9946 92.2433L83.953 92.7416C83.299 92.6869 82.6484 92.6291 82.0013 92.5682L82.0482 92.0704C81.3935 92.0088 80.7423 91.9439 80.095 91.876L80.0428 92.3733C79.3887 92.3046 78.7383 92.2328 78.0919 92.1578L78.1495 91.6612C77.4976 91.5855 76.8498 91.5067 76.2061 91.4248L76.1429 91.9208C75.4887 91.8375 74.8387 91.7509 74.1932 91.6612L74.262 91.166C73.6139 91.0759 72.9703 90.9826 72.3314 90.8861L72.2568 91.3805C71.6025 91.2817 70.9531 91.1796 70.3087 91.0743L70.3894 90.5808C69.7421 90.475 69.0999 90.3659 68.463 90.2536L68.3762 90.7459C67.7263 90.6313 67.0819 90.5134 66.4431 90.3921L66.5364 89.9009C65.8894 89.778 65.2482 89.6518 64.613 89.5223L64.5131 90.0122C63.8692 89.8809 63.2314 89.7462 62.5998 89.6082L62.7066 89.1197C62.0612 88.9786 61.4224 88.8341 60.7906 88.6861L60.6766 89.173C60.0331 89.0223 59.3966 88.8681 58.7674 88.7104L58.889 88.2254C58.2533 88.0661 57.6252 87.9034 57.0048 87.7371L56.8754 88.2201C56.2332 88.048 55.5992 87.8723 54.9735 87.6929L55.1113 87.2123C54.4775 87.0305 53.8524 86.8451 53.2363 86.6562L53.0897 87.1342C52.4586 86.9406 51.8369 86.7432 51.2247 86.5422L51.3807 86.0671C50.7528 85.8609 50.1351 85.6508 49.528 85.437L49.3619 85.9086C48.7343 85.6875 48.1177 85.4625 47.5125 85.2335L47.6895 84.7658C47.072 84.5322 46.4667 84.2945 45.8739 84.053L45.6852 84.516C45.0708 84.2657 44.4694 84.0111 43.8816 83.7525L44.083 83.2948C43.4788 83.029 42.8893 82.7589 42.3148 82.4847L42.0994 82.936C41.4954 82.6477 40.9076 82.3549 40.3365 82.0576L40.5673 81.6141C39.979 81.3079 39.4089 80.9972 38.8576 80.6821L38.6095 81.1162C38.0276 80.7837 37.466 80.4461 36.9252 80.1038L37.1926 79.6813C36.6324 79.3267 36.0954 78.9673 35.5824 78.6033L35.2931 79.0111C34.7445 78.622 34.2222 78.2272 33.7269 77.8272L34.0411 77.4383C33.5261 77.0223 33.0418 76.6012 32.5891 76.1756L32.2466 76.5399C31.7555 76.0781 31.2996 75.6101 30.8804 75.1363L31.2548 74.805C30.8182 74.3115 30.4236 73.8131 30.072 73.3104L29.6623 73.5969C29.2742 73.0422 28.9355 72.4804 28.6478 71.9123L29.0939 71.6864C28.8032 71.1123 28.5679 70.5337 28.3892 69.9513L27.9112 70.098C27.7168 69.4646 27.5853 68.8244 27.519 68.1782L28.0164 68.1272C27.9847 67.8184 27.9688 67.5084 27.9688 67.197C27.9688 66.8856 27.9847 66.5755 28.0164 66.2668L27.519 66.2158C27.5853 65.5696 27.7168 64.9294 27.9112 64.296L28.3892 64.4427C28.5679 63.8603 28.8032 63.2817 29.0939 62.7075L28.6478 62.4817C28.9355 61.9135 29.2742 61.3518 29.6623 60.797L30.072 61.0836C30.4236 60.5809 30.8182 60.0825 31.2548 59.589L30.8804 59.2577C31.2996 58.7838 31.7555 58.3158 32.2466 57.854L32.5891 58.2183C33.0418 57.7927 33.5261 57.3717 34.0411 56.9557L33.7269 56.5667C34.2222 56.1667 34.7445 55.772 35.2931 55.3828L35.5824 55.7906C36.0955 55.4267 36.6324 55.0672 37.1926 54.7126L36.9252 54.2901C37.466 53.9478 38.0276 53.6103 38.6095 53.2777L38.8576 53.7119C39.4089 53.3968 39.979 53.086 40.5673 52.7798L40.3365 52.3363C40.9076 52.039 41.4955 51.7462 42.0994 51.458L42.3148 51.9092C42.8893 51.6351 43.4788 51.365 44.083 51.0991L43.8816 50.6415C44.4695 50.3828 45.0708 50.1282 45.6852 49.8779L45.8739 50.3409C46.4667 50.0994 47.0721 49.8617 47.6895 49.6281L47.5125 49.1605C48.1177 48.9315 48.7343 48.7064 49.3619 48.4854L49.528 48.957C50.1351 48.7431 50.7528 48.5331 51.3807 48.3268L51.2247 47.8518C51.8369 47.6507 52.4586 47.4534 53.0897 47.2598L53.2363 47.7378C53.8524 47.5488 54.4775 47.3634 55.1113 47.1817L54.9735 46.701C55.5992 46.5217 56.2332 46.3459 56.8754 46.1739L57.0048 46.6568C57.6252 46.4906 58.2534 46.3278 58.889 46.1685L58.7675 45.6835C59.3967 45.5259 60.0331 45.3717 60.6766 45.221L60.7906 45.7078C61.4225 45.5599 62.0612 45.4153 62.7066 45.2742L62.5998 44.7858C63.2314 44.6477 63.8692 44.513 64.5131 44.3817L64.613 44.8716C65.2482 44.7421 65.8894 44.6159 66.5364 44.4931L66.4431 44.0019C67.0819 43.8806 67.7263 43.7626 68.3762 43.648L68.463 44.1404C69.0999 44.0281 69.7421 43.9189 70.3894 43.8131L70.3087 43.3197C70.9531 43.2143 71.6025 43.1122 72.2568 43.0134L72.3314 43.5078C72.9704 43.4114 73.6139 43.3181 74.262 43.228L74.1932 42.7327C74.8387 42.643 75.4887 42.5565 76.1429 42.4732L76.2061 42.9692C76.8498 42.8872 77.4976 42.8084 78.1496 42.7328L78.0919 42.2361C78.7383 42.1611 79.3887 42.0893 80.0428 42.0207L80.095 42.5179C80.7424 42.45 81.3935 42.3852 82.0482 42.3236L82.0014 41.8258C82.6484 41.7648 83.299 41.707 83.953 41.6524L83.9946 42.1506C84.6446 42.0963 85.298 42.0451 85.9546 41.997L85.9181 41.4983C86.5659 41.4509 87.2168 41.4065 87.8708 41.3653L87.9022 41.8643C88.5527 41.8233 89.2062 41.7853 89.8626 41.7505L89.8361 41.2512C90.4859 41.2168 91.1386 41.1854 91.7939 41.1571L91.8154 41.6566C92.4663 41.6285 93.1198 41.6035 93.7758 41.5816L93.7591 41.0818C94.4104 41.0601 95.0642 41.0414 95.7204 41.0258L95.7323 41.5256C96.3834 41.5101 97.0368 41.4977 97.6924 41.4884L97.6853 40.9885C98.3376 40.9792 98.9921 40.973 99.6487 40.9699L99.651 41.4699C99.9785 41.4683 100.307 41.4675 100.635 41.4675C100.964 41.4675 101.292 41.4683 101.619 41.4699L101.622 40.9699C102.278 40.973 102.933 40.9792 103.585 40.9885L103.578 41.4884C104.233 41.4977 104.887 41.5101 105.538 41.5256L105.55 41.0258C106.206 41.0414 106.86 41.0601 107.511 41.0818L107.494 41.5816C108.15 41.6035 108.804 41.6285 109.455 41.6566L109.476 41.1571C110.132 41.1854 110.784 41.2168 111.434 41.2512L111.408 41.7505C112.064 41.7853 112.717 41.8233 113.368 41.8643L113.399 41.3653C114.053 41.4065 114.704 41.4509 115.352 41.4983L115.316 41.997C115.972 42.0451 116.626 42.0963 117.276 42.1506L117.317 41.6524C117.971 41.707 118.622 41.7649 119.269 41.8258L119.222 42.3236C119.877 42.3852 120.528 42.45 121.175 42.5179L121.227 42.0207C121.882 42.0893 122.532 42.1612 123.178 42.2361L123.121 42.7328C123.773 42.8084 124.42 42.8872 125.064 42.9692L125.127 42.4732C125.782 42.5565 126.431 42.643 127.077 42.7327L127.008 43.228C127.656 43.3181 128.3 43.4114 128.939 43.5078L129.013 43.0134C129.668 43.1122 130.317 43.2143 130.961 43.3197L130.881 43.8131C131.528 43.9189 132.17 44.0281 132.807 44.1404L132.894 43.648C133.544 43.7626 134.188 43.8806 134.827 44.0019L134.734 44.4931C135.381 44.6159 136.022 44.7421 136.657 44.8716L136.757 44.3817C137.401 44.513 138.039 44.6477 138.67 44.7858L138.564 45.2742C139.209 45.4153 139.848 45.5599 140.48 45.7078L140.594 45.221C141.237 45.3717 141.874 45.5259 142.503 45.6835L142.381 46.1685C143.017 46.3278 143.645 46.4906 144.265 46.6568L144.395 46.1739C145.037 46.3459 145.671 46.5217 146.297 46.7011L146.159 47.1817C146.793 47.3634 147.418 47.5488 148.034 47.7378L148.181 47.2598C148.812 47.4534 149.433 47.6507 150.046 47.8518L149.889 48.3268C150.517 48.5331 151.135 48.7431 151.742 48.957L151.908 48.4854C152.536 48.7064 153.153 48.9315 153.758 49.1605L153.581 49.6281C154.198 49.8618 154.803 50.0994 155.396 50.341L155.585 49.8779C156.199 50.1283 156.801 50.3828 157.389 50.6415L157.187 51.0991C157.791 51.365 158.381 51.6351 158.955 51.9092L159.171 51.458C159.775 51.7462 160.363 52.039 160.934 52.3363L160.703 52.7798C161.291 53.086 161.861 53.3968 162.413 53.7119L162.661 53.2778C163.243 53.6103 163.804 53.9478 164.345 54.2901L164.078 54.7126C164.638 55.0672 165.175 55.4267 165.688 55.7906L165.977 55.3828C166.526 55.772 167.048 56.1667 167.543 56.5667L167.229 56.9557C167.744 57.3717 168.228 57.7927 168.681 58.2183L169.024 57.854C169.515 58.3158 169.971 58.7838 170.39 59.2577L170.015 59.589C170.452 60.0825 170.847 60.5809 171.198 61.0836L171.608 60.797C171.996 61.3518 172.335 61.9135 172.622 62.4817L172.176 62.7075C172.467 63.2817 172.702 63.8603 172.881 64.4427L173.359 64.296Z" stroke="#FFF0E3" stroke-dasharray="2 2"/>
<path d="M202.292 66.5066C202.292 71.164 199.666 75.6676 194.766 79.828C189.869 83.9866 182.753 87.7542 173.915 90.9281C156.245 97.2744 131.801 101.209 104.777 101.209C77.7529 101.209 53.3089 97.2744 35.6387 90.9281C26.8015 87.7542 19.6853 83.9866 14.7879 79.828C9.88835 75.6676 7.26172 71.164 7.26172 66.5066C7.26172 61.8493 9.88835 57.3457 14.7879 53.1853C19.6853 49.0267 26.8015 45.2591 35.6387 42.0852C53.3089 35.7388 77.7529 31.804 104.777 31.804C131.801 31.804 156.245 35.7388 173.915 42.0852C182.753 45.2591 189.869 49.0267 194.766 53.1853C199.666 57.3457 202.292 61.8493 202.292 66.5066Z" stroke="#FFF0E3"/>
<path d="M248.061 64.1862C248.188 64.8487 248.273 65.5154 248.316 66.186L247.817 66.2179C247.838 66.5434 247.848 66.8697 247.848 67.197C247.848 67.5243 247.838 67.8507 247.817 68.1761L248.316 68.208C248.273 68.8786 248.188 69.5453 248.061 70.2079L247.57 70.1137C247.448 70.7496 247.286 71.3821 247.086 72.0112L247.562 72.163C247.36 72.7967 247.12 73.4262 246.842 74.0511L246.385 73.8482C246.123 74.4397 245.826 75.0278 245.494 75.6124L245.929 75.859C245.604 76.4321 245.248 77.001 244.86 77.5654L244.448 77.2825C244.083 77.8141 243.69 78.3423 243.269 78.867L243.659 79.1801C243.246 79.6944 242.807 80.2047 242.343 80.7108L241.974 80.3728C241.533 80.8541 241.068 81.332 240.579 81.8063L240.928 82.165C240.454 82.6248 239.959 83.0809 239.444 83.533L239.114 83.1572C238.625 83.5862 238.117 84.0119 237.59 84.4342L237.902 84.8244C237.383 85.24 236.847 85.652 236.293 86.0604L235.996 85.6579C235.469 86.047 234.925 86.4328 234.365 86.8154L234.647 87.2282C234.101 87.601 233.541 87.9706 232.966 88.3367L232.697 87.915C232.137 88.2721 231.562 88.6261 230.973 88.9769L231.229 89.4064C230.664 89.7432 230.087 90.077 229.497 90.4076L229.253 89.9714C228.674 90.2959 228.083 90.6174 227.48 90.9359L227.714 91.378C227.128 91.6876 226.531 91.9944 225.923 92.2981L225.7 91.8509C225.107 92.1473 224.504 92.4408 223.89 92.7315L224.104 93.1833C223.502 93.4684 222.891 93.7506 222.27 94.0299L222.065 93.5739C221.461 93.8459 220.847 94.1152 220.224 94.3817L220.421 94.8414C219.808 95.1039 219.186 95.3638 218.555 95.6208L218.367 95.1578C217.752 95.4085 217.129 95.6566 216.498 95.902L216.68 96.368C216.058 96.6099 215.428 96.8493 214.791 97.086L214.617 96.6172C213.993 96.849 213.362 97.0783 212.723 97.305L212.89 97.7761C212.262 97.9992 211.627 98.2197 210.985 98.4377L210.824 97.9643C210.192 98.1791 209.552 98.3915 208.907 98.6013L209.061 99.0768C208.428 99.2825 207.789 99.4857 207.144 99.6864L206.996 99.209C206.355 99.4084 205.708 99.6055 205.055 99.8L205.197 100.279C204.561 100.469 203.919 100.656 203.272 100.841L203.135 100.36C202.49 100.544 201.839 100.726 201.183 100.905L201.314 101.388C200.672 101.563 200.025 101.736 199.373 101.907L199.246 101.424C198.599 101.593 197.948 101.76 197.291 101.925L197.413 102.41C196.763 102.573 196.108 102.734 195.449 102.892L195.332 102.406C194.684 102.562 194.032 102.715 193.376 102.866L193.488 103.354C192.83 103.505 192.168 103.654 191.502 103.801L191.394 103.313C190.746 103.455 190.095 103.596 189.439 103.734L189.542 104.223C188.885 104.362 188.223 104.498 187.558 104.632L187.459 104.142C186.804 104.274 186.144 104.404 185.481 104.531L185.576 105.022C184.919 105.149 184.259 105.273 183.595 105.395L183.505 104.903C182.842 105.025 182.176 105.144 181.507 105.261L181.593 105.754C180.937 105.869 180.277 105.982 179.614 106.092L179.532 105.599C178.871 105.709 178.207 105.818 177.54 105.924L177.618 106.417C176.954 106.523 176.287 106.626 175.616 106.727L175.542 106.233C174.882 106.332 174.22 106.429 173.555 106.525L173.626 107.02C172.959 107.115 172.29 107.208 171.617 107.299L171.55 106.804C170.888 106.894 170.222 106.981 169.554 107.067L169.618 107.563C168.953 107.648 168.286 107.731 167.616 107.812L167.556 107.315C166.887 107.396 166.216 107.474 165.542 107.551L165.598 108.048C164.935 108.123 164.268 108.196 163.6 108.267L163.547 107.77C162.88 107.841 162.212 107.91 161.54 107.976L161.59 108.474C160.919 108.541 160.246 108.605 159.57 108.668L159.524 108.17C158.86 108.231 158.193 108.291 157.525 108.348L157.567 108.846C156.898 108.904 156.226 108.959 155.551 109.012L155.512 108.514C154.842 108.567 154.17 108.617 153.496 108.666L153.532 109.165C152.865 109.213 152.195 109.259 151.524 109.303L151.491 108.805C150.821 108.849 150.148 108.891 149.474 108.931L149.504 109.43C148.833 109.47 148.159 109.507 147.484 109.543L147.458 109.044C146.79 109.079 146.121 109.112 145.449 109.143L145.472 109.643C144.8 109.674 144.126 109.703 143.45 109.73L143.43 109.231C142.759 109.258 142.087 109.283 141.413 109.305L141.43 109.805C140.76 109.828 140.089 109.849 139.415 109.867L139.402 109.367C138.729 109.386 138.056 109.402 137.381 109.417L137.391 109.917C136.719 109.931 136.046 109.944 135.371 109.954L135.364 109.454C134.694 109.464 134.023 109.472 133.351 109.479L133.355 109.979C132.682 109.985 132.007 109.989 131.331 109.991L131.329 109.491C130.992 109.492 130.654 109.492 130.316 109.492C129.977 109.492 129.64 109.492 129.302 109.491L129.3 109.991C128.624 109.989 127.95 109.985 127.276 109.979L127.281 109.479C126.608 109.472 125.937 109.464 125.268 109.454L125.26 109.954C124.585 109.944 123.912 109.931 123.24 109.917L123.251 109.417C122.576 109.402 121.902 109.386 121.23 109.367L121.216 109.867C120.543 109.849 119.871 109.828 119.201 109.805L119.218 109.305C118.545 109.283 117.872 109.258 117.202 109.231L117.182 109.73C116.506 109.703 115.832 109.674 115.159 109.643L115.182 109.143C114.511 109.112 113.841 109.079 113.173 109.044L113.147 109.543C112.472 109.507 111.799 109.47 111.128 109.43L111.157 108.931C110.483 108.891 109.811 108.849 109.14 108.805L109.108 109.303C108.436 109.259 107.767 109.213 107.099 109.165L107.135 108.666C106.461 108.617 105.789 108.567 105.119 108.514L105.08 109.012C104.406 108.959 103.734 108.904 103.064 108.846L103.107 108.348C102.438 108.291 101.772 108.231 101.107 108.17L101.061 108.668C100.386 108.605 99.7125 108.541 99.0416 108.474L99.091 107.977C98.4198 107.91 97.7509 107.841 97.0846 107.77L97.0317 108.267C96.363 108.196 95.6968 108.123 95.0331 108.048L95.0895 107.551C94.4155 107.474 93.7441 107.396 93.0754 107.315L93.0155 107.812C92.3456 107.731 91.6784 107.648 91.0139 107.563L91.0774 107.067C90.4093 106.981 89.7439 106.894 89.0814 106.804L89.0143 107.299C88.3418 107.208 87.6723 107.115 87.0058 107.02L87.0766 106.525C86.4113 106.429 85.7489 106.332 85.0897 106.233L85.0151 106.727C84.3447 106.626 83.6775 106.523 83.0135 106.417L83.0919 105.924C82.4245 105.818 81.7603 105.709 81.0995 105.599L81.0172 106.092C80.3542 105.982 79.6945 105.869 79.0382 105.754L79.1245 105.261C78.455 105.144 77.789 105.025 77.1266 104.903L77.0362 105.395C76.3725 105.273 75.7123 105.149 75.0558 105.022L75.1503 104.531C74.4872 104.404 73.8278 104.274 73.1722 104.142L73.0735 104.632C72.4082 104.498 71.7469 104.362 71.0895 104.223L71.1926 103.734C70.5368 103.596 69.885 103.455 69.2373 103.312L69.1297 103.801C68.4632 103.654 67.801 103.505 67.1432 103.354L67.2554 102.866C66.599 102.715 65.947 102.562 65.2996 102.406L65.1827 102.892C64.5233 102.734 63.8685 102.573 63.2185 102.41L63.3402 101.925C62.6836 101.76 62.0319 101.593 61.3852 101.424L61.2585 101.907C60.6063 101.736 59.959 101.563 59.3169 101.388L59.4488 100.905C58.7926 100.726 58.1417 100.544 57.4964 100.36L57.3591 100.841C56.7119 100.656 56.0702 100.469 55.4341 100.279L55.5768 99.8C54.9239 99.6055 54.2768 99.4084 53.6358 99.209L53.4873 99.6864C52.8422 99.4857 52.2032 99.2825 51.5703 99.0768L51.7248 98.6013C51.079 98.3915 50.4397 98.1791 49.8071 97.9643L49.6463 98.4377C49.0044 98.2197 48.3693 97.9992 47.741 97.7761L47.9083 97.3049C47.2699 97.0783 46.6386 96.849 46.0146 96.6172L45.8405 97.0859C45.2034 96.8493 44.5738 96.6099 43.9518 96.368L44.1331 95.902C43.5023 95.6566 42.8795 95.4085 42.2648 95.1578L42.076 95.6208C41.4457 95.3638 40.8238 95.104 40.2104 94.8414L40.4072 94.3817C39.7846 94.1152 39.1709 93.8459 38.5663 93.5739L38.3612 94.0299C37.7404 93.7506 37.129 93.4684 36.5274 93.1833L36.7414 92.7315C36.1279 92.4408 35.5246 92.1473 34.9317 91.8509L34.7081 92.2982C34.1005 91.9944 33.5035 91.6877 32.9175 91.378L33.1511 90.9359C32.5485 90.6174 31.9577 90.2959 31.3789 89.9714L31.1344 90.4076C30.5447 90.077 29.9672 89.7432 29.4021 89.4064L29.6581 88.977C29.0695 88.6262 28.4948 88.2721 27.9341 87.915L27.6655 88.3367C27.0907 87.9706 26.5303 87.601 25.9847 87.2282L26.2668 86.8154C25.7069 86.4328 25.1629 86.047 24.6351 85.6579L24.3385 86.0604C23.7845 85.652 23.248 85.24 22.7292 84.8244L23.0418 84.4342C22.5146 84.0119 22.0064 83.5862 21.5173 83.1572L21.1876 83.5331C20.6721 83.0809 20.1774 82.6248 19.7039 82.165L20.0522 81.8063C19.5638 81.332 19.0986 80.8541 18.6572 80.3728L18.2887 80.7108C17.8246 80.2047 17.3857 79.6944 16.9728 79.1801L17.3627 78.867C16.9415 78.3424 16.5482 77.8141 16.1833 77.2825L15.7711 77.5655C15.3837 77.001 15.0272 76.4321 14.7023 75.8591L15.1372 75.6124C14.8058 75.0279 14.5085 74.4397 14.2459 73.8483L13.7889 74.0512C13.5115 73.4262 13.2713 72.7967 13.0693 72.163L13.5457 72.0112C13.3453 71.3822 13.1837 70.7496 13.0619 70.1138L12.5708 70.2079C12.4438 69.5453 12.3584 68.8786 12.3155 68.2081L12.8145 68.1762C12.7937 67.8507 12.7832 67.5243 12.7832 67.197C12.7832 66.8697 12.7937 66.5434 12.8145 66.2179L12.3155 66.186C12.3584 65.5155 12.4438 64.8487 12.5708 64.1862L13.0618 64.2803C13.1837 63.6445 13.3453 63.0119 13.5457 62.3829L13.0693 62.2311C13.2713 61.5974 13.5115 60.9679 13.7889 60.3429L14.2459 60.5458C14.5085 59.9544 14.8058 59.3662 15.1372 58.7816L14.7023 58.535C15.0272 57.9619 15.3837 57.3931 15.7711 56.8286L16.1833 57.1115C16.5482 56.58 16.9414 56.0517 17.3627 55.527L16.9728 55.214C17.3857 54.6997 17.8245 54.1894 18.2887 53.6833L18.6572 54.0212C19.0986 53.54 19.5638 53.0621 20.0522 52.5878L19.7039 52.2291C20.1774 51.7692 20.6721 51.3132 21.1876 50.861L21.5173 51.2369C22.0063 50.8079 22.5146 50.3822 23.0418 49.9598L22.7292 49.5696C23.248 49.154 23.7845 48.742 24.3385 48.3337L24.6351 48.7361C25.1629 48.3471 25.7069 47.9612 26.2668 47.5786L25.9847 47.1658C26.5303 46.793 27.0907 46.4235 27.6655 46.0573L27.9341 46.479C28.4948 46.1219 29.0695 45.7679 29.6581 45.4171L29.4021 44.9876C29.9671 44.6508 30.5447 44.3171 31.1344 43.9865L31.3789 44.4226C31.9577 44.0981 32.5485 43.7766 33.1511 43.4582L32.9175 43.0161C33.5035 42.7064 34.1004 42.3996 34.7081 42.0959L34.9317 42.5431C35.5246 42.2468 36.1279 41.9532 36.7414 41.6626L36.5274 41.2107C37.129 40.9257 37.7403 40.6435 38.3611 40.3642L38.5663 40.8201C39.1709 40.5481 39.7845 40.2788 40.4072 40.0123L40.2104 39.5526C40.8238 39.2901 41.4457 39.0303 42.076 38.7732L42.2648 39.2362C42.8795 38.9855 43.5023 38.7375 44.1331 38.4921L43.9518 38.0261C44.5738 37.7841 45.2034 37.5448 45.8405 37.3081L46.0146 37.7768C46.6386 37.545 47.2699 37.3157 47.9083 37.0891L47.741 36.6179C48.3693 36.3948 49.0044 36.1743 49.6463 35.9563L49.8071 36.4298C50.4398 36.2149 51.079 36.0026 51.7248 35.7927L51.5703 35.3172C52.2032 35.1116 52.8422 34.9083 53.4873 34.7076L53.6359 35.185C54.2769 34.9856 54.9239 34.7886 55.5769 34.5941L55.4341 34.1149C56.0703 33.9254 56.712 33.7382 57.3591 33.5535L57.4964 34.0343C58.1418 33.85 58.7926 33.6682 59.4488 33.4888L59.317 33.0065C59.9591 32.8309 60.6063 32.6577 61.2585 32.4868L61.3852 32.9705C62.032 32.801 62.6837 32.6339 63.3402 32.4691L63.2185 31.9842C63.8686 31.821 64.5233 31.6602 65.1828 31.5017L65.2996 31.9878C65.9471 31.8322 66.599 31.6789 67.2554 31.5278L67.1433 31.0405C67.8011 30.8891 68.4632 30.74 69.1298 30.5932L69.2373 31.0815C69.885 30.9389 70.5368 30.7985 71.1927 30.6603L71.0896 30.171C71.7469 30.0325 72.4082 29.8962 73.0735 29.7622L73.1723 30.2523C73.8278 30.1203 74.4872 29.9904 75.1504 29.8628L75.0559 29.3718C75.7123 29.2455 76.3725 29.1213 77.0362 28.9994L77.1266 29.4911C77.789 29.3694 78.455 29.2499 79.1245 29.1327L79.0383 28.6402C79.6945 28.5252 80.3542 28.4124 81.0172 28.3017L81.0995 28.7949C81.7603 28.6846 82.4245 28.5765 83.0919 28.4705L83.0135 27.9767C83.6775 27.8713 84.3447 27.768 85.0151 27.6669L85.0897 28.1613C85.749 28.0619 86.4113 27.9645 87.0766 27.8693L87.0058 27.3744C87.6723 27.279 88.3419 27.1858 89.0143 27.0947L89.0814 27.5902C89.7439 27.5004 90.4093 27.4128 91.0774 27.3273L91.0139 26.8313C91.6784 26.7463 92.3456 26.6633 93.0155 26.5825L93.0754 27.0789C93.7441 26.9982 94.4155 26.9196 95.0895 26.8432L95.0331 26.3463C95.6968 26.2711 96.363 26.1979 97.0317 26.1267L97.0846 26.6239C97.7509 26.5531 98.4198 26.4842 99.091 26.4175L99.0415 25.92C99.7125 25.8533 100.386 25.7887 101.061 25.7263L101.107 26.2242C101.772 26.1627 102.438 26.1034 103.107 26.0461L103.064 25.5479C103.734 25.4905 104.406 25.4352 105.08 25.382L105.119 25.8804C105.789 25.8275 106.461 25.7767 107.135 25.7279L107.099 25.2292C107.767 25.1809 108.436 25.1347 109.108 25.0906L109.14 25.5895C109.811 25.5454 110.483 25.5033 111.157 25.4634L111.128 24.9643C111.799 24.9245 112.472 24.8867 113.147 24.8511L113.173 25.3504C113.841 25.3151 114.511 25.2818 115.182 25.2506L115.159 24.7512C115.832 24.7199 116.506 24.6907 117.182 24.6636L117.202 25.1632C117.872 25.1363 118.544 25.1114 119.218 25.0886L119.201 24.5889C119.871 24.5662 120.543 24.5455 121.216 24.5269L121.23 25.0267C121.902 25.0081 122.576 24.9916 123.251 24.9771L123.24 24.4772C123.912 24.4628 124.585 24.4505 125.26 24.4402L125.268 24.9401C125.937 24.9299 126.608 24.9217 127.281 24.9155L127.276 24.4155C127.95 24.4094 128.624 24.4052 129.3 24.4032L129.302 24.9032C129.64 24.9021 129.977 24.9016 130.316 24.9016C130.654 24.9016 130.992 24.9021 131.329 24.9032L131.331 24.4032C132.007 24.4052 132.682 24.4094 133.355 24.4155L133.351 24.9155C134.023 24.9217 134.694 24.9299 135.364 24.9401L135.371 24.4402C136.046 24.4505 136.719 24.4628 137.391 24.4772L137.381 24.9771C138.056 24.9916 138.729 25.0081 139.402 25.0267L139.415 24.5269C140.088 24.5455 140.76 24.5662 141.43 24.5888L141.413 25.0886C142.087 25.1114 142.759 25.1363 143.43 25.1632L143.45 24.6636C144.126 24.6907 144.8 24.7199 145.472 24.7512L145.449 25.2506C146.121 25.2818 146.79 25.3151 147.458 25.3504L147.484 24.8511C148.159 24.8867 148.833 24.9245 149.504 24.9643L149.474 25.4634C150.148 25.5033 150.821 25.5454 151.491 25.5895L151.524 25.0906C152.195 25.1347 152.865 25.1809 153.532 25.2292L153.496 25.7279C154.17 25.7767 154.842 25.8275 155.512 25.8804L155.551 25.382C156.226 25.4352 156.898 25.4905 157.567 25.5479L157.525 26.0461C158.193 26.1034 158.86 26.1627 159.524 26.2241L159.57 25.7263C160.246 25.7887 160.919 25.8533 161.59 25.92L161.54 26.4175C162.212 26.4842 162.88 26.553 163.547 26.6239L163.6 26.1267C164.268 26.1979 164.935 26.2711 165.598 26.3463L165.542 26.8432C166.216 26.9196 166.887 26.9982 167.556 27.0789L167.616 26.5825C168.286 26.6633 168.953 26.7463 169.618 26.8313L169.554 27.3273C170.222 27.4128 170.888 27.5004 171.55 27.5902L171.617 27.0947C172.29 27.1858 172.959 27.279 173.626 27.3744L173.555 27.8693C174.22 27.9645 174.882 28.0619 175.542 28.1613L175.616 27.6669C176.287 27.768 176.954 27.8713 177.618 27.9767L177.54 28.4705C178.207 28.5765 178.871 28.6846 179.532 28.7949L179.614 28.3018C180.277 28.4124 180.937 28.5252 181.593 28.6402L181.507 29.1327C182.176 29.2499 182.842 29.3694 183.505 29.4911L183.595 28.9994C184.259 29.1213 184.919 29.2455 185.576 29.3718L185.481 29.8628C186.144 29.9904 186.804 30.1203 187.459 30.2523L187.558 29.7622C188.223 29.8962 188.885 30.0325 189.542 30.171L189.439 30.6603C190.095 30.7985 190.746 30.9389 191.394 31.0815L191.502 30.5932C192.168 30.74 192.83 30.8891 193.488 31.0405L193.376 31.5278C194.032 31.6789 194.684 31.8322 195.332 31.9878L195.449 31.5017C196.108 31.6602 196.763 31.821 197.413 31.9842L197.291 32.4691C197.948 32.6339 198.599 32.801 199.246 32.9705L199.373 32.4868C200.025 32.6577 200.672 32.8309 201.314 33.0065L201.183 33.4888C201.839 33.6682 202.49 33.85 203.135 34.0343L203.272 33.5535C203.919 33.7382 204.561 33.9254 205.197 34.1149L205.055 34.5941C205.708 34.7886 206.355 34.9856 206.996 35.1851L207.144 34.7076C207.789 34.9084 208.428 35.1116 209.061 35.3172L208.907 35.7927C209.552 36.0026 210.192 36.2149 210.824 36.4298L210.985 35.9563C211.627 36.1743 212.262 36.3948 212.89 36.6179L212.723 37.0891C213.362 37.3158 213.993 37.545 214.617 37.7768L214.791 37.3081C215.428 37.5448 216.058 37.7841 216.68 38.0261L216.498 38.4921C217.129 38.7375 217.752 38.9855 218.367 39.2362L218.555 38.7732C219.186 39.0303 219.808 39.2901 220.421 39.5526L220.224 40.0123C220.847 40.2788 221.461 40.5481 222.065 40.8201L222.27 40.3642C222.891 40.6435 223.502 40.9257 224.104 41.2107L223.89 41.6626C224.504 41.9532 225.107 42.2468 225.7 42.5431L225.923 42.0959C226.531 42.3996 227.128 42.7064 227.714 43.0161L227.48 43.4581C228.083 43.7766 228.674 44.0981 229.253 44.4226L229.497 43.9865C230.087 44.3171 230.664 44.6508 231.229 44.9876L230.973 45.4171C231.562 45.7679 232.137 46.1219 232.697 46.479L232.966 46.0573C233.541 46.4235 234.101 46.793 234.647 47.1658L234.365 47.5786C234.925 47.9612 235.469 48.3471 235.996 48.7361L236.293 48.3336C236.847 48.742 237.383 49.154 237.902 49.5696L237.59 49.9598C238.117 50.3821 238.625 50.8079 239.114 51.2369L239.444 50.861C239.959 51.3132 240.454 51.7692 240.928 52.2291L240.579 52.5878C241.068 53.0621 241.533 53.5399 241.974 54.0212L242.343 53.6833C242.807 54.1894 243.246 54.6997 243.659 55.214L243.269 55.527C243.69 56.0517 244.083 56.5799 244.448 57.1115L244.86 56.8286C245.248 57.393 245.604 57.9619 245.929 58.535L245.494 58.7816C245.826 59.3662 246.123 59.9543 246.385 60.5458L246.842 60.3429C247.12 60.9678 247.36 61.5973 247.562 62.231L247.086 62.3829C247.286 63.0119 247.448 63.6444 247.57 64.2803L248.061 64.1862Z" stroke="#FFF0E3" stroke-dasharray="2 2"/>
<circle cx="162.066" cy="78.9312" r="11.7342" fill="#FF8225"/>
<circle cx="194.509" cy="52.0114" r="17.4465" fill="#BF9BD2" stroke="black"/>
<circle cx="228.849" cy="91.8487" r="24.8489" fill="#10B9C3"/>
<g filter="url(#filter0_d_1160_1955)">
<path d="M4 133.461C40.5965 133.461 70.2639 103.793 70.2639 67.197C70.2639 30.6004 40.5965 0.933105 4 0.933105V133.461Z" fill="#FFF0E3"/>
<path d="M69.7639 67.197C69.7639 103.351 40.5902 132.69 4.5 132.959V1.43497C40.5902 1.70371 69.7639 31.0434 69.7639 67.197Z" stroke="white"/>
</g>
<defs>
<filter id="filter0_d_1160_1955" x="0" y="0.933105" width="74.2637" height="140.528" filterUnits="userSpaceOnUse" color-interpolation-filters="sRGB">
<feFlood flood-opacity="0" result="BackgroundImageFix"/>
<feColorMatrix in="SourceAlpha" type="matrix" values="0 0 0 0 0 0 0 0 0 0 0 0 0 0 0 0 0 0 127 0" result="hardAlpha"/>
<feOffset dy="4"/>
<feGaussianBlur stdDeviation="2"/>
<feComposite in2="hardAlpha" operator="out"/>
<feColorMatrix type="matrix" values="0 0 0 0 0 0 0 0 0 0 0 0 0 0 0 0 0 0 0.25 0"/>
<feBlend mode="normal" in2="BackgroundImageFix" result="effect1_dropShadow_1160_1955"/>
<feBlend mode="normal" in="SourceGraphic" in2="effect1_dropShadow_1160_1955" result="shape"/>
</filter>
</defs>
</svg>
