<svg width="202" height="85" viewBox="0 0 202 85" fill="none" xmlns="http://www.w3.org/2000/svg">
<path d="M110.84 2.24118C102.202 3.52714 93.5049 5.30118 85.0215 7.66887C76.5295 10.0729 68.0831 13.0256 59.9907 16.9943C52.8226 20.4696 33.2166 31.3354 38.2546 43.2898C43.5315 54.5243 66.371 57.0529 76.2878 57.7245C88.6859 58.4825 101.179 57.8145 113.513 56.1581C126.497 54.4152 139.456 51.5785 152.044 47.3243C153.412 46.8414 155.697 46.0418 157.058 45.507C163.697 42.9541 170.272 39.9997 176.419 35.9998C179.471 33.9939 182.447 31.737 185.021 28.9002C188.138 25.5079 191.033 20.3433 188.765 15.2548C184.825 6.63906 170.649 3.34541 163.113 1.95214C154.479 0.425599 145.699 -0.0157477 136.98 0.0898292C128.279 0.22656 119.483 1.00541 110.84 2.23945V2.24118ZM110.84 2.24118C117.739 1.25118 124.801 0.517329 131.739 0.212714C142.206 -0.271902 152.75 0.00675224 163.14 1.72541C170.855 3.0806 185.064 6.26522 189.126 15.0229C190.505 18.0327 190.157 21.5029 188.745 24.395C182.872 36.2647 162.963 44.4408 152.25 48.2156C140.475 52.2881 128.363 55.0262 116.214 56.8314C104.059 58.5691 91.7587 59.3912 79.5256 58.8201C68.3618 58.2316 47.4533 56.011 39.4419 46.1699C37.518 43.7693 36.4899 40.5033 37.2535 37.175C39.5031 27.4845 52.7202 20.3035 59.921 16.7814C69.6842 12.1239 79.874 8.81983 90.1391 6.28079C96.9389 4.58118 103.945 3.2606 110.84 2.24118Z" fill="black"/>
<path d="M25.1763 53.6911C24.7546 53.1761 24.8755 52.3773 25.4458 51.9103C25.9688 51.482 26.6857 51.4834 27.1273 51.884C34.8916 44.2153 34.8158 42.2359 25.4531 29.6934C24.8869 30.0991 24.1336 30.0473 23.7294 29.5537C23.3077 29.0388 23.4286 28.24 23.9989 27.7729C24.5692 27.3059 25.3762 27.3449 25.7979 27.8599C26.1846 28.3321 26.1114 29.0384 25.6563 29.5136C36.0576 41.112 38.0166 41.6295 46.9497 35.6292C46.6998 35.1251 46.8543 34.4638 47.3536 34.0548C47.9239 33.5878 48.7309 33.6268 49.1526 34.1418C49.5743 34.6567 49.4534 35.4555 48.8831 35.9225C48.3453 36.3629 47.6021 36.3475 47.1629 35.9137C39.4546 43.5543 39.6603 45.5477 49.2584 58.3655C49.8155 58.0029 50.5334 58.0658 50.9245 58.5434C51.3462 59.0584 51.2253 59.8572 50.655 60.3242C50.0847 60.7912 49.2777 60.7522 48.856 60.2373C48.4475 59.7383 48.5519 58.9797 49.0738 58.5078C38.3447 46.5091 36.471 45.9752 27.3327 52.1348C27.6383 52.6467 27.4983 53.3497 26.9753 53.778C26.405 54.245 25.598 54.206 25.1763 53.6911Z" fill="#BF9BD2"/>
<path d="M31.7499 23.282V20.546H41.0739V23.282H31.7499ZM38.6979 12.5L44.9259 26H41.3079L35.9619 13.922H37.0059L31.6779 26H28.0599L34.2879 12.5H38.6979ZM46.0663 12.14H49.3963V18.854L48.9463 19.736V22.148L49.3963 23.012V26H46.0663V12.14ZM48.2803 20.87C48.4603 19.766 48.8023 18.812 49.3063 18.008C49.8103 17.204 50.4463 16.58 51.2143 16.136C51.9823 15.68 52.8463 15.452 53.8063 15.452C54.8143 15.452 55.6963 15.68 56.4523 16.136C57.2203 16.592 57.8203 17.228 58.2523 18.044C58.6843 18.848 58.9003 19.79 58.9003 20.87C58.9003 21.95 58.6843 22.898 58.2523 23.714C57.8203 24.518 57.2203 25.148 56.4523 25.604C55.6963 26.06 54.8143 26.288 53.8063 26.288C52.8463 26.288 51.9823 26.066 51.2143 25.622C50.4463 25.166 49.8103 24.536 49.3063 23.732C48.8023 22.916 48.4603 21.962 48.2803 20.87ZM55.5163 20.87C55.5163 20.318 55.4023 19.832 55.1743 19.412C54.9463 18.98 54.6283 18.644 54.2203 18.404C53.8243 18.152 53.3623 18.026 52.8343 18.026C52.3063 18.026 51.8023 18.152 51.3223 18.404C50.8543 18.644 50.4403 18.98 50.0803 19.412C49.7323 19.832 49.4623 20.318 49.2703 20.87C49.4623 21.422 49.7323 21.914 50.0803 22.346C50.4403 22.766 50.8543 23.102 51.3223 23.354C51.8023 23.594 52.3063 23.714 52.8343 23.714C53.3623 23.714 53.8243 23.594 54.2203 23.354C54.6283 23.102 54.9463 22.766 55.1743 22.346C55.4023 21.914 55.5163 21.422 55.5163 20.87ZM72.1243 22.706C72.1243 23.474 71.8963 24.128 71.4403 24.668C70.9963 25.196 70.3423 25.598 69.4783 25.874C68.6143 26.15 67.5643 26.288 66.3283 26.288C65.0683 26.288 63.9643 26.132 63.0163 25.82C62.0683 25.508 61.3303 25.07 60.8023 24.506C60.2743 23.942 59.9923 23.288 59.9563 22.544H63.3583C63.4303 22.844 63.5983 23.108 63.8623 23.336C64.1383 23.564 64.4923 23.738 64.9243 23.858C65.3563 23.966 65.8663 24.02 66.4543 24.02C67.2463 24.02 67.8463 23.936 68.2543 23.768C68.6623 23.6 68.8663 23.348 68.8663 23.012C68.8663 22.76 68.7163 22.568 68.4163 22.436C68.1283 22.304 67.6063 22.208 66.8503 22.148L64.9783 22.004C63.8023 21.908 62.8663 21.722 62.1703 21.446C61.4743 21.158 60.9763 20.792 60.6763 20.348C60.3883 19.904 60.2443 19.406 60.2443 18.854C60.2443 18.098 60.4783 17.474 60.9463 16.982C61.4263 16.478 62.0863 16.1 62.9263 15.848C63.7663 15.584 64.7503 15.452 65.8783 15.452C67.0063 15.452 68.0083 15.602 68.8843 15.902C69.7723 16.202 70.4803 16.616 71.0083 17.144C71.5483 17.672 71.8543 18.29 71.9263 18.998H68.5243C68.4763 18.758 68.3443 18.536 68.1283 18.332C67.9243 18.128 67.6243 17.966 67.2283 17.846C66.8443 17.714 66.3403 17.648 65.7163 17.648C65.0083 17.648 64.4683 17.726 64.0963 17.882C63.7243 18.038 63.5383 18.266 63.5383 18.566C63.5383 18.794 63.6523 18.98 63.8803 19.124C64.1083 19.256 64.5403 19.346 65.1763 19.394L67.6063 19.574C68.7583 19.67 69.6583 19.856 70.3063 20.132C70.9663 20.396 71.4343 20.744 71.7103 21.176C71.9863 21.608 72.1243 22.118 72.1243 22.706ZM79.763 26.288C78.467 26.288 77.333 26.06 76.361 25.604C75.389 25.148 74.633 24.512 74.093 23.696C73.553 22.88 73.283 21.938 73.283 20.87C73.283 19.79 73.553 18.848 74.093 18.044C74.633 17.228 75.389 16.592 76.361 16.136C77.345 15.68 78.479 15.452 79.763 15.452C81.059 15.452 82.193 15.68 83.165 16.136C84.137 16.592 84.893 17.228 85.433 18.044C85.985 18.848 86.261 19.79 86.261 20.87C86.261 21.95 85.985 22.898 85.433 23.714C84.893 24.518 84.137 25.148 83.165 25.604C82.193 26.06 81.059 26.288 79.763 26.288ZM79.763 23.768C80.423 23.768 80.981 23.654 81.437 23.426C81.905 23.186 82.259 22.85 82.499 22.418C82.751 21.986 82.877 21.47 82.877 20.87C82.877 20.27 82.751 19.754 82.499 19.322C82.259 18.878 81.905 18.542 81.437 18.314C80.981 18.074 80.423 17.954 79.763 17.954C79.127 17.954 78.575 18.074 78.107 18.314C77.639 18.542 77.279 18.878 77.027 19.322C76.775 19.754 76.649 20.27 76.649 20.87C76.649 21.47 76.775 21.986 77.027 22.418C77.279 22.85 77.639 23.186 78.107 23.426C78.575 23.654 79.127 23.768 79.763 23.768ZM92.2938 26.27C91.3458 26.27 90.5298 26.078 89.8458 25.694C89.1738 25.298 88.6578 24.74 88.2978 24.02C87.9498 23.3 87.7758 22.448 87.7758 21.464V15.74H91.1238V20.978C91.1238 21.806 91.3218 22.442 91.7178 22.886C92.1138 23.33 92.6838 23.552 93.4278 23.552C93.9798 23.552 94.4478 23.438 94.8318 23.21C95.2158 22.982 95.5098 22.652 95.7138 22.22C95.9298 21.788 96.0378 21.278 96.0378 20.69L97.0818 21.248C96.9618 22.328 96.6738 23.246 96.2178 24.002C95.7738 24.746 95.2098 25.31 94.5258 25.694C93.8538 26.078 93.1098 26.27 92.2938 26.27ZM96.6858 26L96.0378 22.004V15.74H99.3678V22.508L100.034 26H96.6858ZM101.215 15.74H104.599L105.211 19.43V26H101.863V19.142L101.215 15.74ZM110.107 15.596V18.476C109.783 18.404 109.459 18.35 109.135 18.314C108.823 18.278 108.535 18.26 108.271 18.26C107.695 18.26 107.173 18.38 106.705 18.62C106.249 18.848 105.883 19.214 105.607 19.718C105.343 20.222 105.211 20.876 105.211 21.68L104.545 20.852C104.629 20.12 104.767 19.43 104.959 18.782C105.151 18.134 105.415 17.564 105.751 17.072C106.087 16.568 106.501 16.172 106.993 15.884C107.497 15.596 108.103 15.452 108.811 15.452C109.015 15.452 109.231 15.464 109.459 15.488C109.687 15.512 109.903 15.548 110.107 15.596ZM120.554 26L120.104 22.13L120.716 20.906L120.122 19.358L120.95 12.14H124.424L123.398 20.618L124.01 26H120.554ZM121.328 20.87C121.148 21.962 120.806 22.916 120.302 23.732C119.798 24.536 119.162 25.166 118.394 25.622C117.626 26.066 116.762 26.288 115.802 26.288C114.794 26.288 113.906 26.06 113.138 25.604C112.382 25.148 111.788 24.518 111.356 23.714C110.924 22.898 110.708 21.95 110.708 20.87C110.708 19.79 110.924 18.848 111.356 18.044C111.788 17.228 112.382 16.592 113.138 16.136C113.906 15.68 114.794 15.452 115.802 15.452C116.762 15.452 117.626 15.68 118.394 16.136C119.162 16.58 119.798 17.204 120.302 18.008C120.818 18.812 121.16 19.766 121.328 20.87ZM114.092 20.87C114.092 21.422 114.206 21.914 114.434 22.346C114.662 22.766 114.974 23.102 115.37 23.354C115.778 23.594 116.246 23.714 116.774 23.714C117.302 23.714 117.8 23.594 118.268 23.354C118.748 23.102 119.168 22.766 119.528 22.346C119.888 21.914 120.158 21.422 120.338 20.87C120.158 20.318 119.888 19.832 119.528 19.412C119.168 18.98 118.748 18.644 118.268 18.404C117.8 18.152 117.302 18.026 116.774 18.026C116.246 18.026 115.778 18.152 115.37 18.404C114.974 18.644 114.662 18.98 114.434 19.412C114.206 19.832 114.092 20.318 114.092 20.87ZM129.686 24.308C129.644 24.47 129.647 24.596 129.695 24.686C129.743 24.77 129.824 24.83 129.938 24.866L130.37 24.992C130.496 25.04 130.589 25.1 130.649 25.172C130.715 25.238 130.748 25.328 130.748 25.442C130.748 25.61 130.685 25.745 130.559 25.847C130.439 25.949 130.265 26 130.037 26H125.528C125.288 26 125.126 25.955 125.042 25.865C124.964 25.775 124.925 25.661 124.925 25.523C124.925 25.379 124.97 25.262 125.06 25.172C125.15 25.076 125.258 25.007 125.384 24.965L125.852 24.848C125.99 24.806 126.095 24.743 126.167 24.659C126.245 24.569 126.314 24.425 126.374 24.227C126.434 24.023 126.515 23.732 126.617 23.354C126.725 22.976 126.845 22.541 126.977 22.049C127.109 21.557 127.247 21.038 127.391 20.492C127.541 19.94 127.688 19.391 127.832 18.845C127.976 18.293 128.108 17.774 128.228 17.288C128.354 16.796 128.465 16.361 128.561 15.983C128.657 15.599 128.726 15.308 128.768 15.11C128.804 14.954 128.804 14.831 128.768 14.741C128.732 14.651 128.645 14.585 128.507 14.543L128.075 14.408C127.943 14.354 127.847 14.294 127.787 14.228C127.727 14.156 127.697 14.066 127.697 13.958C127.697 13.784 127.757 13.649 127.877 13.553C128.003 13.451 128.189 13.4 128.435 13.4H132.917C133.157 13.4 133.316 13.445 133.394 13.535C133.472 13.619 133.511 13.73 133.511 13.868C133.511 14.012 133.466 14.132 133.376 14.228C133.292 14.318 133.181 14.387 133.043 14.435L132.566 14.561C132.428 14.609 132.326 14.672 132.26 14.75C132.194 14.828 132.128 14.966 132.062 15.164C131.996 15.374 131.906 15.683 131.792 16.091C131.678 16.499 131.549 16.967 131.405 17.495C131.267 18.023 131.12 18.578 130.964 19.16C130.814 19.742 130.667 20.315 130.523 20.879C130.379 21.443 130.247 21.965 130.127 22.445C130.007 22.925 129.908 23.33 129.83 23.66C129.752 23.99 129.704 24.206 129.686 24.308ZM132.935 19.862C132.845 19.814 132.797 19.724 132.791 19.592C132.785 19.454 132.836 19.283 132.944 19.079C133.214 18.575 133.619 18.17 134.159 17.864C134.699 17.552 135.323 17.396 136.031 17.396C136.469 17.396 136.808 17.486 137.048 17.666C137.288 17.846 137.408 18.107 137.408 18.449C137.408 18.653 137.363 18.884 137.273 19.142C137.183 19.394 137.072 19.67 136.94 19.97C136.808 20.264 136.673 20.579 136.535 20.915C136.397 21.251 136.286 21.602 136.202 21.968L135.995 21.788C136.319 20.96 136.688 20.264 137.102 19.7C137.516 19.136 137.948 18.686 138.398 18.35C138.854 18.008 139.304 17.765 139.748 17.621C140.198 17.471 140.618 17.396 141.008 17.396C141.56 17.396 141.965 17.516 142.223 17.756C142.481 17.99 142.616 18.32 142.628 18.746C142.64 19.172 142.547 19.664 142.349 20.222L141.35 23.093C141.2 23.525 141.146 23.828 141.188 24.002C141.23 24.17 141.317 24.254 141.449 24.254C141.533 24.254 141.614 24.23 141.692 24.182C141.776 24.134 141.881 24.056 142.007 23.948C142.133 23.84 142.235 23.777 142.313 23.759C142.397 23.735 142.478 23.741 142.556 23.777C142.652 23.831 142.703 23.924 142.709 24.056C142.715 24.188 142.664 24.359 142.556 24.569C142.292 25.067 141.896 25.472 141.368 25.784C140.84 26.09 140.222 26.243 139.514 26.243C138.992 26.243 138.605 26.141 138.353 25.937C138.107 25.727 137.978 25.43 137.966 25.046C137.954 24.662 138.035 24.215 138.209 23.705L139.217 20.825C139.391 20.357 139.454 20.018 139.406 19.808C139.364 19.592 139.208 19.484 138.938 19.484C138.752 19.484 138.548 19.547 138.326 19.673C138.11 19.793 137.888 19.973 137.66 20.213C137.438 20.447 137.222 20.738 137.012 21.086C136.808 21.428 136.622 21.821 136.454 22.265C136.34 22.577 136.244 22.847 136.166 23.075C136.088 23.303 136.028 23.498 135.986 23.66C135.95 23.822 135.932 23.963 135.932 24.083C135.932 24.263 135.962 24.425 136.022 24.569C136.088 24.713 136.121 24.881 136.121 25.073C136.121 25.427 135.902 25.712 135.464 25.928C135.032 26.138 134.432 26.243 133.664 26.243C133.106 26.243 132.767 26.063 132.647 25.703C132.527 25.337 132.587 24.824 132.827 24.164L134.15 20.546C134.312 20.114 134.369 19.814 134.321 19.646C134.273 19.478 134.183 19.394 134.051 19.394C133.973 19.394 133.892 19.415 133.808 19.457C133.724 19.499 133.616 19.58 133.484 19.7C133.358 19.802 133.253 19.865 133.169 19.889C133.091 19.907 133.013 19.898 132.935 19.862ZM144.414 19.862C144.324 19.814 144.276 19.724 144.27 19.592C144.264 19.454 144.315 19.283 144.423 19.079C144.693 18.575 145.098 18.17 145.638 17.864C146.178 17.552 146.802 17.396 147.51 17.396C147.948 17.396 148.287 17.486 148.527 17.666C148.767 17.846 148.887 18.107 148.887 18.449C148.887 18.653 148.842 18.884 148.752 19.142C148.662 19.394 148.551 19.67 148.419 19.97C148.287 20.264 148.152 20.579 148.014 20.915C147.876 21.251 147.765 21.602 147.681 21.968L147.474 21.788C147.798 20.96 148.167 20.264 148.581 19.7C148.995 19.136 149.427 18.686 149.877 18.35C150.333 18.008 150.783 17.765 151.227 17.621C151.677 17.471 152.097 17.396 152.487 17.396C153.039 17.396 153.444 17.516 153.702 17.756C153.96 17.99 154.095 18.32 154.107 18.746C154.119 19.172 154.026 19.664 153.828 20.222L152.829 23.093C152.679 23.525 152.625 23.828 152.667 24.002C152.709 24.17 152.796 24.254 152.928 24.254C153.012 24.254 153.093 24.23 153.171 24.182C153.255 24.134 153.36 24.056 153.486 23.948C153.612 23.84 153.714 23.777 153.792 23.759C153.876 23.735 153.957 23.741 154.035 23.777C154.131 23.831 154.182 23.924 154.188 24.056C154.194 24.188 154.143 24.359 154.035 24.569C153.771 25.067 153.375 25.472 152.847 25.784C152.319 26.09 151.701 26.243 150.993 26.243C150.471 26.243 150.084 26.141 149.832 25.937C149.586 25.727 149.457 25.43 149.445 25.046C149.433 24.662 149.514 24.215 149.688 23.705L150.696 20.825C150.87 20.357 150.933 20.018 150.885 19.808C150.843 19.592 150.687 19.484 150.417 19.484C150.231 19.484 150.027 19.547 149.805 19.673C149.589 19.793 149.367 19.973 149.139 20.213C148.917 20.447 148.701 20.738 148.491 21.086C148.287 21.428 148.101 21.821 147.933 22.265C147.819 22.577 147.723 22.847 147.645 23.075C147.567 23.303 147.507 23.498 147.465 23.66C147.429 23.822 147.411 23.963 147.411 24.083C147.411 24.263 147.441 24.425 147.501 24.569C147.567 24.713 147.6 24.881 147.6 25.073C147.6 25.427 147.381 25.712 146.943 25.928C146.511 26.138 145.911 26.243 145.143 26.243C144.585 26.243 144.246 26.063 144.126 25.703C144.006 25.337 144.066 24.824 144.306 24.164L145.629 20.546C145.791 20.114 145.848 19.814 145.8 19.646C145.752 19.478 145.662 19.394 145.53 19.394C145.452 19.394 145.371 19.415 145.287 19.457C145.203 19.499 145.095 19.58 144.963 19.7C144.837 19.802 144.732 19.865 144.648 19.889C144.57 19.907 144.492 19.898 144.414 19.862ZM160.842 17.378C161.778 17.384 162.567 17.57 163.209 17.936C163.851 18.302 164.307 18.818 164.577 19.484C164.853 20.15 164.907 20.936 164.739 21.842C164.613 22.52 164.391 23.132 164.073 23.678C163.761 24.218 163.365 24.68 162.885 25.064C162.411 25.448 161.871 25.742 161.265 25.946C160.659 26.15 160.002 26.249 159.294 26.243C158.364 26.231 157.578 26.045 156.936 25.685C156.3 25.319 155.847 24.803 155.577 24.137C155.307 23.465 155.253 22.676 155.415 21.77C155.541 21.098 155.76 20.489 156.072 19.943C156.39 19.397 156.786 18.932 157.26 18.548C157.734 18.164 158.271 17.873 158.871 17.675C159.477 17.471 160.134 17.372 160.842 17.378ZM159.204 25.118C159.378 25.142 159.549 25.118 159.717 25.046C159.885 24.974 160.047 24.854 160.203 24.686C160.365 24.512 160.518 24.293 160.662 24.029C160.812 23.759 160.95 23.444 161.076 23.084C161.202 22.718 161.316 22.304 161.418 21.842C161.586 21.134 161.676 20.54 161.688 20.06C161.7 19.58 161.643 19.211 161.517 18.953C161.391 18.695 161.196 18.545 160.932 18.503C160.758 18.473 160.587 18.494 160.419 18.566C160.257 18.638 160.095 18.761 159.933 18.935C159.777 19.109 159.627 19.328 159.483 19.592C159.339 19.856 159.204 20.171 159.078 20.537C158.952 20.903 158.838 21.314 158.736 21.77C158.568 22.478 158.478 23.072 158.466 23.552C158.454 24.032 158.511 24.404 158.637 24.668C158.763 24.926 158.952 25.076 159.204 25.118ZM167.076 24.857C167.076 24.629 167.079 24.38 167.085 24.11C167.091 23.834 167.097 23.543 167.103 23.237C167.109 22.925 167.115 22.607 167.121 22.283C167.133 21.959 167.139 21.638 167.139 21.32C167.139 20.996 167.136 20.684 167.13 20.384C167.13 20.138 167.103 19.97 167.049 19.88C166.995 19.784 166.917 19.736 166.815 19.736C166.737 19.736 166.662 19.766 166.59 19.826C166.518 19.886 166.446 19.985 166.374 20.123C166.284 20.285 166.2 20.396 166.122 20.456C166.044 20.51 165.957 20.537 165.861 20.537C165.741 20.531 165.645 20.483 165.573 20.393C165.507 20.303 165.495 20.159 165.537 19.961C165.633 19.523 165.837 19.118 166.149 18.746C166.467 18.374 166.86 18.074 167.328 17.846C167.802 17.612 168.312 17.495 168.858 17.495C169.362 17.495 169.707 17.648 169.893 17.954C170.079 18.26 170.181 18.734 170.199 19.376C170.211 19.724 170.217 20.072 170.217 20.42C170.217 20.768 170.214 21.104 170.208 21.428C170.208 21.752 170.205 22.055 170.199 22.337C170.193 22.619 170.187 22.874 170.181 23.102C170.181 23.33 170.178 23.516 170.172 23.66C170.184 23.99 170.22 24.212 170.28 24.326C170.34 24.44 170.43 24.497 170.55 24.497C170.676 24.497 170.823 24.422 170.991 24.272C171.165 24.116 171.339 23.909 171.513 23.651C171.693 23.393 171.861 23.108 172.017 22.796C172.179 22.478 172.311 22.154 172.413 21.824C172.521 21.494 172.581 21.179 172.593 20.879C172.617 20.645 172.599 20.471 172.539 20.357C172.485 20.243 172.383 20.111 172.233 19.961C172.071 19.805 171.948 19.64 171.864 19.466C171.786 19.286 171.756 19.07 171.774 18.818C171.804 18.404 171.966 18.065 172.26 17.801C172.56 17.531 172.941 17.396 173.403 17.396C173.877 17.396 174.237 17.54 174.483 17.828C174.729 18.11 174.834 18.539 174.798 19.115C174.756 19.763 174.609 20.423 174.357 21.095C174.111 21.767 173.778 22.412 173.358 23.03C172.944 23.642 172.47 24.191 171.936 24.677C171.408 25.157 170.841 25.538 170.235 25.82C169.635 26.102 169.02 26.243 168.39 26.243C167.952 26.243 167.625 26.135 167.409 25.919C167.193 25.703 167.082 25.349 167.076 24.857ZM183.277 23.093C183.163 23.543 183.127 23.855 183.169 24.029C183.211 24.197 183.295 24.281 183.421 24.281C183.505 24.281 183.586 24.257 183.664 24.209C183.748 24.161 183.853 24.083 183.979 23.975C184.105 23.867 184.207 23.804 184.285 23.786C184.369 23.762 184.45 23.768 184.528 23.804C184.624 23.858 184.672 23.951 184.672 24.083C184.678 24.215 184.627 24.386 184.519 24.596C184.261 25.088 183.874 25.487 183.358 25.793C182.848 26.093 182.308 26.243 181.738 26.243C181.258 26.243 180.913 26.126 180.703 25.892C180.493 25.652 180.388 25.322 180.388 24.902C180.388 24.758 180.394 24.605 180.406 24.443C180.424 24.275 180.451 24.095 180.487 23.903C180.523 23.711 180.568 23.501 180.622 23.273C180.676 23.039 180.745 22.781 180.829 22.499L181.045 23.057C180.835 23.711 180.526 24.278 180.118 24.758C179.716 25.232 179.254 25.598 178.732 25.856C178.216 26.114 177.667 26.243 177.085 26.243C176.323 26.243 175.735 25.997 175.321 25.505C174.913 25.013 174.766 24.269 174.88 23.273C174.94 22.691 175.09 22.118 175.33 21.554C175.57 20.984 175.888 20.45 176.284 19.952C176.686 19.448 177.157 19.004 177.697 18.62C178.243 18.236 178.855 17.936 179.533 17.72C180.217 17.504 180.958 17.396 181.756 17.396C182.488 17.396 183.094 17.447 183.574 17.549C184.054 17.645 184.408 17.777 184.636 17.945C184.864 18.113 184.963 18.299 184.933 18.503C184.915 18.689 184.852 18.821 184.744 18.899C184.642 18.977 184.537 19.058 184.429 19.142C184.321 19.22 184.24 19.352 184.186 19.538L183.277 23.093ZM178.012 23.228C177.958 23.738 177.985 24.095 178.093 24.299C178.207 24.497 178.36 24.596 178.552 24.596C178.75 24.596 178.957 24.515 179.173 24.353C179.395 24.185 179.617 23.951 179.839 23.651C180.061 23.351 180.271 22.997 180.469 22.589C180.673 22.181 180.853 21.731 181.009 21.239C181.171 20.747 181.297 20.228 181.387 19.682C181.465 19.268 181.468 18.968 181.396 18.782C181.324 18.59 181.183 18.494 180.973 18.494C180.709 18.494 180.445 18.587 180.181 18.773C179.917 18.959 179.665 19.214 179.425 19.538C179.185 19.862 178.966 20.228 178.768 20.636C178.57 21.044 178.405 21.47 178.273 21.914C178.147 22.358 178.06 22.796 178.012 23.228ZM187.14 19.043L186.654 18.899C186.528 18.845 186.435 18.773 186.375 18.683C186.315 18.587 186.285 18.482 186.285 18.368C186.285 18.206 186.351 18.08 186.483 17.99C186.621 17.894 186.801 17.846 187.023 17.846H187.563C187.767 17.846 187.95 17.804 188.112 17.72C188.28 17.63 188.445 17.501 188.607 17.333L189.912 15.956C190.032 15.83 190.152 15.743 190.272 15.695C190.398 15.641 190.533 15.614 190.677 15.614C190.851 15.614 190.98 15.659 191.064 15.749C191.148 15.833 191.19 15.95 191.19 16.1C191.19 16.184 191.178 16.304 191.154 16.46C191.13 16.61 191.088 16.784 191.028 16.982L189.309 22.985C189.171 23.471 189.144 23.807 189.228 23.993C189.312 24.173 189.501 24.263 189.795 24.263C190.005 24.263 190.203 24.212 190.389 24.11C190.581 24.008 190.782 23.84 190.992 23.606C191.094 23.498 191.181 23.426 191.253 23.39C191.325 23.348 191.4 23.327 191.478 23.327C191.58 23.327 191.661 23.363 191.721 23.435C191.781 23.507 191.802 23.609 191.784 23.741C191.742 24.011 191.613 24.293 191.397 24.587C191.187 24.875 190.905 25.145 190.551 25.397C190.197 25.649 189.786 25.853 189.318 26.009C188.856 26.165 188.352 26.243 187.806 26.243C187.266 26.243 186.852 26.135 186.564 25.919C186.282 25.697 186.123 25.367 186.087 24.929C186.051 24.485 186.132 23.924 186.33 23.246L187.284 20.096C187.392 19.742 187.431 19.493 187.401 19.349C187.377 19.199 187.29 19.097 187.14 19.043ZM189.822 19.061L190.191 17.891H192.387C192.669 17.891 192.81 18.026 192.81 18.296C192.81 18.53 192.714 18.716 192.522 18.854C192.33 18.992 192.072 19.061 191.748 19.061H189.822ZM194.349 22.238C194.349 22.238 194.454 22.205 194.664 22.139C194.874 22.073 195.144 21.992 195.474 21.896C195.81 21.794 196.17 21.683 196.554 21.563C196.938 21.443 197.313 21.329 197.679 21.221C198.045 21.107 198.36 21.008 198.624 20.924L198.318 21.275C198.384 21.065 198.435 20.816 198.471 20.528C198.513 20.24 198.537 19.919 198.543 19.565C198.543 19.217 198.483 18.944 198.363 18.746C198.243 18.542 198.075 18.44 197.859 18.44C197.655 18.44 197.451 18.521 197.247 18.683C197.043 18.839 196.851 19.067 196.671 19.367C196.491 19.661 196.338 20.015 196.212 20.429C196.086 20.843 195.999 21.302 195.951 21.806C195.879 22.67 195.99 23.324 196.284 23.768C196.584 24.206 197.046 24.425 197.67 24.425C198 24.425 198.309 24.368 198.597 24.254C198.885 24.14 199.152 23.978 199.398 23.768C199.644 23.552 199.857 23.303 200.037 23.021C200.187 22.835 200.313 22.709 200.415 22.643C200.523 22.577 200.637 22.547 200.757 22.553C200.901 22.559 201.015 22.625 201.099 22.751C201.183 22.871 201.189 23.069 201.117 23.345C200.991 23.849 200.733 24.323 200.343 24.767C199.953 25.205 199.428 25.562 198.768 25.838C198.114 26.108 197.322 26.243 196.392 26.243C195.504 26.243 194.784 26.093 194.232 25.793C193.686 25.493 193.299 25.07 193.071 24.524C192.843 23.978 192.759 23.327 192.819 22.571C192.885 21.851 193.068 21.179 193.368 20.555C193.674 19.925 194.076 19.373 194.574 18.899C195.078 18.425 195.654 18.056 196.302 17.792C196.956 17.522 197.658 17.387 198.408 17.387C199.008 17.387 199.5 17.492 199.884 17.702C200.268 17.906 200.559 18.185 200.757 18.539C200.961 18.887 201.087 19.28 201.135 19.718C201.153 19.838 201.183 19.946 201.225 20.042C201.273 20.132 201.339 20.189 201.423 20.213C201.513 20.231 201.579 20.267 201.621 20.321C201.669 20.369 201.693 20.441 201.693 20.537C201.693 20.663 201.642 20.783 201.54 20.897C201.444 21.005 201.258 21.098 200.982 21.176C200.712 21.248 200.367 21.347 199.947 21.473C199.527 21.593 199.071 21.725 198.579 21.869C198.087 22.013 197.598 22.157 197.112 22.301C196.626 22.445 196.179 22.574 195.771 22.688C195.369 22.802 195.045 22.898 194.799 22.976C194.559 23.048 194.439 23.084 194.439 23.084L194.349 22.238ZM59.4576 34.5H62.8596V48H59.4576V34.5ZM64.6614 37.74H67.9914L68.6574 41.736V48H65.3094V41.232L64.6614 37.74ZM72.4914 37.452C73.4754 37.452 74.3094 37.65 74.9934 38.046C75.6894 38.442 76.2174 39 76.5774 39.72C76.9494 40.428 77.1354 41.28 77.1354 42.276V48H73.7874V42.78C73.7874 41.928 73.5774 41.286 73.1574 40.854C72.7374 40.41 72.1374 40.188 71.3574 40.188C70.8054 40.188 70.3254 40.308 69.9174 40.548C69.5094 40.776 69.1974 41.106 68.9814 41.538C68.7654 41.958 68.6574 42.462 68.6574 43.05L67.5954 42.492C67.7274 41.4 68.0214 40.482 68.4774 39.738C68.9454 38.994 69.5214 38.43 70.2054 38.046C70.9014 37.65 71.6634 37.452 72.4914 37.452ZM88.5351 48L88.0851 44.13L88.6971 42.906L88.1031 41.358L88.9311 34.14H92.4051L91.3791 42.618L91.9911 48H88.5351ZM89.3091 42.87C89.1291 43.962 88.7871 44.916 88.2831 45.732C87.7791 46.536 87.1431 47.166 86.3751 47.622C85.6071 48.066 84.7431 48.288 83.7831 48.288C82.7751 48.288 81.8871 48.06 81.1191 47.604C80.3631 47.148 79.7691 46.518 79.3371 45.714C78.9051 44.898 78.6891 43.95 78.6891 42.87C78.6891 41.79 78.9051 40.848 79.3371 40.044C79.7691 39.228 80.3631 38.592 81.1191 38.136C81.8871 37.68 82.7751 37.452 83.7831 37.452C84.7431 37.452 85.6071 37.68 86.3751 38.136C87.1431 38.58 87.7791 39.204 88.2831 40.008C88.7991 40.812 89.1411 41.766 89.3091 42.87ZM82.0731 42.87C82.0731 43.422 82.1871 43.914 82.4151 44.346C82.6431 44.766 82.9551 45.102 83.3511 45.354C83.7591 45.594 84.2271 45.714 84.7551 45.714C85.2831 45.714 85.7811 45.594 86.2491 45.354C86.7291 45.102 87.1491 44.766 87.5091 44.346C87.8691 43.914 88.1391 43.422 88.3191 42.87C88.1391 42.318 87.8691 41.832 87.5091 41.412C87.1491 40.98 86.7291 40.644 86.2491 40.404C85.7811 40.152 85.2831 40.026 84.7551 40.026C84.2271 40.026 83.7591 40.152 83.3511 40.404C82.9551 40.644 82.6431 40.98 82.4151 41.412C82.1871 41.832 82.0731 42.318 82.0731 42.87ZM98.2616 48.27C97.3136 48.27 96.4976 48.078 95.8136 47.694C95.1416 47.298 94.6256 46.74 94.2656 46.02C93.9176 45.3 93.7436 44.448 93.7436 43.464V37.74H97.0916V42.978C97.0916 43.806 97.2896 44.442 97.6856 44.886C98.0816 45.33 98.6516 45.552 99.3956 45.552C99.9476 45.552 100.416 45.438 100.8 45.21C101.184 44.982 101.478 44.652 101.682 44.22C101.898 43.788 102.006 43.278 102.006 42.69L103.05 43.248C102.93 44.328 102.642 45.246 102.186 46.002C101.742 46.746 101.178 47.31 100.494 47.694C99.8216 48.078 99.0776 48.27 98.2616 48.27ZM102.654 48L102.006 44.004V37.74H105.336V44.508L106.002 48H102.654ZM119.225 44.706C119.225 45.474 118.997 46.128 118.541 46.668C118.097 47.196 117.443 47.598 116.579 47.874C115.715 48.15 114.665 48.288 113.429 48.288C112.169 48.288 111.065 48.132 110.117 47.82C109.169 47.508 108.431 47.07 107.903 46.506C107.375 45.942 107.093 45.288 107.057 44.544H110.459C110.531 44.844 110.699 45.108 110.963 45.336C111.239 45.564 111.593 45.738 112.025 45.858C112.457 45.966 112.967 46.02 113.555 46.02C114.347 46.02 114.947 45.936 115.355 45.768C115.763 45.6 115.967 45.348 115.967 45.012C115.967 44.76 115.817 44.568 115.517 44.436C115.229 44.304 114.707 44.208 113.951 44.148L112.079 44.004C110.903 43.908 109.967 43.722 109.271 43.446C108.575 43.158 108.077 42.792 107.777 42.348C107.489 41.904 107.345 41.406 107.345 40.854C107.345 40.098 107.579 39.474 108.047 38.982C108.527 38.478 109.187 38.1 110.027 37.848C110.867 37.584 111.851 37.452 112.979 37.452C114.107 37.452 115.109 37.602 115.985 37.902C116.873 38.202 117.581 38.616 118.109 39.144C118.649 39.672 118.955 40.29 119.027 40.998H115.625C115.577 40.758 115.445 40.536 115.229 40.332C115.025 40.128 114.725 39.966 114.329 39.846C113.945 39.714 113.441 39.648 112.817 39.648C112.109 39.648 111.569 39.726 111.197 39.882C110.825 40.038 110.639 40.266 110.639 40.566C110.639 40.794 110.753 40.98 110.981 41.124C111.209 41.256 111.641 41.346 112.277 41.394L114.707 41.574C115.859 41.67 116.759 41.856 117.407 42.132C118.067 42.396 118.535 42.744 118.811 43.176C119.087 43.608 119.225 44.118 119.225 44.706ZM119.757 40.224V38.766L121.881 37.992L123.303 35.004H125.229V37.74H129.657V40.224H125.229V43.608C125.229 44.376 125.385 44.916 125.697 45.228C126.009 45.528 126.567 45.678 127.371 45.678C127.875 45.678 128.325 45.636 128.721 45.552C129.117 45.456 129.489 45.33 129.837 45.174V47.712C129.477 47.856 129.003 47.988 128.415 48.108C127.839 48.228 127.239 48.288 126.615 48.288C125.523 48.288 124.623 48.114 123.915 47.766C123.219 47.418 122.703 46.932 122.367 46.308C122.043 45.672 121.881 44.928 121.881 44.076V40.224H119.757ZM130.896 37.74H134.28L134.892 41.43V48H131.544V41.142L130.896 37.74ZM139.788 37.596V40.476C139.464 40.404 139.14 40.35 138.816 40.314C138.504 40.278 138.216 40.26 137.952 40.26C137.376 40.26 136.854 40.38 136.386 40.62C135.93 40.848 135.564 41.214 135.288 41.718C135.024 42.222 134.892 42.876 134.892 43.68L134.226 42.852C134.31 42.12 134.448 41.43 134.64 40.782C134.832 40.134 135.096 39.564 135.432 39.072C135.768 38.568 136.182 38.172 136.674 37.884C137.178 37.596 137.784 37.452 138.492 37.452C138.696 37.452 138.912 37.464 139.14 37.488C139.368 37.512 139.584 37.548 139.788 37.596ZM141.138 37.596L142.794 37.938L144.468 37.596V48H141.138V37.596ZM142.812 36.66C142.224 36.66 141.744 36.51 141.372 36.21C141 35.898 140.814 35.49 140.814 34.986C140.814 34.47 141 34.062 141.372 33.762C141.744 33.462 142.224 33.312 142.812 33.312C143.412 33.312 143.892 33.462 144.252 33.762C144.612 34.062 144.792 34.47 144.792 34.986C144.792 35.49 144.612 35.898 144.252 36.21C143.892 36.51 143.412 36.66 142.812 36.66ZM152.508 48.288C151.284 48.288 150.186 48.06 149.214 47.604C148.254 47.148 147.498 46.512 146.946 45.696C146.394 44.88 146.118 43.926 146.118 42.834C146.118 41.766 146.382 40.83 146.91 40.026C147.438 39.222 148.164 38.592 149.088 38.136C150.024 37.68 151.08 37.452 152.256 37.452C153.456 37.452 154.488 37.716 155.352 38.244C156.216 38.772 156.882 39.516 157.35 40.476C157.818 41.436 158.052 42.564 158.052 43.86H148.8V41.754H156.216L155.01 42.51C154.974 41.946 154.836 41.472 154.596 41.088C154.368 40.692 154.062 40.392 153.678 40.188C153.294 39.972 152.838 39.864 152.31 39.864C151.734 39.864 151.236 39.978 150.816 40.206C150.396 40.434 150.066 40.752 149.826 41.16C149.598 41.568 149.484 42.042 149.484 42.582C149.484 43.266 149.634 43.848 149.934 44.328C150.246 44.808 150.69 45.174 151.266 45.426C151.854 45.678 152.568 45.804 153.408 45.804C154.176 45.804 154.944 45.702 155.712 45.498C156.48 45.282 157.17 44.982 157.782 44.598V46.776C157.086 47.256 156.288 47.628 155.388 47.892C154.5 48.156 153.54 48.288 152.508 48.288ZM171.274 44.706C171.274 45.474 171.046 46.128 170.59 46.668C170.146 47.196 169.492 47.598 168.628 47.874C167.764 48.15 166.714 48.288 165.478 48.288C164.218 48.288 163.114 48.132 162.166 47.82C161.218 47.508 160.48 47.07 159.952 46.506C159.424 45.942 159.142 45.288 159.106 44.544H162.508C162.58 44.844 162.748 45.108 163.012 45.336C163.288 45.564 163.642 45.738 164.074 45.858C164.506 45.966 165.016 46.02 165.604 46.02C166.396 46.02 166.996 45.936 167.404 45.768C167.812 45.6 168.016 45.348 168.016 45.012C168.016 44.76 167.866 44.568 167.566 44.436C167.278 44.304 166.756 44.208 166 44.148L164.128 44.004C162.952 43.908 162.016 43.722 161.32 43.446C160.624 43.158 160.126 42.792 159.826 42.348C159.538 41.904 159.394 41.406 159.394 40.854C159.394 40.098 159.628 39.474 160.096 38.982C160.576 38.478 161.236 38.1 162.076 37.848C162.916 37.584 163.9 37.452 165.028 37.452C166.156 37.452 167.158 37.602 168.034 37.902C168.922 38.202 169.63 38.616 170.158 39.144C170.698 39.672 171.004 40.29 171.076 40.998H167.674C167.626 40.758 167.494 40.536 167.278 40.332C167.074 40.128 166.774 39.966 166.378 39.846C165.994 39.714 165.49 39.648 164.866 39.648C164.158 39.648 163.618 39.726 163.246 39.882C162.874 40.038 162.688 40.266 162.688 40.566C162.688 40.794 162.802 40.98 163.03 41.124C163.258 41.256 163.69 41.346 164.326 41.394L166.756 41.574C167.908 41.67 168.808 41.856 169.456 42.132C170.116 42.396 170.584 42.744 170.86 43.176C171.136 43.608 171.274 44.118 171.274 44.706Z" fill="black"/>
</svg>
