<svg width="42" height="30" viewBox="0 0 42 30" fill="none" xmlns="http://www.w3.org/2000/svg">
<path d="M2.76633 10.803C3.50484 11.08 4.24833 11.3362 5.07461 11.2444C5.20707 11.2251 5.37928 11.2177 5.3412 11.0503C5.29649 10.8519 5.1011 10.8104 4.90074 10.8059C2.90708 9.1129 1.94667 7.02735 2.13379 4.58334C2.20499 3.66202 2.26129 2.69182 2.91536 1.87419C3.38893 1.2817 3.72342 1.61053 4.03969 1.97936C4.91067 2.99399 5.90088 3.90938 7.05502 4.6574C10.1631 6.67334 13.503 8.24639 17.3297 8.87887C18.2122 9.02551 19.0882 9.15734 19.989 9.18993C20.5421 9.20918 20.6795 8.99441 20.5934 8.58115C20.0734 6.09122 21.0819 3.98789 22.8934 2.23265C24.3042 0.865482 26.1356 0.0700686 28.323 0.00637621C30.8664 -0.0662035 33.1134 0.471479 34.9696 2.10082C35.324 2.41187 35.7661 2.22968 36.19 2.12304C37.6289 1.76162 39 1.25801 40.3661 0.644781C39.9753 2.25486 38.8477 3.3954 37.4799 4.37893C37.6637 4.63814 37.8608 4.58334 38.129 4.51965C38.9917 4.31376 39.8345 4.04862 40.6857 3.80866C40.8546 3.76126 41.1294 3.6872 41.4788 3.6087C41.3381 3.93901 41.1874 4.18193 41.0947 4.32116C41.0947 4.32116 40.1011 5.7298 37.9535 7.11474C37.5263 7.39025 37.4186 7.66427 37.4335 8.08642C37.566 11.7258 36.6354 15.1518 34.7775 18.3779C32.8236 21.7714 30.1742 24.6153 26.4667 26.5898C25.5262 27.0904 24.6602 27.7081 23.6269 28.0621C21.1696 28.902 18.7123 29.6485 16.0414 29.8855C10.9182 30.3388 6.1592 29.4411 1.65524 27.286C1.32738 27.129 1.0227 26.932 0.474609 26.6209C5.04977 26.7898 9.07021 25.9736 12.7976 23.5163C12.0872 23.4348 10.0919 23.1519 8.3764 22.1535C7.43753 21.607 6.76856 20.9552 6.72385 20.9093C6.29829 20.4901 6.04991 20.142 5.80815 19.8058C5.72702 19.6918 5.74854 19.8532 5.21535 18.6845C5.12759 18.492 5.07626 18.3661 5.1425 18.2787C5.2435 18.1454 5.44552 18.1587 5.59951 18.2061C6.52349 18.489 7.41434 18.2935 8.43601 18.0817C8.14458 17.9706 7.76042 17.8136 7.32162 17.6018C6.84804 17.3722 6.01845 16.9352 5.09448 16.239C4.30794 15.6451 3.80952 15.2703 3.30614 14.6023C2.81766 13.9535 2.48317 13.4173 2.22983 12.2516C2.13048 11.7909 2.08742 11.314 2.10729 10.8222C2.11557 10.6193 2.17353 10.4875 2.43847 10.5289L2.76798 10.8L2.76633 10.803Z" fill="#10B9C3"/>
</svg>
