<svg width="229" height="62" viewBox="0 0 229 62" fill="none" xmlns="http://www.w3.org/2000/svg">
<path d="M104.177 0.5V0H104.044L103.928 0.0661003L104.177 0.5ZM0.658126 59.3689C0.585706 59.6353 0.74302 59.9101 1.0095 59.9825L5.35199 61.1626C5.61847 61.2351 5.8932 61.0778 5.96562 60.8113C6.03804 60.5448 5.88072 60.2701 5.61425 60.1976L1.75425 59.1486L2.80327 55.2886C2.87569 55.0222 2.71838 54.7474 2.4519 54.675C2.18542 54.6026 1.91069 54.7599 1.83827 55.0264L0.658126 59.3689ZM228.766 0H104.177V1H228.766V0ZM103.928 0.0661003L0.892168 59.0661L1.38908 59.9339L104.425 0.9339L103.928 0.0661003Z" fill="white"/>
</svg>
