<svg width="50" height="50" viewBox="0 0 50 50" fill="none" xmlns="http://www.w3.org/2000/svg">
<path d="M6.25195 4.75012C5.42353 4.75012 4.75195 5.42169 4.75195 6.25012C4.75195 7.07855 5.42353 7.75012 6.25195 7.75012L6.25195 4.75012ZM11.4603 6.25012L12.9155 5.88632C12.7486 5.21857 12.1486 4.75012 11.4603 4.75012L11.4603 6.25012ZM39.5853 34.8335C40.4137 34.8335 41.0853 34.1619 41.0853 33.3335C41.0853 32.505 40.4137 31.8335 39.5853 31.8335V34.8335ZM43.7519 10.4168L45.2072 10.7806C45.3192 10.3325 45.2185 9.85774 44.9343 9.49367C44.65 9.1296 44.2139 8.91679 43.7519 8.91679V10.4168ZM39.5853 27.0835V28.5835C40.2736 28.5835 40.8736 28.115 41.0405 27.4473L39.5853 27.0835ZM6.25195 7.75012L11.4603 7.75012L11.4603 4.75012L6.25195 4.75012L6.25195 7.75012ZM10.0051 6.61393L11.0467 10.7806L13.9572 10.053L12.9155 5.88632L10.0051 6.61393ZM11.0467 10.7806L15.2134 27.4473L18.1238 26.7196L13.9572 10.053L11.0467 10.7806ZM16.6686 25.5835H15.627V28.5835H16.6686V25.5835ZM15.627 34.8335H39.5853V31.8335H15.627V34.8335ZM11.002 30.2085C11.002 32.7628 13.0726 34.8335 15.627 34.8335V31.8335C14.7295 31.8335 14.002 31.1059 14.002 30.2085H11.002ZM15.627 25.5835C13.0726 25.5835 11.002 27.6541 11.002 30.2085H14.002C14.002 29.311 14.7295 28.5835 15.627 28.5835V25.5835ZM12.502 11.9168H43.7519V8.91679H12.502V11.9168ZM42.2967 10.053L38.1301 26.7196L41.0405 27.4473L45.2072 10.7806L42.2967 10.053ZM39.5853 25.5835H16.6686V28.5835H39.5853V25.5835ZM38.0853 41.6668C38.0853 41.9889 37.8241 42.2501 37.5019 42.2501V45.2501C39.481 45.2501 41.0853 43.6458 41.0853 41.6668H38.0853ZM37.5019 42.2501C37.1798 42.2501 36.9186 41.9889 36.9186 41.6668H33.9186C33.9186 43.6458 35.5229 45.2501 37.5019 45.2501V42.2501ZM36.9186 41.6668C36.9186 41.3446 37.1798 41.0835 37.5019 41.0835V38.0835C35.5229 38.0835 33.9186 39.6878 33.9186 41.6668H36.9186ZM37.5019 41.0835C37.8241 41.0835 38.0853 41.3446 38.0853 41.6668H41.0853C41.0853 39.6878 39.481 38.0835 37.5019 38.0835V41.0835ZM17.252 41.6668C17.252 41.9889 16.9908 42.2501 16.6686 42.2501V45.2501C18.6476 45.2501 20.252 43.6458 20.252 41.6668H17.252ZM16.6686 42.2501C16.3465 42.2501 16.0853 41.9889 16.0853 41.6668H13.0853C13.0853 43.6458 14.6896 45.2501 16.6686 45.2501V42.2501ZM16.0853 41.6668C16.0853 41.3446 16.3465 41.0835 16.6686 41.0835V38.0835C14.6896 38.0835 13.0853 39.6878 13.0853 41.6668H16.0853ZM16.6686 41.0835C16.9908 41.0835 17.252 41.3446 17.252 41.6668H20.252C20.252 39.6878 18.6476 38.0835 16.6686 38.0835V41.0835Z" fill="black"/>
</svg>
