<svg width="19" height="19" viewBox="0 0 19 19" fill="none" xmlns="http://www.w3.org/2000/svg">
<path d="M12.4767 9.45205C12.4767 11.1226 11.1226 12.4767 9.45205 12.4767C7.78154 12.4767 6.4274 11.1226 6.4274 9.45205C6.4274 7.78154 7.78154 6.4274 9.45205 6.4274C11.1217 6.42921 12.4749 7.78244 12.4767 9.45205ZM18.9041 5.29315V13.611C18.9008 16.5328 16.5328 18.9008 13.611 18.9041H5.29315C2.37133 18.9008 0.00332712 16.5328 0 13.611V5.29315C0.00332712 2.37133 2.37133 0.00332712 5.29315 0H13.611C16.5328 0.00332712 18.9008 2.37133 18.9041 5.29315ZM13.989 9.45205C13.989 6.94643 11.9577 4.91507 9.45205 4.91507C6.94643 4.91507 4.91507 6.94643 4.91507 9.45205C4.91507 11.9577 6.94643 13.989 9.45205 13.989C11.9565 13.9863 13.9863 11.9565 13.989 9.45205ZM15.5014 4.53699C15.5014 3.91058 14.9935 3.40274 14.3671 3.40274C13.7407 3.40274 13.2329 3.91058 13.2329 4.53699C13.2329 5.16339 13.7407 5.67123 14.3671 5.67123C14.9935 5.67123 15.5014 5.16339 15.5014 4.53699Z" fill="#10B9C3"/>
</svg>
