<svg width="191" height="71" viewBox="0 0 191 71" fill="none" xmlns="http://www.w3.org/2000/svg">
<path d="M98.84 2.24118C90.2016 3.52714 81.5049 5.30118 73.0215 7.66887C64.5295 10.0729 56.0831 13.0256 47.9907 16.9943C40.8226 20.4696 21.2166 31.3354 26.2546 43.2898C31.5315 54.5243 54.371 57.0529 64.2878 57.7245C76.6859 58.4825 89.1792 57.8145 101.513 56.1581C114.497 54.4152 127.456 51.5785 140.044 47.3243C141.412 46.8414 143.697 46.0418 145.058 45.507C151.697 42.9541 158.272 39.9997 164.419 35.9998C167.471 33.9939 170.447 31.737 173.021 28.9002C176.138 25.5079 179.033 20.3433 176.765 15.2548C172.825 6.63906 158.649 3.34541 151.113 1.95214C142.479 0.425599 133.699 -0.0157477 124.98 0.0898292C116.279 0.22656 107.483 1.00541 98.84 2.23945V2.24118ZM98.84 2.24118C105.739 1.25118 112.801 0.517329 119.739 0.212714C130.206 -0.271902 140.75 0.00675224 151.14 1.72541C158.855 3.0806 173.064 6.26522 177.126 15.0229C178.505 18.0327 178.157 21.5029 176.745 24.395C170.872 36.2647 150.963 44.4408 140.25 48.2156C128.475 52.2881 116.363 55.0262 104.214 56.8314C92.0587 58.5691 79.7587 59.3912 67.5256 58.8201C56.3618 58.2316 35.4533 56.011 27.4419 46.1699C25.518 43.7693 24.4899 40.5033 25.2535 37.175C27.5031 27.4845 40.7202 20.3035 47.921 16.7814C57.6842 12.1239 67.874 8.81983 78.1391 6.28079C84.9389 4.58118 91.9449 3.2606 98.84 2.24118Z" fill="black"/>
<path d="M13.1773 53.6911C12.7556 53.1761 12.8765 52.3773 13.4468 51.9103C13.9698 51.482 14.6867 51.4834 15.1283 51.884C22.8926 44.2153 22.8168 42.2359 13.4541 29.6934C12.8879 30.0991 12.1346 30.0473 11.7304 29.5537C11.3087 29.0388 11.4296 28.24 11.9999 27.7729C12.5702 27.3059 13.3772 27.3449 13.7988 27.8599C14.1856 28.3321 14.1123 29.0384 13.6573 29.5136C24.0586 41.112 26.0176 41.6295 34.9507 35.6292C34.7008 35.1251 34.8552 34.4638 35.3546 34.0548C35.9249 33.5878 36.7319 33.6268 37.1535 34.1418C37.5752 34.6567 37.4544 35.4555 36.8841 35.9225C36.3463 36.3629 35.603 36.3475 35.1639 35.9137C27.4556 43.5543 27.6613 45.5477 37.2594 58.3655C37.8164 58.0029 38.5343 58.0658 38.9255 58.5434C39.3471 59.0584 39.2263 59.8572 38.656 60.3242C38.0857 60.7912 37.2787 60.7522 36.857 60.2373C36.4484 59.7383 36.5529 58.9797 37.0747 58.5078C26.3457 46.5091 24.472 45.9752 15.3336 52.1348C15.6393 52.6467 15.4993 53.3497 14.9762 53.778C14.4059 54.245 13.599 54.206 13.1773 53.6911Z" fill="#BF9BD2"/>
<path d="M5.58143 23.282V20.528H14.9054V23.282H5.58143ZM12.5294 12.5L18.7574 26H15.1394L9.79343 13.922H10.8374L5.50943 26H1.87343L8.11943 12.5H12.5294ZM19.8979 12.14H23.2279V18.854L22.7779 19.736V22.148L23.2279 23.012V26H19.8979V12.14ZM22.1119 20.87C22.2919 19.766 22.6339 18.812 23.1379 18.008C23.6419 17.204 24.2779 16.58 25.0459 16.136C25.8139 15.68 26.6779 15.452 27.6379 15.452C28.6459 15.452 29.5279 15.68 30.2839 16.136C31.0519 16.592 31.6519 17.228 32.0839 18.044C32.5159 18.848 32.7319 19.79 32.7319 20.87C32.7319 21.95 32.5159 22.898 32.0839 23.714C31.6519 24.518 31.0519 25.148 30.2839 25.604C29.5279 26.06 28.6459 26.288 27.6379 26.288C26.6779 26.288 25.8139 26.066 25.0459 25.622C24.2779 25.166 23.6419 24.536 23.1379 23.732C22.6339 22.916 22.2919 21.962 22.1119 20.87ZM29.3479 20.87C29.3479 20.318 29.2339 19.832 29.0059 19.412C28.7779 18.98 28.4599 18.644 28.0519 18.404C27.6559 18.152 27.1939 18.026 26.6659 18.026C26.1379 18.026 25.6339 18.152 25.1539 18.404C24.6859 18.644 24.2719 18.98 23.9119 19.412C23.5639 19.832 23.2939 20.318 23.1019 20.87C23.2939 21.422 23.5639 21.914 23.9119 22.346C24.2719 22.766 24.6859 23.102 25.1539 23.354C25.6339 23.594 26.1379 23.714 26.6659 23.714C27.1939 23.714 27.6559 23.594 28.0519 23.354C28.4599 23.102 28.7779 22.766 29.0059 22.346C29.2339 21.914 29.3479 21.422 29.3479 20.87ZM45.9734 22.706C45.9734 23.474 45.7454 24.128 45.2894 24.668C44.8454 25.196 44.1914 25.598 43.3274 25.874C42.4634 26.15 41.4134 26.288 40.1774 26.288C38.9174 26.288 37.8134 26.132 36.8654 25.82C35.9174 25.508 35.1794 25.07 34.6514 24.506C34.1234 23.942 33.8414 23.288 33.8054 22.544H37.2074C37.2794 22.844 37.4474 23.108 37.7114 23.336C37.9874 23.564 38.3414 23.738 38.7734 23.858C39.2054 23.966 39.7154 24.02 40.3034 24.02C41.0954 24.02 41.6954 23.936 42.1034 23.768C42.5114 23.6 42.7154 23.348 42.7154 23.012C42.7154 22.76 42.5654 22.568 42.2654 22.436C41.9774 22.304 41.4554 22.208 40.6994 22.148L38.8274 22.004C37.6514 21.92 36.7154 21.734 36.0194 21.446C35.3234 21.158 34.8254 20.792 34.5254 20.348C34.2374 19.904 34.0934 19.406 34.0934 18.854C34.0934 18.098 34.3274 17.468 34.7954 16.964C35.2754 16.46 35.9354 16.082 36.7754 15.83C37.6154 15.578 38.5994 15.452 39.7274 15.452C40.8554 15.452 41.8574 15.602 42.7334 15.902C43.6214 16.202 44.3294 16.616 44.8574 17.144C45.3974 17.672 45.7034 18.29 45.7754 18.998H42.3734C42.3254 18.758 42.1934 18.536 41.9774 18.332C41.7734 18.128 41.4734 17.966 41.0774 17.846C40.6934 17.714 40.1894 17.648 39.5654 17.648C38.8574 17.648 38.3174 17.726 37.9454 17.882C37.5734 18.038 37.3874 18.266 37.3874 18.566C37.3874 18.794 37.5014 18.974 37.7294 19.106C37.9574 19.238 38.3894 19.334 39.0254 19.394L41.4554 19.574C42.6074 19.67 43.5074 19.856 44.1554 20.132C44.8154 20.396 45.2834 20.744 45.5594 21.176C45.8354 21.608 45.9734 22.118 45.9734 22.706ZM53.6122 26.288C52.3162 26.288 51.1822 26.06 50.2102 25.604C49.2382 25.148 48.4822 24.512 47.9422 23.696C47.4022 22.88 47.1322 21.938 47.1322 20.87C47.1322 19.79 47.4022 18.848 47.9422 18.044C48.4822 17.228 49.2382 16.592 50.2102 16.136C51.1942 15.68 52.3282 15.452 53.6122 15.452C54.9082 15.452 56.0422 15.68 57.0142 16.136C57.9982 16.592 58.7602 17.228 59.3002 18.044C59.8402 18.848 60.1102 19.79 60.1102 20.87C60.1102 21.95 59.8402 22.898 59.3002 23.714C58.7602 24.518 57.9982 25.148 57.0142 25.604C56.0422 26.06 54.9082 26.288 53.6122 26.288ZM53.6122 23.768C54.2722 23.768 54.8302 23.654 55.2862 23.426C55.7542 23.186 56.1082 22.85 56.3482 22.418C56.6002 21.986 56.7262 21.47 56.7262 20.87C56.7262 20.27 56.6002 19.754 56.3482 19.322C56.1082 18.89 55.7542 18.56 55.2862 18.332C54.8302 18.092 54.2722 17.972 53.6122 17.972C52.9762 17.972 52.4242 18.092 51.9562 18.332C51.4882 18.56 51.1282 18.89 50.8762 19.322C50.6242 19.754 50.4982 20.27 50.4982 20.87C50.4982 21.47 50.6242 21.986 50.8762 22.418C51.1282 22.85 51.4882 23.186 51.9562 23.426C52.4242 23.654 52.9762 23.768 53.6122 23.768ZM66.143 26.27C65.183 26.27 64.367 26.078 63.695 25.694C63.023 25.298 62.507 24.74 62.147 24.02C61.799 23.3 61.625 22.448 61.625 21.464V15.74H64.973V20.978C64.973 21.806 65.171 22.442 65.567 22.886C65.963 23.33 66.533 23.552 67.277 23.552C67.829 23.552 68.297 23.438 68.681 23.21C69.065 22.982 69.359 22.652 69.563 22.22C69.779 21.788 69.887 21.278 69.887 20.69L70.931 21.248C70.811 22.328 70.523 23.246 70.067 24.002C69.623 24.746 69.059 25.31 68.375 25.694C67.703 26.078 66.959 26.27 66.143 26.27ZM70.535 26L69.887 22.004V15.74H73.235V22.508L73.883 26H70.535ZM75.0642 15.74H78.4482L79.0602 19.43V26H75.7122V19.16L75.0642 15.74ZM83.9562 15.596V18.476C83.6322 18.404 83.3082 18.35 82.9842 18.314C82.6722 18.278 82.3842 18.26 82.1202 18.26C81.5442 18.26 81.0222 18.38 80.5542 18.62C80.0982 18.848 79.7322 19.214 79.4562 19.718C79.1922 20.222 79.0602 20.876 79.0602 21.68L78.3942 20.852C78.4782 20.12 78.6162 19.43 78.8082 18.782C79.0002 18.134 79.2642 17.564 79.6002 17.072C79.9362 16.568 80.3502 16.172 80.8422 15.884C81.3462 15.596 81.9522 15.452 82.6602 15.452C82.8642 15.452 83.0802 15.464 83.3082 15.488C83.5362 15.512 83.7522 15.548 83.9562 15.596ZM94.4029 26L93.9529 22.13L94.5649 20.906L93.9709 19.358L94.7989 12.14H98.2729L97.2469 20.618L97.8589 26H94.4029ZM95.1769 20.87C94.9969 21.962 94.6549 22.916 94.1509 23.732C93.6469 24.536 93.0109 25.166 92.2429 25.622C91.4749 26.066 90.6109 26.288 89.6509 26.288C88.6429 26.288 87.7549 26.06 86.9869 25.604C86.2309 25.148 85.6369 24.518 85.2049 23.714C84.7729 22.898 84.5569 21.95 84.5569 20.87C84.5569 19.79 84.7729 18.848 85.2049 18.044C85.6369 17.228 86.2309 16.592 86.9869 16.136C87.7549 15.68 88.6429 15.452 89.6509 15.452C90.6109 15.452 91.4749 15.68 92.2429 16.136C93.0109 16.58 93.6469 17.204 94.1509 18.008C94.6669 18.812 95.0089 19.766 95.1769 20.87ZM87.9409 20.87C87.9409 21.422 88.0549 21.914 88.2829 22.346C88.5109 22.766 88.8229 23.102 89.2189 23.354C89.6269 23.594 90.0949 23.714 90.6229 23.714C91.1509 23.714 91.6489 23.594 92.1169 23.354C92.5969 23.102 93.0169 22.766 93.3769 22.346C93.7369 21.914 94.0069 21.422 94.1869 20.87C94.0069 20.318 93.7369 19.832 93.3769 19.412C93.0169 18.98 92.5969 18.644 92.1169 18.404C91.6489 18.152 91.1509 18.026 90.6229 18.026C90.0949 18.026 89.6269 18.152 89.2189 18.404C88.8229 18.644 88.5109 18.98 88.2829 19.412C88.0549 19.832 87.9409 20.318 87.9409 20.87ZM103.535 24.308C103.493 24.47 103.496 24.596 103.544 24.686C103.592 24.77 103.673 24.83 103.787 24.866L104.219 24.992C104.345 25.04 104.438 25.1 104.498 25.172C104.564 25.238 104.597 25.328 104.597 25.442C104.597 25.61 104.534 25.745 104.408 25.847C104.288 25.949 104.114 26 103.886 26H99.3773C99.1373 26 98.9753 25.955 98.8913 25.865C98.8133 25.775 98.7743 25.661 98.7743 25.523C98.7743 25.379 98.8193 25.262 98.9093 25.172C98.9993 25.076 99.1073 25.007 99.2333 24.965L99.7013 24.848C99.8393 24.806 99.9443 24.743 100.016 24.659C100.094 24.569 100.163 24.425 100.223 24.227C100.283 24.023 100.364 23.732 100.466 23.354C100.574 22.976 100.694 22.541 100.826 22.049C100.958 21.557 101.096 21.038 101.24 20.492C101.39 19.94 101.537 19.391 101.681 18.845C101.825 18.293 101.957 17.774 102.077 17.288C102.203 16.796 102.314 16.361 102.41 15.983C102.506 15.599 102.575 15.308 102.617 15.11C102.653 14.954 102.653 14.831 102.617 14.741C102.581 14.651 102.494 14.585 102.356 14.543L101.924 14.408C101.792 14.354 101.696 14.294 101.636 14.228C101.576 14.156 101.546 14.066 101.546 13.958C101.546 13.784 101.606 13.649 101.726 13.553C101.852 13.451 102.038 13.4 102.284 13.4H106.766C107.006 13.4 107.165 13.445 107.243 13.535C107.321 13.619 107.36 13.73 107.36 13.868C107.36 14.012 107.315 14.132 107.225 14.228C107.141 14.318 107.03 14.387 106.892 14.435L106.415 14.561C106.277 14.609 106.175 14.672 106.109 14.75C106.043 14.828 105.977 14.966 105.911 15.164C105.845 15.374 105.755 15.683 105.641 16.091C105.527 16.499 105.398 16.967 105.254 17.495C105.116 18.023 104.969 18.578 104.813 19.16C104.663 19.742 104.516 20.315 104.372 20.879C104.228 21.443 104.096 21.965 103.976 22.445C103.856 22.925 103.757 23.33 103.679 23.66C103.601 23.99 103.553 24.206 103.535 24.308ZM106.784 19.862C106.694 19.814 106.646 19.724 106.64 19.592C106.634 19.454 106.685 19.283 106.793 19.079C107.063 18.575 107.468 18.17 108.008 17.864C108.548 17.552 109.172 17.396 109.88 17.396C110.318 17.396 110.657 17.486 110.897 17.666C111.137 17.846 111.257 18.107 111.257 18.449C111.257 18.653 111.212 18.884 111.122 19.142C111.032 19.394 110.921 19.67 110.789 19.97C110.657 20.264 110.522 20.579 110.384 20.915C110.246 21.251 110.135 21.602 110.051 21.968L109.844 21.788C110.168 20.96 110.537 20.264 110.951 19.7C111.365 19.136 111.797 18.686 112.247 18.35C112.703 18.008 113.153 17.765 113.597 17.621C114.047 17.471 114.467 17.396 114.857 17.396C115.409 17.396 115.814 17.516 116.072 17.756C116.33 17.99 116.465 18.32 116.477 18.746C116.489 19.172 116.396 19.664 116.198 20.222L115.199 23.093C115.049 23.525 114.995 23.828 115.037 24.002C115.079 24.17 115.166 24.254 115.298 24.254C115.382 24.254 115.463 24.23 115.541 24.182C115.625 24.134 115.73 24.056 115.856 23.948C115.982 23.84 116.084 23.777 116.162 23.759C116.246 23.735 116.327 23.741 116.405 23.777C116.501 23.831 116.552 23.924 116.558 24.056C116.564 24.188 116.513 24.359 116.405 24.569C116.141 25.067 115.745 25.472 115.217 25.784C114.689 26.09 114.071 26.243 113.363 26.243C112.841 26.243 112.454 26.141 112.202 25.937C111.956 25.727 111.827 25.43 111.815 25.046C111.803 24.662 111.884 24.215 112.058 23.705L113.066 20.825C113.24 20.357 113.303 20.018 113.255 19.808C113.213 19.592 113.057 19.484 112.787 19.484C112.601 19.484 112.397 19.547 112.175 19.673C111.959 19.793 111.737 19.973 111.509 20.213C111.287 20.447 111.071 20.738 110.861 21.086C110.657 21.428 110.471 21.821 110.303 22.265C110.189 22.577 110.093 22.847 110.015 23.075C109.937 23.303 109.877 23.498 109.835 23.66C109.799 23.822 109.781 23.963 109.781 24.083C109.781 24.263 109.811 24.425 109.871 24.569C109.937 24.713 109.97 24.881 109.97 25.073C109.97 25.427 109.751 25.712 109.313 25.928C108.881 26.138 108.281 26.243 107.513 26.243C106.955 26.243 106.616 26.063 106.496 25.703C106.376 25.337 106.436 24.824 106.676 24.164L107.999 20.546C108.161 20.114 108.218 19.814 108.17 19.646C108.122 19.478 108.032 19.394 107.9 19.394C107.822 19.394 107.741 19.415 107.657 19.457C107.573 19.499 107.465 19.58 107.333 19.7C107.207 19.802 107.102 19.865 107.018 19.889C106.94 19.907 106.862 19.898 106.784 19.862ZM118.263 19.862C118.173 19.814 118.125 19.724 118.119 19.592C118.113 19.454 118.164 19.283 118.272 19.079C118.542 18.575 118.947 18.17 119.487 17.864C120.027 17.552 120.651 17.396 121.359 17.396C121.797 17.396 122.136 17.486 122.376 17.666C122.616 17.846 122.736 18.107 122.736 18.449C122.736 18.653 122.691 18.884 122.601 19.142C122.511 19.394 122.4 19.67 122.268 19.97C122.136 20.264 122.001 20.579 121.863 20.915C121.725 21.251 121.614 21.602 121.53 21.968L121.323 21.788C121.647 20.96 122.016 20.264 122.43 19.7C122.844 19.136 123.276 18.686 123.726 18.35C124.182 18.008 124.632 17.765 125.076 17.621C125.526 17.471 125.946 17.396 126.336 17.396C126.888 17.396 127.293 17.516 127.551 17.756C127.809 17.99 127.944 18.32 127.956 18.746C127.968 19.172 127.875 19.664 127.677 20.222L126.678 23.093C126.528 23.525 126.474 23.828 126.516 24.002C126.558 24.17 126.645 24.254 126.777 24.254C126.861 24.254 126.942 24.23 127.02 24.182C127.104 24.134 127.209 24.056 127.335 23.948C127.461 23.84 127.563 23.777 127.641 23.759C127.725 23.735 127.806 23.741 127.884 23.777C127.98 23.831 128.031 23.924 128.037 24.056C128.043 24.188 127.992 24.359 127.884 24.569C127.62 25.067 127.224 25.472 126.696 25.784C126.168 26.09 125.55 26.243 124.842 26.243C124.32 26.243 123.933 26.141 123.681 25.937C123.435 25.727 123.306 25.43 123.294 25.046C123.282 24.662 123.363 24.215 123.537 23.705L124.545 20.825C124.719 20.357 124.782 20.018 124.734 19.808C124.692 19.592 124.536 19.484 124.266 19.484C124.08 19.484 123.876 19.547 123.654 19.673C123.438 19.793 123.216 19.973 122.988 20.213C122.766 20.447 122.55 20.738 122.34 21.086C122.136 21.428 121.95 21.821 121.782 22.265C121.668 22.577 121.572 22.847 121.494 23.075C121.416 23.303 121.356 23.498 121.314 23.66C121.278 23.822 121.26 23.963 121.26 24.083C121.26 24.263 121.29 24.425 121.35 24.569C121.416 24.713 121.449 24.881 121.449 25.073C121.449 25.427 121.23 25.712 120.792 25.928C120.36 26.138 119.76 26.243 118.992 26.243C118.434 26.243 118.095 26.063 117.975 25.703C117.855 25.337 117.915 24.824 118.155 24.164L119.478 20.546C119.64 20.114 119.697 19.814 119.649 19.646C119.601 19.478 119.511 19.394 119.379 19.394C119.301 19.394 119.22 19.415 119.136 19.457C119.052 19.499 118.944 19.58 118.812 19.7C118.686 19.802 118.581 19.865 118.497 19.889C118.419 19.907 118.341 19.898 118.263 19.862ZM134.691 17.378C135.627 17.384 136.416 17.57 137.058 17.936C137.7 18.302 138.156 18.818 138.426 19.484C138.702 20.15 138.756 20.936 138.588 21.842C138.462 22.52 138.24 23.132 137.922 23.678C137.61 24.218 137.214 24.68 136.734 25.064C136.26 25.448 135.72 25.742 135.114 25.946C134.508 26.15 133.851 26.249 133.143 26.243C132.213 26.231 131.427 26.045 130.785 25.685C130.149 25.319 129.696 24.803 129.426 24.137C129.156 23.465 129.102 22.676 129.264 21.77C129.39 21.098 129.609 20.489 129.921 19.943C130.239 19.397 130.635 18.932 131.109 18.548C131.583 18.164 132.12 17.873 132.72 17.675C133.326 17.471 133.983 17.372 134.691 17.378ZM133.053 25.118C133.227 25.142 133.398 25.118 133.566 25.046C133.734 24.974 133.896 24.854 134.052 24.686C134.214 24.512 134.367 24.293 134.511 24.029C134.661 23.759 134.799 23.444 134.925 23.084C135.051 22.718 135.165 22.304 135.267 21.842C135.435 21.134 135.525 20.54 135.537 20.06C135.549 19.58 135.492 19.211 135.366 18.953C135.24 18.695 135.045 18.545 134.781 18.503C134.607 18.473 134.436 18.494 134.268 18.566C134.106 18.638 133.944 18.761 133.782 18.935C133.626 19.109 133.476 19.328 133.332 19.592C133.188 19.856 133.053 20.171 132.927 20.537C132.801 20.903 132.687 21.314 132.585 21.77C132.417 22.478 132.327 23.072 132.315 23.552C132.303 24.032 132.36 24.404 132.486 24.668C132.612 24.926 132.801 25.076 133.053 25.118ZM140.925 24.857C140.925 24.629 140.928 24.38 140.934 24.11C140.94 23.834 140.946 23.543 140.952 23.237C140.958 22.925 140.964 22.607 140.97 22.283C140.982 21.959 140.988 21.638 140.988 21.32C140.988 20.996 140.985 20.684 140.979 20.384C140.979 20.138 140.952 19.97 140.898 19.88C140.844 19.784 140.766 19.736 140.664 19.736C140.586 19.736 140.511 19.766 140.439 19.826C140.367 19.886 140.295 19.985 140.223 20.123C140.133 20.285 140.049 20.396 139.971 20.456C139.893 20.51 139.806 20.537 139.71 20.537C139.59 20.531 139.494 20.483 139.422 20.393C139.356 20.303 139.344 20.159 139.386 19.961C139.482 19.523 139.686 19.118 139.998 18.746C140.316 18.374 140.709 18.074 141.177 17.846C141.651 17.612 142.161 17.495 142.707 17.495C143.211 17.495 143.556 17.648 143.742 17.954C143.928 18.26 144.03 18.734 144.048 19.376C144.06 19.724 144.066 20.072 144.066 20.42C144.066 20.768 144.063 21.104 144.057 21.428C144.057 21.752 144.054 22.055 144.048 22.337C144.042 22.619 144.036 22.874 144.03 23.102C144.03 23.33 144.027 23.516 144.021 23.66C144.033 23.99 144.069 24.212 144.129 24.326C144.189 24.44 144.279 24.497 144.399 24.497C144.525 24.497 144.672 24.422 144.84 24.272C145.014 24.116 145.188 23.909 145.362 23.651C145.542 23.393 145.71 23.108 145.866 22.796C146.028 22.478 146.16 22.154 146.262 21.824C146.37 21.494 146.43 21.179 146.442 20.879C146.466 20.645 146.448 20.471 146.388 20.357C146.334 20.243 146.232 20.111 146.082 19.961C145.92 19.805 145.797 19.64 145.713 19.466C145.635 19.286 145.605 19.07 145.623 18.818C145.653 18.404 145.815 18.065 146.109 17.801C146.409 17.531 146.79 17.396 147.252 17.396C147.726 17.396 148.086 17.54 148.332 17.828C148.578 18.11 148.683 18.539 148.647 19.115C148.605 19.763 148.458 20.423 148.206 21.095C147.96 21.767 147.627 22.412 147.207 23.03C146.793 23.642 146.319 24.191 145.785 24.677C145.257 25.157 144.69 25.538 144.084 25.82C143.484 26.102 142.869 26.243 142.239 26.243C141.801 26.243 141.474 26.135 141.258 25.919C141.042 25.703 140.931 25.349 140.925 24.857ZM157.126 23.093C157.012 23.543 156.976 23.855 157.018 24.029C157.06 24.197 157.144 24.281 157.27 24.281C157.354 24.281 157.435 24.257 157.513 24.209C157.597 24.161 157.702 24.083 157.828 23.975C157.954 23.867 158.056 23.804 158.134 23.786C158.218 23.762 158.299 23.768 158.377 23.804C158.473 23.858 158.521 23.951 158.521 24.083C158.527 24.215 158.476 24.386 158.368 24.596C158.11 25.088 157.723 25.487 157.207 25.793C156.697 26.093 156.157 26.243 155.587 26.243C155.107 26.243 154.762 26.126 154.552 25.892C154.342 25.652 154.237 25.322 154.237 24.902C154.237 24.758 154.243 24.605 154.255 24.443C154.273 24.275 154.3 24.095 154.336 23.903C154.372 23.711 154.417 23.501 154.471 23.273C154.525 23.039 154.594 22.781 154.678 22.499L154.894 23.057C154.684 23.711 154.375 24.278 153.967 24.758C153.565 25.232 153.103 25.598 152.581 25.856C152.065 26.114 151.516 26.243 150.934 26.243C150.172 26.243 149.584 25.997 149.17 25.505C148.762 25.013 148.615 24.269 148.729 23.273C148.789 22.691 148.939 22.118 149.179 21.554C149.419 20.984 149.737 20.45 150.133 19.952C150.535 19.448 151.006 19.004 151.546 18.62C152.092 18.236 152.704 17.936 153.382 17.72C154.066 17.504 154.807 17.396 155.605 17.396C156.337 17.396 156.943 17.447 157.423 17.549C157.903 17.645 158.257 17.777 158.485 17.945C158.713 18.113 158.812 18.299 158.782 18.503C158.764 18.689 158.701 18.821 158.593 18.899C158.491 18.977 158.386 19.058 158.278 19.142C158.17 19.22 158.089 19.352 158.035 19.538L157.126 23.093ZM151.861 23.228C151.807 23.738 151.834 24.095 151.942 24.299C152.056 24.497 152.209 24.596 152.401 24.596C152.599 24.596 152.806 24.515 153.022 24.353C153.244 24.185 153.466 23.951 153.688 23.651C153.91 23.351 154.12 22.997 154.318 22.589C154.522 22.181 154.702 21.731 154.858 21.239C155.02 20.747 155.146 20.228 155.236 19.682C155.314 19.268 155.317 18.968 155.245 18.782C155.173 18.59 155.032 18.494 154.822 18.494C154.558 18.494 154.294 18.587 154.03 18.773C153.766 18.959 153.514 19.214 153.274 19.538C153.034 19.862 152.815 20.228 152.617 20.636C152.419 21.044 152.254 21.47 152.122 21.914C151.996 22.358 151.909 22.796 151.861 23.228ZM160.989 19.043L160.503 18.899C160.377 18.845 160.284 18.773 160.224 18.683C160.164 18.587 160.134 18.482 160.134 18.368C160.134 18.206 160.2 18.08 160.332 17.99C160.47 17.894 160.65 17.846 160.872 17.846H161.412C161.616 17.846 161.799 17.804 161.961 17.72C162.129 17.63 162.294 17.501 162.456 17.333L163.761 15.956C163.881 15.83 164.001 15.743 164.121 15.695C164.247 15.641 164.382 15.614 164.526 15.614C164.7 15.614 164.829 15.659 164.913 15.749C164.997 15.833 165.039 15.95 165.039 16.1C165.039 16.184 165.027 16.304 165.003 16.46C164.979 16.61 164.937 16.784 164.877 16.982L163.158 22.985C163.02 23.471 162.993 23.807 163.077 23.993C163.161 24.173 163.35 24.263 163.644 24.263C163.854 24.263 164.052 24.212 164.238 24.11C164.43 24.008 164.631 23.84 164.841 23.606C164.943 23.498 165.03 23.426 165.102 23.39C165.174 23.348 165.249 23.327 165.327 23.327C165.429 23.327 165.51 23.363 165.57 23.435C165.63 23.507 165.651 23.609 165.633 23.741C165.591 24.011 165.462 24.293 165.246 24.587C165.036 24.875 164.754 25.145 164.4 25.397C164.046 25.649 163.635 25.853 163.167 26.009C162.705 26.165 162.201 26.243 161.655 26.243C161.115 26.243 160.701 26.135 160.413 25.919C160.131 25.697 159.972 25.367 159.936 24.929C159.9 24.485 159.981 23.924 160.179 23.246L161.133 20.096C161.241 19.742 161.28 19.493 161.25 19.349C161.226 19.199 161.139 19.097 160.989 19.043ZM163.671 19.061L164.04 17.891H166.236C166.518 17.891 166.659 18.026 166.659 18.296C166.659 18.53 166.563 18.716 166.371 18.854C166.179 18.992 165.921 19.061 165.597 19.061H163.671ZM168.199 22.238C168.199 22.238 168.304 22.205 168.514 22.139C168.724 22.073 168.994 21.992 169.324 21.896C169.66 21.794 170.02 21.683 170.404 21.563C170.788 21.443 171.163 21.329 171.529 21.221C171.895 21.107 172.21 21.008 172.474 20.924L172.168 21.275C172.234 21.065 172.285 20.816 172.321 20.528C172.363 20.24 172.387 19.919 172.393 19.565C172.393 19.217 172.333 18.944 172.213 18.746C172.093 18.542 171.925 18.44 171.709 18.44C171.505 18.44 171.301 18.521 171.097 18.683C170.893 18.839 170.701 19.067 170.521 19.367C170.341 19.661 170.188 20.015 170.062 20.429C169.936 20.843 169.849 21.302 169.801 21.806C169.729 22.67 169.84 23.324 170.134 23.768C170.434 24.206 170.896 24.425 171.52 24.425C171.85 24.425 172.159 24.368 172.447 24.254C172.735 24.14 173.002 23.978 173.248 23.768C173.494 23.552 173.707 23.303 173.887 23.021C174.037 22.835 174.163 22.709 174.265 22.643C174.373 22.577 174.487 22.547 174.607 22.553C174.751 22.559 174.865 22.625 174.949 22.751C175.033 22.871 175.039 23.069 174.967 23.345C174.841 23.849 174.583 24.323 174.193 24.767C173.803 25.205 173.278 25.562 172.618 25.838C171.964 26.108 171.172 26.243 170.242 26.243C169.354 26.243 168.634 26.093 168.082 25.793C167.536 25.493 167.149 25.07 166.921 24.524C166.693 23.978 166.609 23.327 166.669 22.571C166.735 21.851 166.918 21.179 167.218 20.555C167.524 19.925 167.926 19.373 168.424 18.899C168.928 18.425 169.504 18.056 170.152 17.792C170.806 17.522 171.508 17.387 172.258 17.387C172.858 17.387 173.35 17.492 173.734 17.702C174.118 17.906 174.409 18.185 174.607 18.539C174.811 18.887 174.937 19.28 174.985 19.718C175.003 19.838 175.033 19.946 175.075 20.042C175.123 20.132 175.189 20.189 175.273 20.213C175.363 20.231 175.429 20.267 175.471 20.321C175.519 20.369 175.543 20.441 175.543 20.537C175.543 20.663 175.492 20.783 175.39 20.897C175.294 21.005 175.108 21.098 174.832 21.176C174.562 21.248 174.217 21.347 173.797 21.473C173.377 21.593 172.921 21.725 172.429 21.869C171.937 22.013 171.448 22.157 170.962 22.301C170.476 22.445 170.029 22.574 169.621 22.688C169.219 22.802 168.895 22.898 168.649 22.976C168.409 23.048 168.289 23.084 168.289 23.084L168.199 22.238ZM33.2979 34.5H36.6999V48H33.2979V34.5ZM38.5017 37.74H41.8317L42.4977 41.736V48H39.1497V41.232L38.5017 37.74ZM46.3317 37.452C47.3157 37.452 48.1497 37.65 48.8337 38.046C49.5297 38.43 50.0577 38.982 50.4177 39.702C50.7897 40.422 50.9757 41.28 50.9757 42.276V48H47.6277V42.78C47.6277 41.928 47.4177 41.286 46.9977 40.854C46.5777 40.41 45.9777 40.188 45.1977 40.188C44.6457 40.188 44.1657 40.308 43.7577 40.548C43.3617 40.776 43.0497 41.106 42.8217 41.538C42.6057 41.958 42.4977 42.462 42.4977 43.05L41.4357 42.492C41.5677 41.4 41.8617 40.482 42.3177 39.738C42.7857 38.994 43.3617 38.43 44.0457 38.046C44.7417 37.65 45.5037 37.452 46.3317 37.452ZM62.3755 48L61.9255 44.13L62.5375 42.906L61.9435 41.358L62.7715 34.14H66.2455L65.2195 42.618L65.8315 48H62.3755ZM63.1495 42.87C62.9695 43.962 62.6275 44.916 62.1235 45.732C61.6195 46.536 60.9835 47.166 60.2155 47.622C59.4475 48.066 58.5835 48.288 57.6235 48.288C56.6155 48.288 55.7275 48.06 54.9595 47.604C54.2035 47.148 53.6095 46.518 53.1775 45.714C52.7455 44.898 52.5295 43.95 52.5295 42.87C52.5295 41.79 52.7455 40.848 53.1775 40.044C53.6095 39.228 54.2035 38.592 54.9595 38.136C55.7275 37.68 56.6155 37.452 57.6235 37.452C58.5835 37.452 59.4475 37.68 60.2155 38.136C60.9835 38.58 61.6195 39.204 62.1235 40.008C62.6395 40.812 62.9815 41.766 63.1495 42.87ZM55.9135 42.87C55.9135 43.422 56.0275 43.914 56.2555 44.346C56.4835 44.766 56.7955 45.102 57.1915 45.354C57.5995 45.594 58.0675 45.714 58.5955 45.714C59.1235 45.714 59.6215 45.594 60.0895 45.354C60.5695 45.102 60.9895 44.766 61.3495 44.346C61.7095 43.914 61.9795 43.422 62.1595 42.87C61.9795 42.318 61.7095 41.832 61.3495 41.412C60.9895 40.98 60.5695 40.644 60.0895 40.404C59.6215 40.152 59.1235 40.026 58.5955 40.026C58.0675 40.026 57.5995 40.152 57.1915 40.404C56.7955 40.644 56.4835 40.98 56.2555 41.412C56.0275 41.832 55.9135 42.318 55.9135 42.87ZM72.102 48.27C71.142 48.27 70.326 48.078 69.654 47.694C68.982 47.298 68.466 46.74 68.106 46.02C67.758 45.3 67.584 44.448 67.584 43.464V37.74H70.932V42.978C70.932 43.806 71.13 44.442 71.526 44.886C71.922 45.33 72.492 45.552 73.236 45.552C73.788 45.552 74.256 45.438 74.64 45.21C75.024 44.982 75.318 44.652 75.522 44.22C75.738 43.788 75.846 43.278 75.846 42.69L76.89 43.248C76.77 44.328 76.482 45.246 76.026 46.002C75.582 46.746 75.018 47.31 74.334 47.694C73.662 48.078 72.918 48.27 72.102 48.27ZM76.494 48L75.846 44.004V37.74H79.194V44.508L79.842 48H76.494ZM93.0652 44.706C93.0652 45.474 92.8372 46.128 92.3812 46.668C91.9372 47.196 91.2832 47.598 90.4192 47.874C89.5552 48.15 88.5052 48.288 87.2692 48.288C86.0092 48.288 84.9052 48.132 83.9572 47.82C83.0092 47.508 82.2712 47.07 81.7432 46.506C81.2152 45.942 80.9332 45.288 80.8972 44.544H84.2992C84.3712 44.844 84.5392 45.108 84.8032 45.336C85.0792 45.564 85.4332 45.738 85.8652 45.858C86.2972 45.966 86.8072 46.02 87.3952 46.02C88.1872 46.02 88.7872 45.936 89.1952 45.768C89.6032 45.6 89.8072 45.348 89.8072 45.012C89.8072 44.76 89.6572 44.568 89.3572 44.436C89.0692 44.304 88.5472 44.208 87.7912 44.148L85.9192 44.004C84.7432 43.92 83.8072 43.734 83.1112 43.446C82.4152 43.158 81.9172 42.792 81.6172 42.348C81.3292 41.904 81.1852 41.406 81.1852 40.854C81.1852 40.098 81.4192 39.468 81.8872 38.964C82.3672 38.46 83.0272 38.082 83.8672 37.83C84.7072 37.578 85.6912 37.452 86.8192 37.452C87.9472 37.452 88.9492 37.602 89.8252 37.902C90.7132 38.202 91.4212 38.616 91.9492 39.144C92.4892 39.672 92.7952 40.29 92.8672 40.998H89.4652C89.4172 40.758 89.2852 40.536 89.0692 40.332C88.8652 40.128 88.5652 39.966 88.1692 39.846C87.7852 39.714 87.2812 39.648 86.6572 39.648C85.9492 39.648 85.4092 39.726 85.0372 39.882C84.6652 40.038 84.4792 40.266 84.4792 40.566C84.4792 40.794 84.5932 40.974 84.8212 41.106C85.0492 41.238 85.4812 41.334 86.1172 41.394L88.5472 41.574C89.6992 41.67 90.5992 41.856 91.2472 42.132C91.9072 42.396 92.3752 42.744 92.6512 43.176C92.9272 43.608 93.0652 44.118 93.0652 44.706ZM93.5974 40.224V38.766L95.7214 37.992L97.1614 35.004H99.0694V37.74H103.497V40.224H99.0694V43.608C99.0694 44.376 99.2254 44.916 99.5374 45.228C99.8494 45.528 100.407 45.678 101.211 45.678C101.727 45.678 102.177 45.636 102.561 45.552C102.957 45.456 103.329 45.33 103.677 45.174V47.712C103.317 47.856 102.843 47.988 102.255 48.108C101.679 48.228 101.079 48.288 100.455 48.288C99.3634 48.288 98.4634 48.114 97.7554 47.766C97.0594 47.418 96.5434 46.932 96.2074 46.308C95.8834 45.672 95.7214 44.928 95.7214 44.076V40.224H93.5974ZM104.736 37.74H108.12L108.732 41.43V48H105.384V41.16L104.736 37.74ZM113.628 37.596V40.476C113.304 40.404 112.98 40.35 112.656 40.314C112.344 40.278 112.056 40.26 111.792 40.26C111.216 40.26 110.694 40.38 110.226 40.62C109.77 40.848 109.404 41.214 109.128 41.718C108.864 42.222 108.732 42.876 108.732 43.68L108.066 42.852C108.15 42.12 108.288 41.43 108.48 40.782C108.672 40.134 108.936 39.564 109.272 39.072C109.608 38.568 110.022 38.172 110.514 37.884C111.018 37.596 111.624 37.452 112.332 37.452C112.536 37.452 112.752 37.464 112.98 37.488C113.208 37.512 113.424 37.548 113.628 37.596ZM114.978 37.596L116.634 37.938L118.308 37.596V48H114.978V37.596ZM116.652 36.66C116.064 36.66 115.584 36.51 115.212 36.21C114.84 35.898 114.654 35.49 114.654 34.986C114.654 34.47 114.84 34.062 115.212 33.762C115.584 33.462 116.064 33.312 116.652 33.312C117.252 33.312 117.732 33.462 118.092 33.762C118.452 34.062 118.632 34.47 118.632 34.986C118.632 35.49 118.452 35.898 118.092 36.21C117.732 36.51 117.252 36.66 116.652 36.66ZM126.348 48.288C125.124 48.288 124.026 48.06 123.054 47.604C122.094 47.148 121.338 46.512 120.786 45.696C120.234 44.88 119.958 43.926 119.958 42.834C119.958 41.766 120.222 40.83 120.75 40.026C121.278 39.222 122.004 38.592 122.928 38.136C123.864 37.68 124.92 37.452 126.096 37.452C127.296 37.452 128.328 37.716 129.192 38.244C130.056 38.772 130.722 39.516 131.19 40.476C131.658 41.436 131.892 42.564 131.892 43.86H122.64V41.754H130.056L128.85 42.51C128.814 41.946 128.676 41.472 128.436 41.088C128.208 40.692 127.902 40.392 127.518 40.188C127.134 39.972 126.678 39.864 126.15 39.864C125.574 39.864 125.076 39.978 124.656 40.206C124.236 40.434 123.906 40.752 123.666 41.16C123.438 41.568 123.324 42.042 123.324 42.582C123.324 43.266 123.474 43.848 123.774 44.328C124.086 44.808 124.53 45.174 125.106 45.426C125.694 45.678 126.408 45.804 127.248 45.804C128.016 45.804 128.784 45.702 129.552 45.498C130.32 45.282 131.01 44.982 131.622 44.598V46.776C130.926 47.256 130.128 47.628 129.228 47.892C128.34 48.156 127.38 48.288 126.348 48.288ZM145.114 44.706C145.114 45.474 144.886 46.128 144.43 46.668C143.986 47.196 143.332 47.598 142.468 47.874C141.604 48.15 140.554 48.288 139.318 48.288C138.058 48.288 136.954 48.132 136.006 47.82C135.058 47.508 134.32 47.07 133.792 46.506C133.264 45.942 132.982 45.288 132.946 44.544H136.348C136.42 44.844 136.588 45.108 136.852 45.336C137.128 45.564 137.482 45.738 137.914 45.858C138.346 45.966 138.856 46.02 139.444 46.02C140.236 46.02 140.836 45.936 141.244 45.768C141.652 45.6 141.856 45.348 141.856 45.012C141.856 44.76 141.706 44.568 141.406 44.436C141.118 44.304 140.596 44.208 139.84 44.148L137.968 44.004C136.792 43.92 135.856 43.734 135.16 43.446C134.464 43.158 133.966 42.792 133.666 42.348C133.378 41.904 133.234 41.406 133.234 40.854C133.234 40.098 133.468 39.468 133.936 38.964C134.416 38.46 135.076 38.082 135.916 37.83C136.756 37.578 137.74 37.452 138.868 37.452C139.996 37.452 140.998 37.602 141.874 37.902C142.762 38.202 143.47 38.616 143.998 39.144C144.538 39.672 144.844 40.29 144.916 40.998H141.514C141.466 40.758 141.334 40.536 141.118 40.332C140.914 40.128 140.614 39.966 140.218 39.846C139.834 39.714 139.33 39.648 138.706 39.648C137.998 39.648 137.458 39.726 137.086 39.882C136.714 40.038 136.528 40.266 136.528 40.566C136.528 40.794 136.642 40.974 136.87 41.106C137.098 41.238 137.53 41.334 138.166 41.394L140.596 41.574C141.748 41.67 142.648 41.856 143.296 42.132C143.956 42.396 144.424 42.744 144.7 43.176C144.976 43.608 145.114 44.118 145.114 44.706Z" fill="black"/>
</svg>
