<svg width="245" height="102" viewBox="0 0 245 102" fill="none" xmlns="http://www.w3.org/2000/svg">
<path d="M131.702 2.96291C119.592 4.663 107.401 7.00834 95.5084 10.1385C83.604 13.3167 71.7633 17.2203 60.419 22.467C50.3704 27.0616 22.8857 41.4265 29.9482 57.2306C37.3456 72.0829 69.3633 75.4259 83.2651 76.3137C100.645 77.3159 118.159 76.4327 135.45 74.2429C153.651 71.9388 171.817 68.1885 189.464 62.5643C191.382 61.9259 194.585 60.8688 196.493 60.1618C205.8 56.7867 215.018 52.8809 223.635 47.593C227.913 44.9411 232.085 41.9573 235.693 38.2071C240.062 33.7223 244.121 26.8945 240.941 20.1674C235.418 8.77707 215.546 4.42274 204.981 2.58079C192.877 0.562656 180.57 -0.020819 168.347 0.118757C156.149 0.29952 143.818 1.32918 131.702 2.96062V2.96291ZM131.702 2.96291C141.374 1.6541 151.273 0.683927 160.999 0.281215C175.672 -0.359463 190.453 0.00892669 205.019 2.28105C215.835 4.07266 235.753 8.28283 241.448 19.8608C243.381 23.8399 242.893 28.4276 240.914 32.2511C232.681 47.9431 204.772 58.7523 189.753 63.7427C173.246 69.1267 156.267 72.7465 139.235 75.133C122.196 77.4303 104.953 78.5172 87.804 77.7621C72.154 76.9841 42.8434 74.0485 31.6127 61.0381C28.9156 57.8645 27.4744 53.5467 28.5449 49.1467C31.6984 36.3354 50.2268 26.8419 60.3213 22.1855C74.0079 16.0282 88.2924 11.6601 102.683 8.30342C112.215 6.05647 122.036 4.31062 131.702 2.96291Z" fill="white"/>
<path d="M19.4093 79.6045C18.8155 78.9148 18.9857 77.845 19.7888 77.2195C20.5252 76.6459 21.5347 76.6477 22.1565 77.1842C33.0895 66.9137 32.9828 64.2627 19.799 47.4646C19.0017 48.0079 17.9411 47.9386 17.3719 47.2775C16.7781 46.5878 16.9483 45.518 17.7514 44.8925C18.5544 44.2671 19.6907 44.3193 20.2845 45.009C20.8291 45.6415 20.7259 46.5874 20.0852 47.2238C34.7314 62.7575 37.4899 63.4505 50.0687 55.4144C49.7168 54.7393 49.9343 53.8535 50.6375 53.3058C51.4405 52.6803 52.5768 52.7326 53.1706 53.4222C53.7644 54.1119 53.5941 55.1817 52.7911 55.8072C52.0338 56.397 50.9873 56.3764 50.3689 55.7954C39.5147 66.0284 39.8044 68.6981 53.3196 85.8649C54.104 85.3793 55.1149 85.4635 55.6656 86.1031C56.2594 86.7928 56.0892 87.8626 55.2861 88.4881C54.4831 89.1136 53.3468 89.0613 52.753 88.3717C52.1777 87.7034 52.3248 86.6875 53.0596 86.0554C37.9519 69.9857 35.3135 69.2707 22.4457 77.5201C22.8761 78.2057 22.6789 79.1473 21.9424 79.7209C21.1394 80.3464 20.0031 80.2941 19.4093 79.6045Z" fill="#10B9C3"/>
<path d="M53.3397 33.98V30.94H63.6997V33.98H53.3397ZM61.0597 22L67.9797 37H63.9597L58.0197 23.58H59.1797L53.2597 37H49.2397L56.1597 22H61.0597ZM69.2469 21.6H72.9469V29.06L72.4469 30.04V32.72L72.9469 33.68V37H69.2469V21.6ZM71.7069 31.3C71.9069 30.0733 72.2869 29.0133 72.8469 28.12C73.4069 27.2267 74.1135 26.5333 74.9669 26.04C75.8202 25.5333 76.7802 25.28 77.8469 25.28C78.9669 25.28 79.9469 25.5333 80.7869 26.04C81.6402 26.5467 82.3069 27.2533 82.7869 28.16C83.2669 29.0533 83.5069 30.1 83.5069 31.3C83.5069 32.5 83.2669 33.5533 82.7869 34.46C82.3069 35.3533 81.6402 36.0533 80.7869 36.56C79.9469 37.0667 78.9669 37.32 77.8469 37.32C76.7802 37.32 75.8202 37.0733 74.9669 36.58C74.1135 36.0733 73.4069 35.3733 72.8469 34.48C72.2869 33.5733 71.9069 32.5133 71.7069 31.3ZM79.7469 31.3C79.7469 30.6867 79.6202 30.1467 79.3669 29.68C79.1135 29.2 78.7602 28.8267 78.3069 28.56C77.8669 28.28 77.3535 28.14 76.7669 28.14C76.1802 28.14 75.6202 28.28 75.0869 28.56C74.5669 28.8267 74.1069 29.2 73.7069 29.68C73.3202 30.1467 73.0202 30.6867 72.8069 31.3C73.0202 31.9133 73.3202 32.46 73.7069 32.94C74.1069 33.4067 74.5669 33.78 75.0869 34.06C75.6202 34.3267 76.1802 34.46 76.7669 34.46C77.3535 34.46 77.8669 34.3267 78.3069 34.06C78.7602 33.78 79.1135 33.4067 79.3669 32.94C79.6202 32.46 79.7469 31.9133 79.7469 31.3ZM98.2002 33.34C98.2002 34.1933 97.9468 34.92 97.4402 35.52C96.9468 36.1067 96.2202 36.5533 95.2602 36.86C94.3002 37.1667 93.1335 37.32 91.7602 37.32C90.3602 37.32 89.1335 37.1467 88.0802 36.8C87.0268 36.4533 86.2068 35.9667 85.6202 35.34C85.0335 34.7133 84.7202 33.9867 84.6802 33.16H88.4602C88.5402 33.4933 88.7268 33.7867 89.0202 34.04C89.3268 34.2933 89.7202 34.4867 90.2002 34.62C90.6802 34.74 91.2468 34.8 91.9002 34.8C92.7802 34.8 93.4468 34.7067 93.9002 34.52C94.3535 34.3333 94.5802 34.0533 94.5802 33.68C94.5802 33.4 94.4135 33.1867 94.0802 33.04C93.7602 32.8933 93.1802 32.7867 92.3402 32.72L90.2602 32.56C88.9535 32.4533 87.9135 32.2467 87.1402 31.94C86.3668 31.62 85.8135 31.2133 85.4802 30.72C85.1602 30.2267 85.0002 29.6733 85.0002 29.06C85.0002 28.22 85.2602 27.5267 85.7802 26.98C86.3135 26.42 87.0468 26 87.9802 25.72C88.9135 25.4267 90.0068 25.28 91.2602 25.28C92.5135 25.28 93.6268 25.4467 94.6002 25.78C95.5868 26.1133 96.3735 26.5733 96.9602 27.16C97.5602 27.7467 97.9002 28.4333 97.9802 29.22H94.2002C94.1468 28.9533 94.0002 28.7067 93.7602 28.48C93.5335 28.2533 93.2002 28.0733 92.7602 27.94C92.3335 27.7933 91.7735 27.72 91.0802 27.72C90.2935 27.72 89.6935 27.8067 89.2802 27.98C88.8668 28.1533 88.6602 28.4067 88.6602 28.74C88.6602 28.9933 88.7868 29.2 89.0402 29.36C89.2935 29.5067 89.7735 29.6067 90.4802 29.66L93.1802 29.86C94.4602 29.9667 95.4602 30.1733 96.1802 30.48C96.9135 30.7733 97.4335 31.16 97.7402 31.64C98.0468 32.12 98.2002 32.6867 98.2002 33.34ZM106.688 37.32C105.248 37.32 103.988 37.0667 102.908 36.56C101.828 36.0533 100.988 35.3467 100.388 34.44C99.7877 33.5333 99.4877 32.4867 99.4877 31.3C99.4877 30.1 99.7877 29.0533 100.388 28.16C100.988 27.2533 101.828 26.5467 102.908 26.04C104.001 25.5333 105.261 25.28 106.688 25.28C108.128 25.28 109.388 25.5333 110.468 26.04C111.548 26.5467 112.388 27.2533 112.988 28.16C113.601 29.0533 113.908 30.1 113.908 31.3C113.908 32.5 113.601 33.5533 112.988 34.46C112.388 35.3533 111.548 36.0533 110.468 36.56C109.388 37.0667 108.128 37.32 106.688 37.32ZM106.688 34.52C107.421 34.52 108.041 34.3933 108.548 34.14C109.068 33.8733 109.461 33.5 109.728 33.02C110.008 32.54 110.148 31.9667 110.148 31.3C110.148 30.6333 110.008 30.06 109.728 29.58C109.461 29.0867 109.068 28.7133 108.548 28.46C108.041 28.1933 107.421 28.06 106.688 28.06C105.981 28.06 105.368 28.1933 104.848 28.46C104.328 28.7133 103.928 29.0867 103.648 29.58C103.368 30.06 103.228 30.6333 103.228 31.3C103.228 31.9667 103.368 32.54 103.648 33.02C103.928 33.5 104.328 33.8733 104.848 34.14C105.368 34.3933 105.981 34.52 106.688 34.52ZM120.611 37.3C119.557 37.3 118.651 37.0867 117.891 36.66C117.144 36.22 116.571 35.6 116.171 34.8C115.784 34 115.591 33.0533 115.591 31.96V25.6H119.311V31.42C119.311 32.34 119.531 33.0467 119.971 33.54C120.411 34.0333 121.044 34.28 121.871 34.28C122.484 34.28 123.004 34.1533 123.431 33.9C123.857 33.6467 124.184 33.28 124.411 32.8C124.651 32.32 124.771 31.7533 124.771 31.1L125.931 31.72C125.797 32.92 125.477 33.94 124.971 34.78C124.477 35.6067 123.851 36.2333 123.091 36.66C122.344 37.0867 121.517 37.3 120.611 37.3ZM125.491 37L124.771 32.56V25.6H128.471V33.12L129.211 37H125.491ZM130.523 25.6H134.283L134.963 29.7V37H131.243V29.38L130.523 25.6ZM140.403 25.44V28.64C140.043 28.56 139.683 28.5 139.323 28.46C138.977 28.42 138.657 28.4 138.363 28.4C137.723 28.4 137.143 28.5333 136.623 28.8C136.117 29.0533 135.71 29.46 135.403 30.02C135.11 30.58 134.963 31.3067 134.963 32.2L134.223 31.28C134.317 30.4667 134.47 29.7 134.683 28.98C134.897 28.26 135.19 27.6267 135.563 27.08C135.937 26.52 136.397 26.08 136.943 25.76C137.503 25.44 138.177 25.28 138.963 25.28C139.19 25.28 139.43 25.2933 139.683 25.32C139.937 25.3467 140.177 25.3867 140.403 25.44ZM152.011 37L151.511 32.7L152.191 31.34L151.531 29.62L152.451 21.6H156.311L155.171 31.02L155.851 37H152.011ZM152.871 31.3C152.671 32.5133 152.291 33.5733 151.731 34.48C151.171 35.3733 150.464 36.0733 149.611 36.58C148.757 37.0733 147.797 37.32 146.731 37.32C145.611 37.32 144.624 37.0667 143.771 36.56C142.931 36.0533 142.271 35.3533 141.791 34.46C141.311 33.5533 141.071 32.5 141.071 31.3C141.071 30.1 141.311 29.0533 141.791 28.16C142.271 27.2533 142.931 26.5467 143.771 26.04C144.624 25.5333 145.611 25.28 146.731 25.28C147.797 25.28 148.757 25.5333 149.611 26.04C150.464 26.5333 151.171 27.2267 151.731 28.12C152.304 29.0133 152.684 30.0733 152.871 31.3ZM144.831 31.3C144.831 31.9133 144.957 32.46 145.211 32.94C145.464 33.4067 145.811 33.78 146.251 34.06C146.704 34.3267 147.224 34.46 147.811 34.46C148.397 34.46 148.951 34.3267 149.471 34.06C150.004 33.78 150.471 33.4067 150.871 32.94C151.271 32.46 151.571 31.9133 151.771 31.3C151.571 30.6867 151.271 30.1467 150.871 29.68C150.471 29.2 150.004 28.8267 149.471 28.56C148.951 28.28 148.397 28.14 147.811 28.14C147.224 28.14 146.704 28.28 146.251 28.56C145.811 28.8267 145.464 29.2 145.211 29.68C144.957 30.1467 144.831 30.6867 144.831 31.3ZM160.938 35.45C160.884 35.6567 160.884 35.8167 160.938 35.93C160.991 36.0433 161.104 36.1167 161.278 36.15L161.848 36.27C161.981 36.3033 162.078 36.35 162.138 36.41C162.198 36.4633 162.228 36.5367 162.228 36.63C162.228 36.7433 162.174 36.8333 162.068 36.9C161.968 36.9667 161.834 37 161.668 37H157.378C157.191 37 157.064 36.97 156.998 36.91C156.931 36.8433 156.898 36.76 156.898 36.66C156.898 36.5533 156.934 36.4667 157.008 36.4C157.088 36.3333 157.194 36.2833 157.328 36.25L157.948 36.14C158.148 36.1 158.304 36.0233 158.418 35.91C158.538 35.7967 158.634 35.63 158.708 35.41C158.774 35.15 158.868 34.7967 158.988 34.35C159.114 33.8967 159.254 33.3833 159.408 32.81C159.568 32.2367 159.734 31.63 159.908 30.99C160.081 30.35 160.251 29.71 160.418 29.07C160.591 28.43 160.751 27.82 160.898 27.24C161.051 26.6533 161.184 26.1267 161.298 25.66C161.411 25.1933 161.494 24.8167 161.548 24.53C161.594 24.3433 161.594 24.1967 161.548 24.09C161.501 23.9833 161.388 23.91 161.208 23.87L160.608 23.74C160.468 23.7 160.368 23.6533 160.308 23.6C160.254 23.54 160.228 23.4633 160.228 23.37C160.228 23.25 160.284 23.16 160.398 23.1C160.511 23.0333 160.674 23 160.888 23H165.128C165.308 23 165.428 23.03 165.488 23.09C165.554 23.1433 165.588 23.22 165.588 23.32C165.588 23.4267 165.548 23.5133 165.468 23.58C165.394 23.6467 165.281 23.7 165.128 23.74L164.458 23.9C164.271 23.94 164.128 24.0033 164.028 24.09C163.928 24.1767 163.844 24.32 163.778 24.52C163.698 24.82 163.591 25.2167 163.458 25.71C163.324 26.1967 163.174 26.7467 163.008 27.36C162.841 27.9667 162.668 28.6033 162.488 29.27C162.308 29.93 162.131 30.5867 161.958 31.24C161.791 31.8867 161.634 32.4933 161.488 33.06C161.348 33.62 161.228 34.11 161.128 34.53C161.028 34.95 160.964 35.2567 160.938 35.45ZM165.514 29.7C165.441 29.66 165.404 29.59 165.404 29.49C165.404 29.39 165.444 29.27 165.524 29.13C165.771 28.6833 166.117 28.33 166.564 28.07C167.017 27.8033 167.517 27.67 168.064 27.67C168.424 27.67 168.707 27.75 168.914 27.91C169.127 28.07 169.234 28.31 169.234 28.63C169.234 28.8233 169.194 29.0467 169.114 29.3C169.041 29.5533 168.934 29.8533 168.794 30.2C168.654 30.5467 168.484 30.9633 168.284 31.45C168.084 31.93 167.864 32.4967 167.624 33.15L167.584 32.75C167.964 31.7967 168.394 30.9933 168.874 30.34C169.354 29.6867 169.847 29.1633 170.354 28.77C170.867 28.3767 171.367 28.0967 171.854 27.93C172.341 27.7567 172.784 27.67 173.184 27.67C173.737 27.67 174.127 27.79 174.354 28.03C174.587 28.2633 174.694 28.5967 174.674 29.03C174.654 29.4633 174.537 29.9833 174.324 30.59L172.984 34.42C172.791 34.9533 172.721 35.3267 172.774 35.54C172.827 35.7467 172.941 35.85 173.114 35.85C173.227 35.85 173.347 35.8133 173.474 35.74C173.601 35.6667 173.754 35.54 173.934 35.36C174.047 35.2667 174.137 35.2067 174.204 35.18C174.277 35.1533 174.344 35.1567 174.404 35.19C174.484 35.2233 174.521 35.29 174.514 35.39C174.514 35.49 174.477 35.6133 174.404 35.76C174.157 36.2 173.811 36.5533 173.364 36.82C172.924 37.08 172.431 37.21 171.884 37.21C171.477 37.21 171.171 37.1167 170.964 36.93C170.757 36.7433 170.647 36.4733 170.634 36.12C170.627 35.76 170.711 35.33 170.884 34.83L172.264 30.87C172.504 30.21 172.584 29.7467 172.504 29.48C172.431 29.2133 172.214 29.08 171.854 29.08C171.581 29.08 171.267 29.17 170.914 29.35C170.561 29.53 170.194 29.8 169.814 30.16C169.441 30.52 169.081 30.9767 168.734 31.53C168.394 32.0767 168.091 32.7167 167.824 33.45C167.684 33.8567 167.571 34.1867 167.484 34.44C167.404 34.6933 167.347 34.8933 167.314 35.04C167.281 35.1867 167.264 35.3133 167.264 35.42C167.264 35.5933 167.291 35.74 167.344 35.86C167.397 35.9733 167.424 36.1133 167.424 36.28C167.424 36.56 167.271 36.7867 166.964 36.96C166.664 37.1267 166.257 37.21 165.744 37.21C165.331 37.21 165.081 37.0567 164.994 36.75C164.907 36.4367 164.981 35.96 165.214 35.32L166.944 30.46C167.131 29.9267 167.201 29.5567 167.154 29.35C167.107 29.1367 166.991 29.03 166.804 29.03C166.697 29.03 166.577 29.0667 166.444 29.14C166.317 29.2067 166.164 29.3333 165.984 29.52C165.877 29.6133 165.787 29.6733 165.714 29.7C165.647 29.7267 165.581 29.7267 165.514 29.7ZM177.252 29.7C177.179 29.66 177.142 29.59 177.142 29.49C177.142 29.39 177.182 29.27 177.262 29.13C177.509 28.6833 177.856 28.33 178.302 28.07C178.756 27.8033 179.256 27.67 179.802 27.67C180.162 27.67 180.446 27.75 180.652 27.91C180.866 28.07 180.972 28.31 180.972 28.63C180.972 28.8233 180.932 29.0467 180.852 29.3C180.779 29.5533 180.672 29.8533 180.532 30.2C180.392 30.5467 180.222 30.9633 180.022 31.45C179.822 31.93 179.602 32.4967 179.362 33.15L179.322 32.75C179.702 31.7967 180.132 30.9933 180.612 30.34C181.092 29.6867 181.586 29.1633 182.092 28.77C182.606 28.3767 183.106 28.0967 183.592 27.93C184.079 27.7567 184.522 27.67 184.922 27.67C185.476 27.67 185.866 27.79 186.092 28.03C186.326 28.2633 186.432 28.5967 186.412 29.03C186.392 29.4633 186.276 29.9833 186.062 30.59L184.722 34.42C184.529 34.9533 184.459 35.3267 184.512 35.54C184.566 35.7467 184.679 35.85 184.852 35.85C184.966 35.85 185.086 35.8133 185.212 35.74C185.339 35.6667 185.492 35.54 185.672 35.36C185.786 35.2667 185.876 35.2067 185.942 35.18C186.016 35.1533 186.082 35.1567 186.142 35.19C186.222 35.2233 186.259 35.29 186.252 35.39C186.252 35.49 186.216 35.6133 186.142 35.76C185.896 36.2 185.549 36.5533 185.102 36.82C184.662 37.08 184.169 37.21 183.622 37.21C183.216 37.21 182.909 37.1167 182.702 36.93C182.496 36.7433 182.386 36.4733 182.372 36.12C182.366 35.76 182.449 35.33 182.622 34.83L184.002 30.87C184.242 30.21 184.322 29.7467 184.242 29.48C184.169 29.2133 183.952 29.08 183.592 29.08C183.319 29.08 183.006 29.17 182.652 29.35C182.299 29.53 181.932 29.8 181.552 30.16C181.179 30.52 180.819 30.9767 180.472 31.53C180.132 32.0767 179.829 32.7167 179.562 33.45C179.422 33.8567 179.309 34.1867 179.222 34.44C179.142 34.6933 179.086 34.8933 179.052 35.04C179.019 35.1867 179.002 35.3133 179.002 35.42C179.002 35.5933 179.029 35.74 179.082 35.86C179.136 35.9733 179.162 36.1133 179.162 36.28C179.162 36.56 179.009 36.7867 178.702 36.96C178.402 37.1267 177.996 37.21 177.482 37.21C177.069 37.21 176.819 37.0567 176.732 36.75C176.646 36.4367 176.719 35.96 176.952 35.32L178.682 30.46C178.869 29.9267 178.939 29.5567 178.892 29.35C178.846 29.1367 178.729 29.03 178.542 29.03C178.436 29.03 178.316 29.0667 178.182 29.14C178.056 29.2067 177.902 29.3333 177.722 29.52C177.616 29.6133 177.526 29.6733 177.452 29.7C177.386 29.7267 177.319 29.7267 177.252 29.7ZM193.79 27.66C194.61 27.68 195.307 27.88 195.88 28.26C196.454 28.64 196.864 29.1767 197.11 29.87C197.364 30.5567 197.404 31.38 197.23 32.34C197.097 33.0667 196.86 33.7333 196.52 34.34C196.18 34.9467 195.76 35.4667 195.26 35.9C194.76 36.3333 194.2 36.6667 193.58 36.9C192.967 37.1267 192.314 37.23 191.62 37.21C190.827 37.1833 190.144 36.9833 189.57 36.61C189.004 36.2367 188.597 35.7033 188.35 35.01C188.11 34.3167 188.074 33.49 188.24 32.53C188.38 31.7967 188.617 31.1267 188.95 30.52C189.284 29.9133 189.697 29.3933 190.19 28.96C190.69 28.5267 191.244 28.1967 191.85 27.97C192.464 27.7367 193.11 27.6333 193.79 27.66ZM191.66 36.4C191.947 36.4267 192.23 36.3867 192.51 36.28C192.79 36.1733 193.057 36.0067 193.31 35.78C193.57 35.5467 193.807 35.2633 194.02 34.93C194.24 34.59 194.434 34.1967 194.6 33.75C194.774 33.3033 194.914 32.8133 195.02 32.28C195.187 31.4533 195.24 30.7667 195.18 30.22C195.12 29.6667 194.967 29.2467 194.72 28.96C194.48 28.6667 194.157 28.5033 193.75 28.47C193.464 28.4367 193.184 28.4733 192.91 28.58C192.644 28.6867 192.384 28.8567 192.13 29.09C191.884 29.3167 191.65 29.6 191.43 29.94C191.217 30.28 191.027 30.6733 190.86 31.12C190.694 31.56 190.557 32.05 190.45 32.59C190.284 33.4167 190.227 34.1067 190.28 34.66C190.34 35.2067 190.49 35.6233 190.73 35.91C190.97 36.1967 191.28 36.36 191.66 36.4ZM199.904 35.97C199.904 35.75 199.918 35.4633 199.944 35.11C199.971 34.75 200.004 34.3533 200.044 33.92C200.084 33.48 200.124 33.0333 200.164 32.58C200.204 32.12 200.238 31.6833 200.264 31.27C200.298 30.85 200.314 30.48 200.314 30.16C200.321 29.84 200.281 29.6 200.194 29.44C200.114 29.28 199.991 29.2 199.824 29.2C199.691 29.2 199.571 29.2467 199.464 29.34C199.364 29.4333 199.274 29.58 199.194 29.78C199.128 29.9267 199.064 30.03 199.004 30.09C198.944 30.1433 198.874 30.17 198.794 30.17C198.708 30.17 198.638 30.1367 198.584 30.07C198.531 29.9967 198.518 29.89 198.544 29.75C198.598 29.4233 198.734 29.1067 198.954 28.8C199.181 28.4867 199.471 28.23 199.824 28.03C200.184 27.8233 200.584 27.72 201.024 27.72C201.524 27.72 201.868 27.8833 202.054 28.21C202.248 28.5367 202.344 29.0367 202.344 29.71C202.344 30.0167 202.331 30.3733 202.304 30.78C202.278 31.1867 202.248 31.61 202.214 32.05C202.188 32.4833 202.154 32.9067 202.114 33.32C202.081 33.7267 202.051 34.0933 202.024 34.42C202.004 34.74 201.994 34.9833 201.994 35.15C202.001 35.4567 202.038 35.67 202.104 35.79C202.178 35.91 202.288 35.97 202.434 35.97C202.621 35.97 202.851 35.86 203.124 35.64C203.398 35.4133 203.681 35.11 203.974 34.73C204.274 34.3433 204.554 33.9133 204.814 33.44C205.074 32.9667 205.288 32.48 205.454 31.98C205.621 31.48 205.708 31 205.714 30.54C205.728 30.3333 205.708 30.1767 205.654 30.07C205.601 29.9633 205.494 29.8367 205.334 29.69C205.188 29.5567 205.074 29.4133 204.994 29.26C204.914 29.1067 204.881 28.9233 204.894 28.71C204.908 28.4167 205.021 28.17 205.234 27.97C205.454 27.77 205.731 27.67 206.064 27.67C206.431 27.67 206.714 27.7967 206.914 28.05C207.121 28.2967 207.214 28.68 207.194 29.2C207.174 29.9533 207.034 30.7133 206.774 31.48C206.514 32.24 206.171 32.9667 205.744 33.66C205.318 34.3467 204.838 34.9567 204.304 35.49C203.778 36.0233 203.234 36.4467 202.674 36.76C202.114 37.0667 201.574 37.22 201.054 37.22C200.674 37.22 200.388 37.12 200.194 36.92C200.008 36.72 199.911 36.4033 199.904 35.97ZM215.636 34.42C215.496 34.9667 215.449 35.3433 215.496 35.55C215.543 35.7567 215.646 35.86 215.806 35.86C215.926 35.86 216.046 35.8233 216.166 35.75C216.286 35.6767 216.439 35.5533 216.626 35.38C216.733 35.28 216.819 35.2167 216.886 35.19C216.959 35.1633 217.026 35.1667 217.086 35.2C217.166 35.24 217.203 35.31 217.196 35.41C217.196 35.5033 217.159 35.6233 217.086 35.77C216.846 36.21 216.503 36.56 216.056 36.82C215.616 37.08 215.163 37.21 214.696 37.21C214.309 37.21 214.023 37.1133 213.836 36.92C213.649 36.7267 213.556 36.4467 213.556 36.08C213.556 35.9267 213.566 35.7567 213.586 35.57C213.613 35.3833 213.659 35.1533 213.726 34.88C213.793 34.6 213.886 34.2567 214.006 33.85C214.126 33.4367 214.279 32.9333 214.466 32.34L214.646 32.66C214.286 33.6267 213.849 34.45 213.336 35.13C212.823 35.8033 212.266 36.32 211.666 36.68C211.066 37.0333 210.453 37.21 209.826 37.21C209.126 37.21 208.583 36.9733 208.196 36.5C207.816 36.0267 207.676 35.28 207.776 34.26C207.836 33.5933 208.003 32.94 208.276 32.3C208.556 31.66 208.919 31.06 209.366 30.5C209.819 29.94 210.339 29.4467 210.926 29.02C211.513 28.5933 212.149 28.2633 212.836 28.03C213.529 27.79 214.249 27.67 214.996 27.67C215.556 27.67 216.023 27.71 216.396 27.79C216.769 27.87 217.046 27.98 217.226 28.12C217.413 28.2533 217.499 28.4067 217.486 28.58C217.473 28.72 217.423 28.83 217.336 28.91C217.256 28.99 217.173 29.07 217.086 29.15C216.999 29.2233 216.936 29.3333 216.896 29.48L215.636 34.42ZM209.876 34.19C209.809 34.8833 209.863 35.37 210.036 35.65C210.216 35.93 210.469 36.07 210.796 36.07C211.096 36.07 211.413 35.9533 211.746 35.72C212.086 35.4867 212.426 35.1567 212.766 34.73C213.113 34.3033 213.436 33.8133 213.736 33.26C214.036 32.7 214.299 32.0967 214.526 31.45C214.753 30.8033 214.919 30.1367 215.026 29.45C215.086 29.11 215.066 28.8633 214.966 28.71C214.866 28.55 214.696 28.47 214.456 28.47C214.043 28.47 213.626 28.5767 213.206 28.79C212.793 29.0033 212.399 29.3 212.026 29.68C211.653 30.0533 211.313 30.4833 211.006 30.97C210.699 31.4567 210.446 31.9767 210.246 32.53C210.053 33.0767 209.929 33.63 209.876 34.19ZM220.735 28.91L219.945 28.76C219.838 28.72 219.758 28.6667 219.705 28.6C219.652 28.5333 219.625 28.46 219.625 28.38C219.625 28.26 219.672 28.1667 219.765 28.1C219.865 28.0333 219.998 28 220.165 28H221.055C221.208 28 221.342 27.97 221.455 27.91C221.575 27.8433 221.685 27.7533 221.785 27.64L222.885 26.17C222.972 26.0633 223.062 25.9933 223.155 25.96C223.248 25.92 223.345 25.9 223.445 25.9C223.565 25.9 223.655 25.93 223.715 25.99C223.775 26.05 223.805 26.1367 223.805 26.25C223.805 26.3233 223.795 26.42 223.775 26.54C223.755 26.6533 223.722 26.7867 223.675 26.94L221.485 34.14C221.278 34.82 221.225 35.2733 221.325 35.5C221.432 35.72 221.665 35.83 222.025 35.83C222.332 35.83 222.618 35.7633 222.885 35.63C223.158 35.49 223.438 35.2567 223.725 34.93C223.805 34.8433 223.872 34.7867 223.925 34.76C223.985 34.7267 224.045 34.71 224.105 34.71C224.178 34.71 224.235 34.7367 224.275 34.79C224.322 34.8433 224.338 34.9133 224.325 35C224.298 35.22 224.188 35.46 223.995 35.72C223.808 35.9733 223.555 36.2133 223.235 36.44C222.915 36.66 222.545 36.8433 222.125 36.99C221.705 37.1367 221.255 37.21 220.775 37.21C220.268 37.21 219.885 37.1067 219.625 36.9C219.372 36.6867 219.232 36.38 219.205 35.98C219.178 35.5733 219.255 35.0733 219.435 34.48L220.885 29.85C220.985 29.5167 221.022 29.2867 220.995 29.16C220.975 29.0333 220.888 28.95 220.735 28.91ZM222.425 28.86L222.695 28.02H225.385C225.618 28.02 225.735 28.12 225.735 28.32C225.735 28.4867 225.662 28.62 225.515 28.72C225.368 28.8133 225.172 28.86 224.925 28.86H222.425ZM227.005 32.87C227.005 32.87 227.128 32.8233 227.375 32.73C227.622 32.6367 227.945 32.5167 228.345 32.37C228.745 32.2167 229.175 32.0533 229.635 31.88C230.102 31.7 230.555 31.5267 230.995 31.36C231.435 31.1933 231.818 31.0467 232.145 30.92L231.915 31.24C231.968 31.0733 232.008 30.8867 232.035 30.68C232.062 30.4733 232.078 30.2267 232.085 29.94C232.085 29.4933 231.988 29.1267 231.795 28.84C231.608 28.5533 231.355 28.41 231.035 28.41C230.722 28.41 230.398 28.5267 230.065 28.76C229.732 28.9933 229.418 29.32 229.125 29.74C228.832 30.16 228.585 30.65 228.385 31.21C228.185 31.77 228.062 32.3767 228.015 33.03C227.942 34.01 228.088 34.75 228.455 35.25C228.828 35.7433 229.358 35.99 230.045 35.99C230.458 35.99 230.855 35.9133 231.235 35.76C231.622 35.6 231.968 35.37 232.275 35.07C232.588 34.7633 232.832 34.3933 233.005 33.96C233.098 33.82 233.182 33.7267 233.255 33.68C233.328 33.6267 233.408 33.6 233.495 33.6C233.602 33.6 233.682 33.6467 233.735 33.74C233.795 33.8267 233.805 33.9667 233.765 34.16C233.658 34.68 233.408 35.1733 233.015 35.64C232.628 36.1067 232.112 36.4867 231.465 36.78C230.818 37.0667 230.048 37.21 229.155 37.21C228.388 37.21 227.755 37.0667 227.255 36.78C226.755 36.4867 226.392 36.0733 226.165 35.54C225.938 35 225.852 34.3533 225.905 33.6C225.958 32.8 226.142 32.0433 226.455 31.33C226.775 30.6167 227.192 29.9867 227.705 29.44C228.218 28.8867 228.795 28.4533 229.435 28.14C230.082 27.82 230.758 27.66 231.465 27.66C231.992 27.66 232.432 27.7633 232.785 27.97C233.138 28.1767 233.408 28.4533 233.595 28.8C233.782 29.14 233.888 29.5233 233.915 29.95C233.928 30.05 233.958 30.1333 234.005 30.2C234.052 30.2667 234.118 30.3 234.205 30.3C234.298 30.2933 234.368 30.31 234.415 30.35C234.462 30.39 234.485 30.45 234.485 30.53C234.485 30.63 234.442 30.7233 234.355 30.81C234.268 30.8967 234.102 30.9833 233.855 31.07C233.595 31.1567 233.248 31.28 232.815 31.44C232.388 31.5933 231.922 31.7633 231.415 31.95C230.908 32.13 230.398 32.3133 229.885 32.5C229.378 32.68 228.912 32.8467 228.485 33C228.065 33.1533 227.725 33.2767 227.465 33.37C227.212 33.4633 227.085 33.51 227.085 33.51L227.005 32.87ZM80.2979 47H84.0779V62H80.2979V47ZM86.0799 50.6H89.7799L90.5199 55.04V62H86.7999V54.48L86.0799 50.6ZM94.7799 50.28C95.8733 50.28 96.7999 50.5 97.5599 50.94C98.3333 51.38 98.9199 52 99.3199 52.8C99.7333 53.5867 99.9399 54.5333 99.9399 55.64V62H96.2199V56.2C96.2199 55.2533 95.9866 54.54 95.5199 54.06C95.0533 53.5667 94.3866 53.32 93.5199 53.32C92.9066 53.32 92.3733 53.4533 91.9199 53.72C91.4666 53.9733 91.1199 54.34 90.8799 54.82C90.6399 55.2867 90.5199 55.8467 90.5199 56.5L89.3399 55.88C89.4866 54.6667 89.8133 53.6467 90.3199 52.82C90.8399 51.9933 91.4799 51.3667 92.2399 50.94C93.0133 50.5 93.8599 50.28 94.7799 50.28ZM112.606 62L112.106 57.7L112.786 56.34L112.126 54.62L113.046 46.6H116.906L115.766 56.02L116.446 62H112.606ZM113.466 56.3C113.266 57.5133 112.886 58.5733 112.326 59.48C111.766 60.3733 111.06 61.0733 110.206 61.58C109.353 62.0733 108.393 62.32 107.326 62.32C106.206 62.32 105.22 62.0667 104.366 61.56C103.526 61.0533 102.866 60.3533 102.386 59.46C101.906 58.5533 101.666 57.5 101.666 56.3C101.666 55.1 101.906 54.0533 102.386 53.16C102.866 52.2533 103.526 51.5467 104.366 51.04C105.22 50.5333 106.206 50.28 107.326 50.28C108.393 50.28 109.353 50.5333 110.206 51.04C111.06 51.5333 111.766 52.2267 112.326 53.12C112.9 54.0133 113.28 55.0733 113.466 56.3ZM105.426 56.3C105.426 56.9133 105.553 57.46 105.806 57.94C106.06 58.4067 106.406 58.78 106.846 59.06C107.3 59.3267 107.82 59.46 108.406 59.46C108.993 59.46 109.546 59.3267 110.066 59.06C110.6 58.78 111.066 58.4067 111.466 57.94C111.866 57.46 112.166 56.9133 112.366 56.3C112.166 55.6867 111.866 55.1467 111.466 54.68C111.066 54.2 110.6 53.8267 110.066 53.56C109.546 53.28 108.993 53.14 108.406 53.14C107.82 53.14 107.3 53.28 106.846 53.56C106.406 53.8267 106.06 54.2 105.806 54.68C105.553 55.1467 105.426 55.6867 105.426 56.3ZM123.414 62.3C122.36 62.3 121.454 62.0867 120.694 61.66C119.947 61.22 119.374 60.6 118.974 59.8C118.587 59 118.394 58.0533 118.394 56.96V50.6H122.114V56.42C122.114 57.34 122.334 58.0467 122.774 58.54C123.214 59.0333 123.847 59.28 124.674 59.28C125.287 59.28 125.807 59.1533 126.234 58.9C126.66 58.6467 126.987 58.28 127.214 57.8C127.454 57.32 127.574 56.7533 127.574 56.1L128.734 56.72C128.6 57.92 128.28 58.94 127.774 59.78C127.28 60.6067 126.654 61.2333 125.894 61.66C125.147 62.0867 124.32 62.3 123.414 62.3ZM128.294 62L127.574 57.56V50.6H131.274V58.12L132.014 62H128.294ZM146.706 58.34C146.706 59.1933 146.453 59.92 145.946 60.52C145.453 61.1067 144.726 61.5533 143.766 61.86C142.806 62.1667 141.639 62.32 140.266 62.32C138.866 62.32 137.639 62.1467 136.586 61.8C135.533 61.4533 134.713 60.9667 134.126 60.34C133.539 59.7133 133.226 58.9867 133.186 58.16H136.966C137.046 58.4933 137.233 58.7867 137.526 59.04C137.833 59.2933 138.226 59.4867 138.706 59.62C139.186 59.74 139.753 59.8 140.406 59.8C141.286 59.8 141.953 59.7067 142.406 59.52C142.859 59.3333 143.086 59.0533 143.086 58.68C143.086 58.4 142.919 58.1867 142.586 58.04C142.266 57.8933 141.686 57.7867 140.846 57.72L138.766 57.56C137.459 57.4533 136.419 57.2467 135.646 56.94C134.873 56.62 134.319 56.2133 133.986 55.72C133.666 55.2267 133.506 54.6733 133.506 54.06C133.506 53.22 133.766 52.5267 134.286 51.98C134.819 51.42 135.553 51 136.486 50.72C137.419 50.4267 138.513 50.28 139.766 50.28C141.019 50.28 142.133 50.4467 143.106 50.78C144.093 51.1133 144.879 51.5733 145.466 52.16C146.066 52.7467 146.406 53.4333 146.486 54.22H142.706C142.653 53.9533 142.506 53.7067 142.266 53.48C142.039 53.2533 141.706 53.0733 141.266 52.94C140.839 52.7933 140.279 52.72 139.586 52.72C138.799 52.72 138.199 52.8067 137.786 52.98C137.373 53.1533 137.166 53.4067 137.166 53.74C137.166 53.9933 137.293 54.2 137.546 54.36C137.799 54.5067 138.279 54.6067 138.986 54.66L141.686 54.86C142.966 54.9667 143.966 55.1733 144.686 55.48C145.419 55.7733 145.939 56.16 146.246 56.64C146.553 57.12 146.706 57.6867 146.706 58.34ZM147.297 53.36V51.74L149.657 50.88L151.237 47.56H153.377V50.6H158.297V53.36H153.377V57.12C153.377 57.9733 153.551 58.5733 153.897 58.92C154.244 59.2533 154.864 59.42 155.757 59.42C156.317 59.42 156.817 59.3733 157.257 59.28C157.697 59.1733 158.111 59.0333 158.497 58.86V61.68C158.097 61.84 157.571 61.9867 156.917 62.12C156.277 62.2533 155.611 62.32 154.917 62.32C153.704 62.32 152.704 62.1267 151.917 61.74C151.144 61.3533 150.571 60.8133 150.197 60.12C149.837 59.4133 149.657 58.5867 149.657 57.64V53.36H147.297ZM159.674 50.6H163.434L164.114 54.7V62H160.394V54.38L159.674 50.6ZM169.554 50.44V53.64C169.194 53.56 168.834 53.5 168.474 53.46C168.127 53.42 167.807 53.4 167.514 53.4C166.874 53.4 166.294 53.5333 165.774 53.8C165.267 54.0533 164.86 54.46 164.554 55.02C164.26 55.58 164.114 56.3067 164.114 57.2L163.374 56.28C163.467 55.4667 163.62 54.7 163.834 53.98C164.047 53.26 164.34 52.6267 164.714 52.08C165.087 51.52 165.547 51.08 166.094 50.76C166.654 50.44 167.327 50.28 168.114 50.28C168.34 50.28 168.58 50.2933 168.834 50.32C169.087 50.3467 169.327 50.3867 169.554 50.44ZM171.054 50.44L172.894 50.82L174.754 50.44V62H171.054V50.44ZM172.914 49.4C172.26 49.4 171.727 49.2333 171.314 48.9C170.9 48.5533 170.694 48.1 170.694 47.54C170.694 46.9667 170.9 46.5133 171.314 46.18C171.727 45.8467 172.26 45.68 172.914 45.68C173.58 45.68 174.114 45.8467 174.514 46.18C174.914 46.5133 175.114 46.9667 175.114 47.54C175.114 48.1 174.914 48.5533 174.514 48.9C174.114 49.2333 173.58 49.4 172.914 49.4ZM183.687 62.32C182.327 62.32 181.107 62.0667 180.027 61.56C178.961 61.0533 178.121 60.3467 177.507 59.44C176.894 58.5333 176.587 57.4733 176.587 56.26C176.587 55.0733 176.881 54.0333 177.467 53.14C178.054 52.2467 178.861 51.5467 179.887 51.04C180.927 50.5333 182.101 50.28 183.407 50.28C184.741 50.28 185.887 50.5733 186.847 51.16C187.807 51.7467 188.547 52.5733 189.067 53.64C189.587 54.7067 189.847 55.96 189.847 57.4H179.567V55.06H187.807L186.467 55.9C186.427 55.2733 186.274 54.7467 186.007 54.32C185.754 53.88 185.414 53.5467 184.987 53.32C184.561 53.08 184.054 52.96 183.467 52.96C182.827 52.96 182.274 53.0867 181.807 53.34C181.341 53.5933 180.974 53.9467 180.707 54.4C180.454 54.8533 180.327 55.38 180.327 55.98C180.327 56.74 180.494 57.3867 180.827 57.92C181.174 58.4533 181.667 58.86 182.307 59.14C182.961 59.42 183.754 59.56 184.687 59.56C185.541 59.56 186.394 59.4467 187.247 59.22C188.101 58.98 188.867 58.6467 189.547 58.22V60.64C188.774 61.1733 187.887 61.5867 186.887 61.88C185.901 62.1733 184.834 62.32 183.687 62.32ZM204.538 58.34C204.538 59.1933 204.285 59.92 203.778 60.52C203.285 61.1067 202.558 61.5533 201.598 61.86C200.638 62.1667 199.471 62.32 198.098 62.32C196.698 62.32 195.471 62.1467 194.418 61.8C193.365 61.4533 192.545 60.9667 191.958 60.34C191.371 59.7133 191.058 58.9867 191.018 58.16H194.798C194.878 58.4933 195.065 58.7867 195.358 59.04C195.665 59.2933 196.058 59.4867 196.538 59.62C197.018 59.74 197.585 59.8 198.238 59.8C199.118 59.8 199.785 59.7067 200.238 59.52C200.691 59.3333 200.918 59.0533 200.918 58.68C200.918 58.4 200.751 58.1867 200.418 58.04C200.098 57.8933 199.518 57.7867 198.678 57.72L196.598 57.56C195.291 57.4533 194.251 57.2467 193.478 56.94C192.705 56.62 192.151 56.2133 191.818 55.72C191.498 55.2267 191.338 54.6733 191.338 54.06C191.338 53.22 191.598 52.5267 192.118 51.98C192.651 51.42 193.385 51 194.318 50.72C195.251 50.4267 196.345 50.28 197.598 50.28C198.851 50.28 199.965 50.4467 200.938 50.78C201.925 51.1133 202.711 51.5733 203.298 52.16C203.898 52.7467 204.238 53.4333 204.318 54.22H200.538C200.485 53.9533 200.338 53.7067 200.098 53.48C199.871 53.2533 199.538 53.0733 199.098 52.94C198.671 52.7933 198.111 52.72 197.418 52.72C196.631 52.72 196.031 52.8067 195.618 52.98C195.205 53.1533 194.998 53.4067 194.998 53.74C194.998 53.9933 195.125 54.2 195.378 54.36C195.631 54.5067 196.111 54.6067 196.818 54.66L199.518 54.86C200.798 54.9667 201.798 55.1733 202.518 55.48C203.251 55.7733 203.771 56.16 204.078 56.64C204.385 57.12 204.538 57.6867 204.538 58.34Z" fill="#FFF0E3"/>
</svg>
