<svg width="21" height="21" viewBox="0 0 21 21" fill="none" xmlns="http://www.w3.org/2000/svg">
<path d="M3.375 20H17.625C18.9367 20 20 18.5614 20 16.7868V4.21324C20 2.43861 18.9367 1 17.625 1H3.375C2.06332 1 1 2.43862 1 4.21324V16.7868C1 18.5614 2.06332 20 3.375 20Z" fill="#10B9C3"/>
<path d="M2.1875 2.60662L10.5 9.8364L19.4063 2.60662M3.375 20C2.06332 20 1 18.5614 1 16.7868V4.21324C1 2.43862 2.06332 1 3.375 1H17.625C18.9367 1 20 2.43861 20 4.21324V16.7868C20 18.5614 18.9367 20 17.625 20H3.375Z" stroke="black" stroke-linecap="round" stroke-linejoin="round"/>
</svg>
