<svg width="341" height="77" viewBox="0 0 341 77" fill="none" xmlns="http://www.w3.org/2000/svg">
<path d="M91.3799 31.631C91.721 32.2213 91.9556 32.8256 92.0761 33.4412L91.5854 33.5372C91.6418 33.8256 91.6703 34.1159 91.6703 34.4082C91.6703 34.7005 91.6418 34.9908 91.5854 35.2791L92.0761 35.3751C91.9556 35.9907 91.721 36.595 91.3799 37.1854L90.947 36.9352C90.6634 37.4259 90.2969 37.9126 89.8485 38.3928L90.214 38.734C89.7964 39.1813 89.3158 39.6182 88.7761 40.0434L88.4667 39.6506C87.9976 40.0201 87.4802 40.3822 86.9163 40.7357L87.1819 41.1594C86.6543 41.4901 86.0892 41.8121 85.4886 42.1247L85.2578 41.6812C84.7126 41.965 84.1365 42.2414 83.5312 42.5097L83.7338 42.9668C83.1588 43.2217 82.5587 43.4689 81.9348 43.7081L81.7558 43.2413C81.1727 43.4648 80.5681 43.6814 79.9431 43.8907L80.1018 44.3648C79.4995 44.5665 78.8789 44.7611 78.2409 44.9485L78.1 44.4688C77.4965 44.6461 76.8771 44.8168 76.2426 44.9808L76.3676 45.4649C75.7506 45.6243 75.1196 45.7773 74.4755 45.9235L74.3648 45.4359C73.7459 45.5764 73.1146 45.7106 72.4717 45.8384L72.5691 46.3288C71.9408 46.4537 71.3015 46.5723 70.652 46.6845L70.5669 46.1918C69.9402 46.3001 69.3039 46.4024 68.6583 46.4984L68.7319 46.993C68.0979 47.0873 67.4551 47.1757 66.8043 47.2579L66.7416 46.7618C66.1082 46.8418 65.467 46.9159 64.8185 46.984L64.8707 47.4812C64.2315 47.5483 63.5853 47.6095 62.9326 47.6647L62.8905 47.1665C62.2527 47.2204 61.6086 47.2686 60.9586 47.3107L60.991 47.8097C60.3485 47.8514 59.7003 47.8873 59.0469 47.9173L59.024 47.4178C58.3834 47.4472 57.7378 47.4708 57.0875 47.4886L57.1011 47.9884C56.4566 48.0059 55.8075 48.0178 55.1544 48.0237L55.1499 47.5237C54.8269 47.5266 54.5029 47.5281 54.1779 47.5281C53.853 47.5281 53.529 47.5266 53.206 47.5237L53.2015 48.0237C52.5483 48.0178 51.8993 48.0059 51.2547 47.9884L51.2684 47.4886C50.6181 47.4708 49.9724 47.4472 49.3318 47.4178L49.3089 47.9173C48.6556 47.8873 48.0074 47.8514 47.3649 47.8097L47.3972 47.3107C46.7473 47.2686 46.1032 47.2204 45.4654 47.1665L45.4233 47.6647C44.7706 47.6095 44.1244 47.5483 43.4852 47.4812L43.5373 46.984C42.8888 46.9159 42.2476 46.8418 41.6142 46.7618L41.5516 47.2579C40.9007 47.1757 40.258 47.0873 39.6239 46.993L39.6975 46.4984C39.052 46.4024 38.4156 46.3001 37.789 46.1918L37.7039 46.6845C37.0543 46.5723 36.4151 46.4537 35.7868 46.3288L35.8842 45.8384C35.2412 45.7106 34.61 45.5764 33.9911 45.4359L33.8804 45.9235C33.2363 45.7773 32.6053 45.6243 31.9882 45.4649L32.1133 44.9808C31.4788 44.8168 30.8593 44.6461 30.2558 44.4688L30.1149 44.9485C29.477 44.7611 28.8564 44.5664 28.2541 44.3648L28.4128 43.8907C27.7877 43.6814 27.1831 43.4648 26.6001 43.2413L26.4211 43.7081C25.7972 43.4689 25.1971 43.2217 24.6221 42.9668L24.8247 42.5097C24.2193 42.2414 23.6433 41.965 23.0981 41.6812L22.8672 42.1247C22.2666 41.8121 21.7015 41.4901 21.174 41.1594L21.4396 40.7357C20.8757 40.3822 20.3582 40.0201 19.8892 39.6506L19.5798 40.0434C19.04 39.6182 18.5595 39.1813 18.1419 38.734L18.5073 38.3928C18.059 37.9126 17.6924 37.4259 17.4089 36.9352L16.976 37.1854C16.6348 36.595 16.4003 35.9907 16.2798 35.3751L16.7705 35.2791C16.7141 34.9908 16.6855 34.7005 16.6855 34.4082C16.6855 34.1159 16.7141 33.8256 16.7705 33.5372L16.2798 33.4412C16.4003 32.8256 16.6348 32.2213 16.976 31.631L17.4089 31.8811C17.6924 31.3905 18.059 30.9037 18.5073 30.4236L18.1419 30.0823C18.5595 29.6351 19.04 29.1982 19.5798 28.773L19.8892 29.1657C20.3582 28.7962 20.8757 28.4341 21.4396 28.0806L21.174 27.657C21.7015 27.3262 22.2666 27.0042 22.8672 26.6916L23.0981 27.1351C23.6433 26.8514 24.2193 26.575 24.8247 26.3067L24.6221 25.8495C25.1971 25.5947 25.7972 25.3474 26.4211 25.1082L26.6001 25.5751C27.1831 25.3515 27.7877 25.1349 28.4128 24.9256L28.2541 24.4515C28.8564 24.2499 29.477 24.0552 30.1149 23.8678L30.2558 24.3475C30.8593 24.1703 31.4788 23.9995 32.1133 23.8356L31.9882 23.3515C32.6053 23.192 33.2363 23.0391 33.8804 22.8928L33.9911 23.3804C34.61 23.2399 35.2412 23.1057 35.8842 22.9779L35.7868 22.4875C36.4151 22.3627 37.0544 22.244 37.7039 22.1318L37.789 22.6245C38.4156 22.5162 39.052 22.414 39.6975 22.3179L39.624 21.8234C40.258 21.729 40.9007 21.6407 41.5516 21.5585L41.6142 22.0545C42.2476 21.9745 42.8888 21.9004 43.5373 21.8324L43.4852 21.3351C44.1244 21.268 44.7706 21.2068 45.4233 21.1516L45.4654 21.6498C46.1032 21.5959 46.7473 21.5478 47.3972 21.5056L47.3649 21.0066C48.0074 20.9649 48.6556 20.929 49.3089 20.8991L49.3319 21.3985C49.9724 21.3692 50.6181 21.3455 51.2684 21.3278L51.2547 20.828C51.8993 20.8104 52.5483 20.7986 53.2015 20.7927L53.206 21.2926C53.529 21.2897 53.853 21.2883 54.1779 21.2883C54.5029 21.2883 54.8269 21.2897 55.1499 21.2926L55.1544 20.7927C55.8075 20.7986 56.4566 20.8104 57.1012 20.828L57.0875 21.3278C57.7378 21.3455 58.3834 21.3692 59.024 21.3985L59.0469 20.8991C59.7003 20.929 60.3485 20.9649 60.991 21.0066L60.9586 21.5056C61.6086 21.5478 62.2527 21.5959 62.8905 21.6498L62.9326 21.1516C63.5853 21.2068 64.2315 21.268 64.8707 21.3351L64.8185 21.8324C65.467 21.9004 66.1082 21.9745 66.7416 22.0545L66.8043 21.5585C67.4551 21.6407 68.0979 21.729 68.7319 21.8234L68.6583 22.3179C69.3039 22.414 69.9402 22.5162 70.5669 22.6245L70.652 22.1318C71.3015 22.244 71.9408 22.3627 72.5691 22.4875L72.4717 22.9779C73.1146 23.1057 73.7459 23.2399 74.3648 23.3804L74.4755 22.8928C75.1196 23.0391 75.7506 23.192 76.3677 23.3515L76.2426 23.8356C76.8771 23.9995 77.4965 24.1703 78.1 24.3475L78.241 23.8678C78.8789 24.0552 79.4995 24.2499 80.1018 24.4515L79.9431 24.9256C80.5681 25.1349 81.1727 25.3515 81.7558 25.5751L81.9348 25.1082C82.5587 25.3474 83.1588 25.5947 83.7338 25.8495L83.5312 26.3067C84.1365 26.575 84.7126 26.8514 85.2578 27.1351L85.4886 26.6916C86.0892 27.0042 86.6543 27.3262 87.1819 27.657L86.9163 28.0806C87.4802 28.4341 87.9976 28.7962 88.4667 29.1657L88.7761 28.7729C89.3158 29.1982 89.7964 29.6351 90.214 30.0823L89.8485 30.4236C90.2969 30.9037 90.6634 31.3905 90.947 31.8811L91.3799 31.631Z" stroke="#FFF0E3" stroke-dasharray="2 2"/>
<path d="M106.725 34.0498C106.725 36.3706 105.416 38.6481 102.901 40.7838C100.388 42.9178 96.7223 44.862 92.1486 46.5047C83.0055 49.7885 70.3414 51.8292 56.3291 51.8292C42.3167 51.8292 29.6527 49.7885 20.5095 46.5047C15.9358 44.862 12.2699 42.9178 9.75685 40.7838C7.24171 38.6481 5.93359 36.3706 5.93359 34.0498C5.93359 31.7291 7.24171 29.4515 9.75685 27.3158C12.2699 25.1819 15.9358 23.2376 20.5095 21.5949C29.6527 18.3111 42.3167 16.2705 56.3291 16.2705C70.3414 16.2705 83.0055 18.3111 92.1486 21.5949C96.7223 23.2376 100.388 25.1819 102.901 27.3158C105.416 29.4515 106.725 31.7291 106.725 34.0498Z" stroke="#FFF0E3"/>
<path d="M130.331 31.4215C130.571 32.0698 130.734 32.7269 130.817 33.3917L130.321 33.4533C130.36 33.7699 130.38 34.0882 130.38 34.4081C130.38 34.728 130.36 35.0462 130.321 35.3628L130.817 35.4245C130.734 36.0892 130.571 36.7463 130.331 37.3946L129.862 37.2209C129.646 37.8053 129.362 38.3854 129.012 38.9602L129.439 39.2202C129.099 39.779 128.701 40.3299 128.247 40.8721L127.863 40.5511C127.458 41.0349 127.006 41.5134 126.507 41.9856L126.851 42.3486C126.376 42.7986 125.862 43.2415 125.31 43.6769L125.001 43.2844C124.494 43.6842 123.954 44.0783 123.381 44.4661L123.661 44.8801C123.115 45.2503 122.541 45.6141 121.939 45.9714L121.684 45.5415C121.124 45.874 120.54 46.201 119.932 46.5222L120.165 46.9643C119.58 47.2738 118.973 47.5776 118.346 47.8756L118.131 47.424C117.537 47.7064 116.924 47.9835 116.293 48.2553L116.491 48.7145C115.879 48.9779 115.251 49.236 114.606 49.4887L114.424 49.0233C113.807 49.2652 113.175 49.5021 112.529 49.734L112.698 50.2046C112.068 50.4305 111.425 50.6515 110.769 50.8674L110.613 50.3925C109.982 50.5999 109.34 50.8027 108.685 51.0006L108.83 51.4792C108.19 51.6728 107.539 51.8617 106.878 52.0458L106.744 51.5641C106.102 51.7428 105.45 51.9169 104.788 52.0864L104.912 52.5708C104.262 52.7373 103.602 52.8994 102.934 53.0568L102.819 52.5701C102.168 52.7236 101.507 52.8727 100.839 53.0174L100.944 53.5061C100.287 53.6483 99.6208 53.7863 98.9474 53.9197L98.8502 53.4293C98.1949 53.5592 97.5323 53.6848 96.8626 53.8062L96.9517 54.2982C96.2899 54.4181 95.6213 54.5338 94.9462 54.6452L94.8648 54.1518C94.202 54.2612 93.5329 54.3663 92.8576 54.4673L92.9315 54.9618C92.2646 55.0614 91.5918 55.157 90.9133 55.2483L90.8466 54.7527C90.1824 54.8421 89.5127 54.9274 88.8378 55.0086L88.8975 55.505C88.2279 55.5855 87.5531 55.6619 86.8735 55.7342L86.8206 55.237C86.1504 55.3083 85.4753 55.3756 84.7957 55.4387L84.8419 55.9365C84.1716 55.9988 83.4968 56.057 82.8178 56.1112L82.7781 55.6127C82.1075 55.6662 81.4327 55.7157 80.754 55.7612L80.7874 56.26C80.1122 56.3052 79.4332 56.3464 78.7505 56.3835L78.7233 55.8842C78.052 55.9207 77.3771 55.9532 76.6988 55.9817L76.7198 56.4813C76.0449 56.5096 75.3667 56.534 74.6853 56.5543L74.6704 56.0546C73.9954 56.0747 73.3174 56.0909 72.6364 56.103L72.6453 56.6029C71.9706 56.6149 71.293 56.623 70.6128 56.627L70.6098 56.127C70.2707 56.129 69.9308 56.13 69.5904 56.13C69.2499 56.13 68.9101 56.129 68.571 56.127L68.568 56.627C67.8878 56.623 67.2102 56.6149 66.5355 56.6029L66.5444 56.103C65.8634 56.0909 65.1853 56.0747 64.5104 56.0546L64.4955 56.5543C63.8141 56.534 63.1359 56.5096 62.461 56.4813L62.482 55.9817C61.8037 55.9532 61.1288 55.9207 60.4574 55.8842L60.4303 56.3835C59.7476 56.3464 59.0685 56.3052 58.3934 56.26L58.4267 55.7612C57.7481 55.7157 57.0733 55.6662 56.4027 55.6127L56.363 56.1112C55.684 56.057 55.0092 55.9988 54.3389 55.9365L54.3851 55.4387C53.7054 55.3756 53.0304 55.3083 52.3602 55.237L52.3073 55.7342C51.6277 55.6619 50.9529 55.5855 50.2833 55.505L50.343 55.0086C49.668 54.9274 48.9983 54.8421 48.3342 54.7527L48.2675 55.2483C47.589 55.157 46.9162 55.0614 46.2493 54.9618L46.3232 54.4673C45.6479 54.3663 44.9788 54.2612 44.316 54.1518L44.2346 54.6452C43.5594 54.5338 42.8908 54.4181 42.2291 54.2982L42.3182 53.8062C41.6485 53.6848 40.9858 53.5592 40.3305 53.4293L40.2333 53.9197C39.5599 53.7863 38.8942 53.6483 38.2364 53.5061L38.3421 53.0174C37.6734 52.8727 37.0131 52.7236 36.3614 52.5701L36.2468 53.0568C35.5783 52.8994 34.9188 52.7373 34.2686 52.5708L34.3927 52.0864C33.7308 51.9169 33.0788 51.7428 32.437 51.5641L32.3029 52.0458C31.6413 51.8617 30.9904 51.6728 30.3506 51.4792L30.4954 51.0006C29.841 50.8027 29.1985 50.5999 28.5682 50.3925L28.4119 50.8674C27.7558 50.6515 27.1126 50.4305 26.4829 50.2046L26.6517 49.734C26.0055 49.5021 25.3738 49.2652 24.757 49.0233L24.5744 49.4887C23.9301 49.236 23.3018 48.9779 22.6901 48.7145L22.8878 48.2553C22.2566 47.9835 21.6436 47.7064 21.0493 47.424L20.8347 47.8756C20.2077 47.5776 19.601 47.2738 19.0154 46.9643L19.249 46.5222C18.6412 46.201 18.057 45.874 17.4971 45.5415L17.2418 45.9714C16.6402 45.6141 16.0657 45.2503 15.5192 44.8801L15.7997 44.4661C15.2271 44.0783 14.6869 43.6842 14.1801 43.2844L13.8704 43.6769C13.3186 43.2415 12.8044 42.7985 12.3294 42.3485L12.6733 41.9856C12.1749 41.5134 11.7225 41.0349 11.3175 40.5511L10.9341 40.8721C10.4802 40.3299 10.0819 39.779 9.74166 39.2202L10.1687 38.9601C9.81878 38.3854 9.53492 37.8053 9.3184 37.2209L8.84954 37.3946C8.60937 36.7463 8.44628 36.0892 8.36375 35.4244L8.85994 35.3628C8.82063 35.0462 8.80078 34.728 8.80078 34.4081C8.80078 34.0882 8.82063 33.7699 8.85994 33.4533L8.36375 33.3917C8.44628 32.7269 8.60937 32.0698 8.84955 31.4215L9.31841 31.5952C9.53493 31.0108 9.81879 30.4307 10.1687 29.856L9.74167 29.5959C10.0819 29.0371 10.4802 28.4862 10.9341 27.944L11.3175 28.265C11.7225 27.7812 12.1749 27.3027 12.6733 26.8305L12.3294 26.4676C12.8044 26.0176 13.3186 25.5746 13.8704 25.1392L14.1801 25.5317C14.6869 25.1319 15.2271 24.7378 15.7997 24.35L15.5193 23.936C16.0657 23.5659 16.6402 23.202 17.2418 22.8447L17.4971 23.2746C18.057 22.9421 18.6412 22.6151 19.249 22.2939L19.0154 21.8518C19.601 21.5423 20.2077 21.2385 20.8347 20.9405L21.0493 21.3921C21.6436 21.1098 22.2566 20.8326 22.8878 20.5608L22.6901 20.1016C23.3018 19.8382 23.9301 19.5801 24.5744 19.3274L24.757 19.7929C25.3738 19.551 26.0055 19.314 26.6518 19.0821L26.4829 18.6115C27.1126 18.3856 27.7558 18.1646 28.4119 17.9487L28.5682 18.4236C29.1985 18.2162 29.8411 18.0134 30.4954 17.8155L30.3506 17.3369C30.9905 17.1433 31.6414 16.9544 32.3029 16.7703L32.437 17.252C33.0788 17.0733 33.7308 16.8992 34.3927 16.7297L34.2686 16.2453C34.9188 16.0788 35.5783 15.9168 36.2468 15.7593L36.3614 16.246C37.0131 16.0925 37.6734 15.9434 38.3421 15.7987L38.2364 15.31C38.8942 15.1678 39.5599 15.0299 40.2333 14.8964L40.3305 15.3868C40.9858 15.257 41.6485 15.1313 42.3182 15.0099L42.2291 14.5179C42.8908 14.398 43.5594 14.2823 44.2346 14.171L44.316 14.6643C44.9788 14.555 45.6479 14.4498 46.3232 14.3489L46.2493 13.8543C46.9162 13.7547 47.589 13.6592 48.2675 13.5679L48.3342 14.0634C48.9983 13.974 49.668 13.8887 50.343 13.8076L50.2833 13.3111C50.9529 13.2306 51.6277 13.1542 52.3073 13.0819L52.3602 13.5791C53.0304 13.5078 53.7055 13.4406 54.3851 13.3774L54.3389 12.8796C55.0092 12.8173 55.684 12.7591 56.363 12.705L56.4027 13.2034C57.0733 13.1499 57.7481 13.1004 58.4268 13.055L58.3934 12.5561C59.0685 12.5109 59.7476 12.4697 60.4303 12.4326L60.4574 12.9319C61.1288 12.8954 61.8037 12.8629 62.482 12.8344L62.461 12.3348C63.1359 12.3065 63.8141 12.2821 64.4955 12.2618L64.5104 12.7616C65.1853 12.7414 65.8634 12.7253 66.5444 12.7131L66.5355 12.2132C67.2102 12.2012 67.8878 12.1932 68.568 12.1891L68.571 12.6891C68.9101 12.6871 69.2499 12.6861 69.5904 12.6861C69.9309 12.6861 70.2707 12.6871 70.6098 12.6891L70.6128 12.1891C71.293 12.1932 71.9706 12.2012 72.6453 12.2132L72.6364 12.7131C73.3174 12.7253 73.9954 12.7414 74.6704 12.7616L74.6853 12.2618C75.3667 12.2821 76.0449 12.3065 76.7198 12.3348L76.6988 12.8344C77.3771 12.8629 78.052 12.8954 78.7233 12.9319L78.7505 12.4326C79.4332 12.4697 80.1122 12.5109 80.7874 12.5561L80.754 13.055C81.4327 13.1004 82.1075 13.1499 82.7781 13.2034L82.8178 12.705C83.4968 12.7591 84.1716 12.8173 84.8419 12.8796L84.7957 13.3774C85.4753 13.4406 86.1504 13.5078 86.8206 13.5791L86.8735 13.0819C87.5531 13.1542 88.2279 13.2306 88.8975 13.3111L88.8378 13.8076C89.5127 13.8887 90.1824 13.974 90.8466 14.0634L90.9133 13.5679C91.5918 13.6592 92.2646 13.7547 92.9315 13.8543L92.8576 14.3489C93.5329 14.4498 94.202 14.555 94.8648 14.6643L94.9462 14.171C95.6213 14.2823 96.2899 14.398 96.9517 14.5179L96.8626 15.0099C97.5323 15.1313 98.1949 15.257 98.8502 15.3868L98.9474 14.8964C99.6208 15.0299 100.287 15.1678 100.944 15.31L100.839 15.7987C101.507 15.9434 102.168 16.0925 102.819 16.246L102.934 15.7593C103.602 15.9168 104.262 16.0788 104.912 16.2453L104.788 16.7297C105.45 16.8992 106.102 17.0734 106.744 17.252L106.878 16.7703C107.539 16.9544 108.19 17.1433 108.83 17.3369L108.685 17.8155C109.34 18.0134 109.982 18.2162 110.613 18.4236L110.769 17.9487C111.425 18.1646 112.068 18.3856 112.698 18.6115L112.529 19.0821C113.175 19.314 113.807 19.551 114.424 19.7929L114.606 19.3274C115.251 19.5801 115.879 19.8382 116.491 20.1016L116.293 20.5608C116.924 20.8326 117.537 21.1098 118.131 21.3921L118.346 20.9405C118.973 21.2385 119.58 21.5423 120.165 21.8519L119.932 22.2939C120.54 22.6151 121.124 22.9421 121.684 23.2746L121.939 22.8447C122.541 23.202 123.115 23.5659 123.662 23.936L123.381 24.35C123.954 24.7378 124.494 25.1319 125.001 25.5318L125.31 25.1392C125.862 25.5746 126.376 26.0176 126.851 26.4676L126.507 26.8305C127.006 27.3028 127.458 27.7812 127.863 28.265L128.247 27.944C128.701 28.4862 129.099 29.0371 129.439 29.5959L129.012 29.856C129.362 30.4307 129.646 31.0108 129.862 31.5952L130.331 31.4215Z" stroke="#FFF0E3" stroke-dasharray="2 2"/>
<circle cx="86.0775" cy="40.5013" r="6.09312" fill="#FF8225"/>
<circle cx="102.924" cy="26.5228" r="8.81889" fill="#BF9BD2" stroke="black"/>
<circle cx="120.755" cy="47.2089" r="12.9031" fill="#10B9C3"/>
<g filter="url(#filter0_d_1387_3957)">
<path d="M4 68.8164C23.0031 68.8164 38.4082 53.4113 38.4082 34.4082C38.4082 15.4051 23.0031 0 4 0V68.8164Z" fill="#FFF0E3"/>
<path d="M37.9082 34.4082C37.9082 52.9682 22.9965 68.0454 4.5 68.3128V0.503611C22.9965 0.770963 37.9082 15.8482 37.9082 34.4082Z" stroke="white"/>
</g>
<path d="M262.706 17.1171H264.998C265.038 17.3891 265.162 17.6291 265.37 17.8371C265.578 18.0451 265.854 18.2051 266.198 18.3171C266.55 18.4291 266.958 18.4851 267.422 18.4851C268.086 18.4851 268.606 18.3931 268.982 18.2091C269.366 18.0251 269.558 17.7651 269.558 17.4291C269.558 17.1731 269.446 16.9771 269.222 16.8411C269.006 16.6971 268.598 16.5931 267.998 16.5291L266.258 16.3491C265.05 16.2291 264.174 15.9491 263.63 15.5091C263.094 15.0691 262.826 14.4691 262.826 13.7091C262.826 13.1091 263.002 12.5971 263.354 12.1731C263.714 11.7491 264.214 11.4251 264.854 11.2011C265.502 10.9771 266.258 10.8651 267.122 10.8651C267.978 10.8651 268.734 10.9891 269.39 11.2371C270.046 11.4851 270.57 11.8291 270.962 12.2691C271.354 12.7091 271.566 13.2211 271.598 13.8051H269.306C269.274 13.5651 269.162 13.3611 268.97 13.1931C268.786 13.0171 268.534 12.8811 268.214 12.7851C267.902 12.6811 267.522 12.6291 267.074 12.6291C266.474 12.6291 265.994 12.7171 265.634 12.8931C265.282 13.0611 265.106 13.3051 265.106 13.6251C265.106 13.8651 265.21 14.0531 265.418 14.1891C265.634 14.3251 266.014 14.4251 266.558 14.4891L268.394 14.6931C269.234 14.7811 269.906 14.9211 270.41 15.1131C270.914 15.3051 271.278 15.5691 271.502 15.9051C271.726 16.2411 271.838 16.6651 271.838 17.1771C271.838 17.7931 271.65 18.3331 271.274 18.7971C270.906 19.2531 270.386 19.6091 269.714 19.8651C269.05 20.1211 268.274 20.2491 267.386 20.2491C266.466 20.2491 265.658 20.1171 264.962 19.8531C264.274 19.5891 263.73 19.2251 263.33 18.7611C262.938 18.2891 262.73 17.7411 262.706 17.1171ZM272.943 13.1211L274.047 13.3491L275.163 13.1211V20.0571H272.943V13.1211ZM274.059 12.4971C273.667 12.4971 273.347 12.3971 273.099 12.1971C272.851 11.9891 272.727 11.7171 272.727 11.3811C272.727 11.0371 272.851 10.7651 273.099 10.5651C273.347 10.3651 273.667 10.2651 274.059 10.2651C274.459 10.2651 274.779 10.3651 275.019 10.5651C275.259 10.7651 275.379 11.0371 275.379 11.3811C275.379 11.7171 275.259 11.9891 275.019 12.1971C274.779 12.3971 274.459 12.4971 274.059 12.4971ZM282.815 20.0571L282.515 17.5731L282.839 16.6371L282.515 15.7131L282.815 13.2171H285.131L284.711 16.6371L285.131 20.0571H282.815ZM283.367 16.6371C283.247 17.3651 283.019 18.0011 282.683 18.5451C282.347 19.0811 281.923 19.5011 281.411 19.8051C280.899 20.1011 280.323 20.2491 279.683 20.2491C279.011 20.2491 278.419 20.0971 277.907 19.7931C277.403 19.4891 277.007 19.0691 276.719 18.5331C276.431 17.9891 276.287 17.3571 276.287 16.6371C276.287 15.9171 276.431 15.2891 276.719 14.7531C277.007 14.2091 277.403 13.7851 277.907 13.4811C278.419 13.1771 279.011 13.0251 279.683 13.0251C280.323 13.0251 280.899 13.1771 281.411 13.4811C281.923 13.7771 282.347 14.1931 282.683 14.7291C283.027 15.2651 283.255 15.9011 283.367 16.6371ZM278.543 16.6371C278.543 17.0051 278.619 17.3331 278.771 17.6211C278.923 17.9011 279.131 18.1251 279.395 18.2931C279.667 18.4531 279.979 18.5331 280.331 18.5331C280.683 18.5331 281.015 18.4531 281.327 18.2931C281.647 18.1251 281.927 17.9011 282.167 17.6211C282.407 17.3331 282.587 17.0051 282.707 16.6371C282.587 16.2691 282.407 15.9451 282.167 15.6651C281.927 15.3771 281.647 15.1531 281.327 14.9931C281.015 14.8251 280.683 14.7411 280.331 14.7411C279.979 14.7411 279.667 14.8251 279.395 14.9931C279.131 15.1531 278.923 15.3771 278.771 15.6651C278.619 15.9451 278.543 16.2691 278.543 16.6371ZM286.072 13.2171H288.292L288.736 15.8811V20.0571H286.504V15.5451L286.072 13.2171ZM291.136 13.0251C291.76 13.0251 292.288 13.1571 292.72 13.4211C293.16 13.6851 293.492 14.0571 293.716 14.5371C293.948 15.0091 294.064 15.5771 294.064 16.2411V20.0571H291.832V16.5771C291.832 16.0091 291.708 15.5811 291.46 15.2931C291.212 14.9971 290.848 14.8491 290.368 14.8491C290.032 14.8491 289.74 14.9291 289.492 15.0891C289.252 15.2411 289.064 15.4611 288.928 15.7491C288.8 16.0291 288.736 16.3651 288.736 16.7571L288.028 16.3851C288.116 15.6571 288.304 15.0451 288.592 14.5491C288.888 14.0531 289.252 13.6771 289.684 13.4211C290.124 13.1571 290.608 13.0251 291.136 13.0251ZM296.452 13.0251C297.076 13.0251 297.608 13.1571 298.048 13.4211C298.488 13.6851 298.82 14.0571 299.044 14.5371C299.276 15.0091 299.392 15.5771 299.392 16.2411V20.0571H297.16V16.5771C297.16 16.0091 297.036 15.5811 296.788 15.2931C296.54 14.9971 296.176 14.8491 295.696 14.8491C295.36 14.8491 295.068 14.9291 294.82 15.0891C294.58 15.2411 294.392 15.4611 294.256 15.7491C294.128 16.0291 294.064 16.3651 294.064 16.7571L293.356 16.3851C293.444 15.6571 293.632 15.0451 293.92 14.5491C294.208 14.0531 294.572 13.6771 295.012 13.4211C295.452 13.1571 295.932 13.0251 296.452 13.0251ZM304.724 20.2491C303.86 20.2491 303.104 20.0971 302.456 19.7931C301.808 19.4891 301.304 19.0651 300.944 18.5211C300.584 17.9771 300.404 17.3491 300.404 16.6371C300.404 15.9171 300.584 15.2891 300.944 14.7531C301.304 14.2091 301.808 13.7851 302.456 13.4811C303.112 13.1771 303.868 13.0251 304.724 13.0251C305.588 13.0251 306.344 13.1771 306.992 13.4811C307.64 13.7851 308.144 14.2091 308.504 14.7531C308.872 15.2891 309.056 15.9171 309.056 16.6371C309.056 17.3571 308.872 17.9891 308.504 18.5331C308.144 19.0691 307.64 19.4891 306.992 19.7931C306.344 20.0971 305.588 20.2491 304.724 20.2491ZM304.724 18.5691C305.164 18.5691 305.536 18.4931 305.84 18.3411C306.152 18.1811 306.388 17.9571 306.548 17.6691C306.716 17.3811 306.8 17.0371 306.8 16.6371C306.8 16.2371 306.716 15.8931 306.548 15.6051C306.388 15.3091 306.152 15.0851 305.84 14.9331C305.536 14.7731 305.164 14.6931 304.724 14.6931C304.3 14.6931 303.932 14.7731 303.62 14.9331C303.308 15.0851 303.068 15.3091 302.9 15.6051C302.732 15.8931 302.648 16.2371 302.648 16.6371C302.648 17.0371 302.732 17.3811 302.9 17.6691C303.068 17.9571 303.308 18.1811 303.62 18.3411C303.932 18.4931 304.3 18.5691 304.724 18.5691ZM321.441 13.2171V22.0371H319.209V17.8731L319.305 17.3451V15.5691L319.209 15.2811V13.2171H321.441ZM319.953 16.6371C319.833 17.3651 319.605 18.0011 319.269 18.5451C318.933 19.0811 318.509 19.5011 317.997 19.8051C317.485 20.1011 316.905 20.2491 316.257 20.2491C315.593 20.2491 315.005 20.0971 314.493 19.7931C313.981 19.4891 313.581 19.0691 313.293 18.5331C313.013 17.9891 312.873 17.3571 312.873 16.6371C312.873 15.9171 313.013 15.2891 313.293 14.7531C313.581 14.2091 313.981 13.7851 314.493 13.4811C315.005 13.1771 315.593 13.0251 316.257 13.0251C316.905 13.0251 317.485 13.1771 317.997 13.4811C318.509 13.7771 318.933 14.1931 319.269 14.7291C319.613 15.2651 319.841 15.9011 319.953 16.6371ZM315.117 16.6371C315.117 17.0051 315.193 17.3331 315.345 17.6211C315.497 17.9011 315.709 18.1251 315.981 18.2931C316.253 18.4531 316.561 18.5331 316.905 18.5331C317.265 18.5331 317.601 18.4531 317.913 18.2931C318.225 18.1251 318.501 17.9011 318.741 17.6211C318.981 17.3331 319.165 17.0051 319.293 16.6371C319.165 16.2691 318.981 15.9451 318.741 15.6651C318.501 15.3771 318.225 15.1531 317.913 14.9931C317.601 14.8251 317.265 14.7411 316.905 14.7411C316.561 14.7411 316.253 14.8251 315.981 14.9931C315.709 15.1531 315.497 15.3771 315.345 15.6651C315.193 15.9451 315.117 16.2691 315.117 16.6371ZM325.792 20.2371C325.16 20.2371 324.616 20.1091 324.16 19.8531C323.712 19.5891 323.368 19.2171 323.128 18.7371C322.896 18.2571 322.78 17.6891 322.78 17.0331V13.2171H325.012V16.7091C325.012 17.2611 325.144 17.6851 325.408 17.9811C325.672 18.2771 326.052 18.4251 326.548 18.4251C326.916 18.4251 327.228 18.3491 327.484 18.1971C327.74 18.0451 327.936 17.8251 328.072 17.5371C328.216 17.2491 328.288 16.9091 328.288 16.5171L328.984 16.8891C328.904 17.6091 328.712 18.2211 328.408 18.7251C328.112 19.2211 327.736 19.5971 327.28 19.8531C326.832 20.1091 326.336 20.2371 325.792 20.2371ZM328.72 20.0571L328.288 17.3931V13.2171H330.508V17.7291L330.952 20.0571H328.72ZM332.064 13.1211L333.168 13.3491L334.284 13.1211V20.0571H332.064V13.1211ZM333.18 12.4971C332.788 12.4971 332.468 12.3971 332.22 12.1971C331.972 11.9891 331.848 11.7171 331.848 11.3811C331.848 11.0371 331.972 10.7651 332.22 10.5651C332.468 10.3651 332.788 10.2651 333.18 10.2651C333.58 10.2651 333.9 10.3651 334.14 10.5651C334.38 10.7651 334.5 11.0371 334.5 11.3811C334.5 11.7171 334.38 11.9891 334.14 12.1971C333.9 12.3971 333.58 12.4971 333.18 12.4971ZM335.72 11.0571H338.036L337.664 16.9851H336.08L335.72 11.0571ZM336.872 20.1771C336.496 20.1771 336.192 20.0691 335.96 19.8531C335.728 19.6291 335.612 19.3411 335.612 18.9891C335.612 18.6371 335.728 18.3531 335.96 18.1371C336.192 17.9211 336.496 17.8131 336.872 17.8131C337.248 17.8131 337.552 17.9211 337.784 18.1371C338.016 18.3531 338.132 18.6371 338.132 18.9891C338.132 19.3411 338.016 19.6291 337.784 19.8531C337.552 20.0691 337.248 20.1771 336.872 20.1771Z" fill="white"/>
<path d="M227.032 34.6331C227.232 34.6331 227.404 34.7011 227.548 34.8371C227.7 34.9651 227.776 35.1291 227.776 35.3291C227.776 35.4331 227.752 35.5411 227.704 35.6531L224.74 42.5891C224.668 42.7491 224.564 42.8691 224.428 42.9491C224.3 43.0211 224.168 43.0571 224.032 43.0571C223.904 43.0491 223.78 43.0091 223.66 42.9371C223.54 42.8571 223.448 42.7451 223.384 42.6011L220.42 35.6411C220.396 35.5931 220.38 35.5451 220.372 35.4971C220.364 35.4411 220.36 35.3891 220.36 35.3411C220.36 35.1091 220.444 34.9331 220.612 34.8131C220.78 34.6851 220.94 34.6211 221.092 34.6211C221.396 34.6211 221.616 34.7771 221.752 35.0891L224.38 41.2691L223.96 41.2811L226.372 35.0891C226.508 34.7851 226.728 34.6331 227.032 34.6331ZM230.269 42.3251C230.269 42.5331 230.201 42.7091 230.065 42.8531C229.929 42.9891 229.757 43.0571 229.549 43.0571C229.341 43.0571 229.169 42.9891 229.033 42.8531C228.897 42.7091 228.829 42.5331 228.829 42.3251V37.3691C228.829 37.1611 228.897 36.9891 229.033 36.8531C229.169 36.7091 229.341 36.6371 229.549 36.6371C229.757 36.6371 229.929 36.7091 230.065 36.8531C230.201 36.9891 230.269 37.1611 230.269 37.3691V42.3251ZM229.537 35.8571C229.265 35.8571 229.073 35.8131 228.961 35.7251C228.849 35.6371 228.793 35.4811 228.793 35.2571V35.0291C228.793 34.7971 228.853 34.6411 228.973 34.5611C229.101 34.4731 229.293 34.4291 229.549 34.4291C229.829 34.4291 230.025 34.4731 230.137 34.5611C230.249 34.6491 230.305 34.8051 230.305 35.0291V35.2571C230.305 35.4891 230.245 35.6491 230.125 35.7371C230.005 35.8171 229.809 35.8571 229.537 35.8571ZM237.005 36.5171C237.213 36.5171 237.385 36.5851 237.521 36.7211C237.657 36.8571 237.725 37.0331 237.725 37.2491V42.3251C237.725 42.5331 237.657 42.7091 237.521 42.8531C237.385 42.9891 237.213 43.0571 237.005 43.0571C236.797 43.0571 236.625 42.9891 236.489 42.8531C236.353 42.7091 236.285 42.5331 236.285 42.3251V41.7371L236.549 41.8451C236.549 41.9491 236.493 42.0771 236.381 42.2291C236.269 42.3731 236.117 42.5171 235.925 42.6611C235.733 42.8051 235.505 42.9291 235.241 43.0331C234.985 43.1291 234.705 43.1771 234.401 43.1771C233.849 43.1771 233.349 43.0371 232.901 42.7571C232.453 42.4691 232.097 42.0771 231.833 41.5811C231.577 41.0771 231.449 40.5011 231.449 39.8531C231.449 39.1971 231.577 38.6211 231.833 38.1251C232.097 37.6211 232.449 37.2291 232.889 36.9491C233.329 36.6611 233.817 36.5171 234.353 36.5171C234.697 36.5171 235.013 36.5691 235.301 36.6731C235.589 36.7771 235.837 36.9091 236.045 37.0691C236.261 37.2291 236.425 37.3931 236.537 37.5611C236.657 37.7211 236.717 37.8571 236.717 37.9691L236.285 38.1251V37.2491C236.285 37.0411 236.353 36.8691 236.489 36.7331C236.625 36.5891 236.797 36.5171 237.005 36.5171ZM234.581 41.8571C234.933 41.8571 235.241 41.7691 235.505 41.5931C235.769 41.4171 235.973 41.1771 236.117 40.8731C236.269 40.5691 236.345 40.2291 236.345 39.8531C236.345 39.4691 236.269 39.1251 236.117 38.8211C235.973 38.5171 235.769 38.2771 235.505 38.1011C235.241 37.9251 234.933 37.8371 234.581 37.8371C234.237 37.8371 233.933 37.9251 233.669 38.1011C233.405 38.2771 233.197 38.5171 233.045 38.8211C232.901 39.1251 232.829 39.4691 232.829 39.8531C232.829 40.2291 232.901 40.5691 233.045 40.8731C233.197 41.1771 233.405 41.4171 233.669 41.5931C233.933 41.7691 234.237 41.8571 234.581 41.8571ZM240.844 42.3251C240.844 42.5331 240.772 42.7091 240.628 42.8531C240.492 42.9891 240.32 43.0571 240.112 43.0571C239.912 43.0571 239.744 42.9891 239.608 42.8531C239.472 42.7091 239.404 42.5331 239.404 42.3251V34.9091C239.404 34.7011 239.472 34.5291 239.608 34.3931C239.752 34.2491 239.928 34.1771 240.136 34.1771C240.344 34.1771 240.512 34.2491 240.64 34.3931C240.776 34.5291 240.844 34.7011 240.844 34.9091V42.3251ZM245.425 43.1771C244.745 43.1771 244.153 43.0371 243.649 42.7571C243.153 42.4691 242.769 42.0811 242.497 41.5931C242.233 41.1051 242.101 40.5531 242.101 39.9371C242.101 39.2171 242.245 38.6051 242.533 38.1011C242.829 37.5891 243.213 37.1971 243.685 36.9251C244.157 36.6531 244.657 36.5171 245.185 36.5171C245.593 36.5171 245.977 36.6011 246.337 36.7691C246.705 36.9371 247.029 37.1691 247.309 37.4651C247.589 37.7531 247.809 38.0891 247.969 38.4731C248.137 38.8571 248.221 39.2651 248.221 39.6971C248.213 39.8891 248.137 40.0451 247.993 40.1651C247.849 40.2851 247.681 40.3451 247.489 40.3451H242.905L242.545 39.1451H246.949L246.685 39.3851V39.0611C246.669 38.8291 246.585 38.6211 246.433 38.4371C246.289 38.2531 246.105 38.1091 245.881 38.0051C245.665 37.8931 245.433 37.8371 245.185 37.8371C244.945 37.8371 244.721 37.8691 244.513 37.9331C244.305 37.9971 244.125 38.1051 243.973 38.2571C243.821 38.4091 243.701 38.6131 243.613 38.8691C243.525 39.1251 243.481 39.4491 243.481 39.8411C243.481 40.2731 243.569 40.6411 243.745 40.9451C243.929 41.2411 244.161 41.4691 244.441 41.6291C244.729 41.7811 245.033 41.8571 245.353 41.8571C245.649 41.8571 245.885 41.8331 246.061 41.7851C246.237 41.7371 246.377 41.6811 246.481 41.6171C246.593 41.5451 246.693 41.4851 246.781 41.4371C246.925 41.3651 247.061 41.3291 247.189 41.3291C247.365 41.3291 247.509 41.3891 247.621 41.5091C247.741 41.6291 247.801 41.7691 247.801 41.9291C247.801 42.1451 247.689 42.3411 247.465 42.5171C247.257 42.6931 246.965 42.8491 246.589 42.9851C246.213 43.1131 245.825 43.1771 245.425 43.1771ZM226.036 49.1771C226.244 49.1771 226.416 49.2451 226.552 49.3811C226.688 49.5171 226.756 49.6931 226.756 49.9091V57.3251C226.756 57.5331 226.688 57.7091 226.552 57.8531C226.416 57.9891 226.244 58.0571 226.036 58.0571C225.828 58.0571 225.656 57.9891 225.52 57.8531C225.384 57.7091 225.316 57.5331 225.316 57.3251V56.7371L225.58 56.8451C225.58 56.9491 225.524 57.0771 225.412 57.2291C225.3 57.3731 225.148 57.5171 224.956 57.6611C224.764 57.8051 224.536 57.9291 224.272 58.0331C224.016 58.1291 223.736 58.1771 223.432 58.1771C222.88 58.1771 222.38 58.0371 221.932 57.7571C221.484 57.4691 221.128 57.0771 220.864 56.5811C220.608 56.0771 220.48 55.5011 220.48 54.8531C220.48 54.1971 220.608 53.6211 220.864 53.1251C221.128 52.6211 221.48 52.2291 221.92 51.9491C222.36 51.6611 222.848 51.5171 223.384 51.5171C223.728 51.5171 224.044 51.5691 224.332 51.6731C224.62 51.7771 224.868 51.9091 225.076 52.0691C225.292 52.2291 225.456 52.3931 225.568 52.5611C225.688 52.7211 225.748 52.8571 225.748 52.9691L225.316 53.1251V49.9091C225.316 49.7011 225.384 49.5291 225.52 49.3931C225.656 49.2491 225.828 49.1771 226.036 49.1771ZM223.612 56.8571C223.964 56.8571 224.272 56.7691 224.536 56.5931C224.8 56.4171 225.004 56.1771 225.148 55.8731C225.3 55.5691 225.376 55.2291 225.376 54.8531C225.376 54.4691 225.3 54.1251 225.148 53.8211C225.004 53.5171 224.8 53.2771 224.536 53.1011C224.272 52.9251 223.964 52.8371 223.612 52.8371C223.268 52.8371 222.964 52.9251 222.7 53.1011C222.436 53.2771 222.228 53.5171 222.076 53.8211C221.932 54.1251 221.86 54.4691 221.86 54.8531C221.86 55.2291 221.932 55.5691 222.076 55.8731C222.228 56.1771 222.436 56.4171 222.7 56.5931C222.964 56.7691 223.268 56.8571 223.612 56.8571ZM231.339 58.1771C230.659 58.1771 230.067 58.0371 229.563 57.7571C229.067 57.4691 228.683 57.0811 228.411 56.5931C228.147 56.1051 228.015 55.5531 228.015 54.9371C228.015 54.2171 228.159 53.6051 228.447 53.1011C228.743 52.5891 229.127 52.1971 229.599 51.9251C230.071 51.6531 230.571 51.5171 231.099 51.5171C231.507 51.5171 231.891 51.6011 232.251 51.7691C232.619 51.9371 232.943 52.1691 233.223 52.4651C233.503 52.7531 233.723 53.0891 233.883 53.4731C234.051 53.8571 234.135 54.2651 234.135 54.6971C234.127 54.8891 234.051 55.0451 233.907 55.1651C233.763 55.2851 233.595 55.3451 233.403 55.3451H228.819L228.459 54.1451H232.863L232.599 54.3851V54.0611C232.583 53.8291 232.499 53.6211 232.347 53.4371C232.203 53.2531 232.019 53.1091 231.795 53.0051C231.579 52.8931 231.347 52.8371 231.099 52.8371C230.859 52.8371 230.635 52.8691 230.427 52.9331C230.219 52.9971 230.039 53.1051 229.887 53.2571C229.735 53.4091 229.615 53.6131 229.527 53.8691C229.439 54.1251 229.395 54.4491 229.395 54.8411C229.395 55.2731 229.483 55.6411 229.659 55.9451C229.843 56.2411 230.075 56.4691 230.355 56.6291C230.643 56.7811 230.947 56.8571 231.267 56.8571C231.563 56.8571 231.799 56.8331 231.975 56.7851C232.151 56.7371 232.291 56.6811 232.395 56.6171C232.507 56.5451 232.607 56.4851 232.695 56.4371C232.839 56.3651 232.975 56.3291 233.103 56.3291C233.279 56.3291 233.423 56.3891 233.535 56.5091C233.655 56.6291 233.715 56.7691 233.715 56.9291C233.715 57.1451 233.603 57.3411 233.379 57.5171C233.171 57.6931 232.879 57.8491 232.503 57.9851C232.127 58.1131 231.739 58.1771 231.339 58.1771ZM236.953 57.3251C236.953 57.5331 236.881 57.7091 236.737 57.8531C236.601 57.9891 236.429 58.0571 236.221 58.0571C236.021 58.0571 235.853 57.9891 235.717 57.8531C235.581 57.7091 235.513 57.5331 235.513 57.3251V49.9091C235.513 49.7011 235.581 49.5291 235.717 49.3931C235.861 49.2491 236.037 49.1771 236.245 49.1771C236.453 49.1771 236.621 49.2491 236.749 49.3931C236.885 49.5291 236.953 49.7011 236.953 49.9091V57.3251ZM240.188 57.3251C240.188 57.5331 240.116 57.7091 239.972 57.8531C239.836 57.9891 239.664 58.0571 239.456 58.0571C239.256 58.0571 239.088 57.9891 238.952 57.8531C238.816 57.7091 238.748 57.5331 238.748 57.3251V49.9091C238.748 49.7011 238.816 49.5291 238.952 49.3931C239.096 49.2491 239.272 49.1771 239.48 49.1771C239.688 49.1771 239.856 49.2491 239.984 49.3931C240.12 49.5291 240.188 49.7011 240.188 49.9091V57.3251ZM243.686 50.8691C243.686 51.1331 243.61 51.4011 243.458 51.6731C243.314 51.9371 243.122 52.1611 242.882 52.3451C242.65 52.5211 242.402 52.6091 242.138 52.6091C242.05 52.6091 241.954 52.5731 241.85 52.5011C241.754 52.4291 241.706 52.3051 241.706 52.1291C241.706 51.9451 241.762 51.8371 241.874 51.8051C241.994 51.7651 242.094 51.7251 242.174 51.6851C242.278 51.6291 242.358 51.5651 242.414 51.4931C242.478 51.4131 242.51 51.3171 242.51 51.2051C242.51 51.1171 242.466 51.0411 242.378 50.9771C242.298 50.9051 242.19 50.8691 242.054 50.8691C242.006 50.8691 241.95 50.8771 241.886 50.8931C241.822 50.9011 241.766 50.9211 241.718 50.9531C241.638 50.9131 241.566 50.8651 241.502 50.8091C241.446 50.7451 241.418 50.6451 241.418 50.5091C241.418 50.2611 241.53 50.0491 241.754 49.8731C241.986 49.6891 242.254 49.5971 242.558 49.5971C242.902 49.5971 243.174 49.7131 243.374 49.9451C243.582 50.1771 243.686 50.4851 243.686 50.8691ZM246.787 57.3251C246.787 57.5331 246.711 57.7091 246.559 57.8531C246.407 57.9891 246.231 58.0571 246.031 58.0571C245.807 58.0571 245.627 57.9891 245.491 57.8531C245.355 57.7091 245.287 57.5331 245.287 57.3251V50.3891C245.287 50.1811 245.359 50.0091 245.503 49.8731C245.647 49.7291 245.831 49.6571 246.055 49.6571C246.247 49.6571 246.415 49.7291 246.559 49.8731C246.711 50.0091 246.787 50.1811 246.787 50.3891V57.3251ZM251.903 51.5171C252.495 51.5171 252.943 51.6411 253.247 51.8891C253.559 52.1371 253.771 52.4691 253.883 52.8851C254.003 53.2931 254.063 53.7491 254.063 54.2531V57.3251C254.063 57.5331 253.995 57.7091 253.859 57.8531C253.723 57.9891 253.551 58.0571 253.343 58.0571C253.135 58.0571 252.963 57.9891 252.827 57.8531C252.691 57.7091 252.623 57.5331 252.623 57.3251V54.2531C252.623 53.9891 252.587 53.7531 252.515 53.5451C252.451 53.3291 252.331 53.1571 252.155 53.0291C251.979 52.9011 251.727 52.8371 251.399 52.8371C251.079 52.8371 250.807 52.9011 250.583 53.0291C250.367 53.1571 250.199 53.3291 250.079 53.5451C249.967 53.7531 249.911 53.9891 249.911 54.2531V57.3251C249.911 57.5331 249.843 57.7091 249.707 57.8531C249.571 57.9891 249.399 58.0571 249.191 58.0571C248.983 58.0571 248.811 57.9891 248.675 57.8531C248.539 57.7091 248.471 57.5331 248.471 57.3251V52.3691C248.471 52.1611 248.539 51.9891 248.675 51.8531C248.811 51.7091 248.983 51.6371 249.191 51.6371C249.399 51.6371 249.571 51.7091 249.707 51.8531C249.843 51.9891 249.911 52.1611 249.911 52.3691V52.8851L249.731 52.8491C249.803 52.7131 249.907 52.5691 250.043 52.4171C250.179 52.2571 250.339 52.1091 250.523 51.9731C250.707 51.8371 250.915 51.7291 251.147 51.6491C251.379 51.5611 251.631 51.5171 251.903 51.5171ZM259.052 51.5171C259.644 51.5171 260.092 51.6411 260.396 51.8891C260.708 52.1371 260.92 52.4691 261.032 52.8851C261.152 53.2931 261.212 53.7491 261.212 54.2531V57.3251C261.212 57.5331 261.144 57.7091 261.008 57.8531C260.872 57.9891 260.7 58.0571 260.492 58.0571C260.284 58.0571 260.112 57.9891 259.976 57.8531C259.84 57.7091 259.772 57.5331 259.772 57.3251V54.2531C259.772 53.9891 259.736 53.7531 259.664 53.5451C259.6 53.3291 259.48 53.1571 259.304 53.0291C259.128 52.9011 258.876 52.8371 258.548 52.8371C258.228 52.8371 257.956 52.9011 257.732 53.0291C257.516 53.1571 257.348 53.3291 257.228 53.5451C257.116 53.7531 257.06 53.9891 257.06 54.2531V57.3251C257.06 57.5331 256.992 57.7091 256.856 57.8531C256.72 57.9891 256.548 58.0571 256.34 58.0571C256.132 58.0571 255.96 57.9891 255.824 57.8531C255.688 57.7091 255.62 57.5331 255.62 57.3251V52.3691C255.62 52.1611 255.688 51.9891 255.824 51.8531C255.96 51.7091 256.132 51.6371 256.34 51.6371C256.548 51.6371 256.72 51.7091 256.856 51.8531C256.992 51.9891 257.06 52.1611 257.06 52.3691V52.8851L256.88 52.8491C256.952 52.7131 257.056 52.5691 257.192 52.4171C257.328 52.2571 257.488 52.1091 257.672 51.9731C257.856 51.8371 258.064 51.7291 258.296 51.6491C258.528 51.5611 258.78 51.5171 259.052 51.5171ZM268.996 54.8531C268.996 55.5091 268.848 56.0891 268.552 56.5931C268.264 57.0891 267.872 57.4771 267.376 57.7571C266.888 58.0371 266.34 58.1771 265.732 58.1771C265.124 58.1771 264.572 58.0371 264.076 57.7571C263.588 57.4771 263.196 57.0891 262.9 56.5931C262.612 56.0891 262.468 55.5091 262.468 54.8531C262.468 54.1971 262.612 53.6211 262.9 53.1251C263.196 52.6211 263.588 52.2291 264.076 51.9491C264.572 51.6611 265.124 51.5171 265.732 51.5171C266.34 51.5171 266.888 51.6611 267.376 51.9491C267.872 52.2291 268.264 52.6211 268.552 53.1251C268.848 53.6211 268.996 54.1971 268.996 54.8531ZM267.556 54.8531C267.556 54.4451 267.472 54.0931 267.304 53.7971C267.144 53.4931 266.924 53.2571 266.644 53.0891C266.372 52.9211 266.068 52.8371 265.732 52.8371C265.396 52.8371 265.088 52.9211 264.808 53.0891C264.536 53.2571 264.316 53.4931 264.148 53.7971C263.988 54.0931 263.908 54.4451 263.908 54.8531C263.908 55.2531 263.988 55.6051 264.148 55.9091C264.316 56.2051 264.536 56.4371 264.808 56.6051C265.088 56.7731 265.396 56.8571 265.732 56.8571C266.068 56.8571 266.372 56.7731 266.644 56.6051C266.924 56.4371 267.144 56.2051 267.304 55.9091C267.472 55.6051 267.556 55.2531 267.556 54.8531ZM270.486 51.6371C270.638 51.6371 270.778 51.6771 270.906 51.7571C271.034 51.8291 271.13 51.9411 271.194 52.0931L272.958 56.1251L272.694 56.2451L274.494 52.1051C274.63 51.7851 274.842 51.6331 275.13 51.6491C275.33 51.6491 275.49 51.7131 275.61 51.8411C275.738 51.9611 275.802 52.1131 275.802 52.2971C275.802 52.3531 275.79 52.4131 275.766 52.4771C275.75 52.5411 275.73 52.6011 275.706 52.6571L273.462 57.6011C273.334 57.8891 273.13 58.0411 272.85 58.0571C272.698 58.0811 272.55 58.0531 272.406 57.9731C272.27 57.8931 272.166 57.7691 272.094 57.6011L269.862 52.6571C269.846 52.6171 269.826 52.5651 269.802 52.5011C269.786 52.4371 269.778 52.3611 269.778 52.2731C269.778 52.1291 269.842 51.9891 269.97 51.8531C270.098 51.7091 270.27 51.6371 270.486 51.6371ZM282.169 51.5171C282.377 51.5171 282.549 51.5851 282.685 51.7211C282.821 51.8571 282.889 52.0331 282.889 52.2491V57.3251C282.889 57.5331 282.821 57.7091 282.685 57.8531C282.549 57.9891 282.377 58.0571 282.169 58.0571C281.961 58.0571 281.789 57.9891 281.653 57.8531C281.517 57.7091 281.449 57.5331 281.449 57.3251V56.7371L281.713 56.8451C281.713 56.9491 281.657 57.0771 281.545 57.2291C281.433 57.3731 281.281 57.5171 281.089 57.6611C280.897 57.8051 280.669 57.9291 280.405 58.0331C280.149 58.1291 279.869 58.1771 279.565 58.1771C279.013 58.1771 278.513 58.0371 278.065 57.7571C277.617 57.4691 277.261 57.0771 276.997 56.5811C276.741 56.0771 276.613 55.5011 276.613 54.8531C276.613 54.1971 276.741 53.6211 276.997 53.1251C277.261 52.6211 277.613 52.2291 278.053 51.9491C278.493 51.6611 278.981 51.5171 279.517 51.5171C279.861 51.5171 280.177 51.5691 280.465 51.6731C280.753 51.7771 281.001 51.9091 281.209 52.0691C281.425 52.2291 281.589 52.3931 281.701 52.5611C281.821 52.7211 281.881 52.8571 281.881 52.9691L281.449 53.1251V52.2491C281.449 52.0411 281.517 51.8691 281.653 51.7331C281.789 51.5891 281.961 51.5171 282.169 51.5171ZM279.745 56.8571C280.097 56.8571 280.405 56.7691 280.669 56.5931C280.933 56.4171 281.137 56.1771 281.281 55.8731C281.433 55.5691 281.509 55.2291 281.509 54.8531C281.509 54.4691 281.433 54.1251 281.281 53.8211C281.137 53.5171 280.933 53.2771 280.669 53.1011C280.405 52.9251 280.097 52.8371 279.745 52.8371C279.401 52.8371 279.097 52.9251 278.833 53.1011C278.569 53.2771 278.361 53.5171 278.209 53.8211C278.065 54.1251 277.993 54.4691 277.993 54.8531C277.993 55.2291 278.065 55.5691 278.209 55.8731C278.361 56.1771 278.569 56.4171 278.833 56.5931C279.097 56.7691 279.401 56.8571 279.745 56.8571ZM288.54 56.7371C288.732 56.7371 288.892 56.8011 289.02 56.9291C289.148 57.0491 289.212 57.2051 289.212 57.3971C289.212 57.5811 289.148 57.7371 289.02 57.8651C288.892 57.9931 288.732 58.0571 288.54 58.0571H284.676C284.476 58.0571 284.316 57.9851 284.196 57.8411C284.076 57.6971 284.02 57.5531 284.028 57.4091C284.036 57.2891 284.052 57.1851 284.076 57.0971C284.1 57.0011 284.16 56.8931 284.256 56.7731L287.244 52.9091L287.22 53.0771H284.784C284.592 53.0771 284.432 53.0131 284.304 52.8851C284.176 52.7571 284.112 52.5971 284.112 52.4051C284.112 52.2211 284.176 52.0691 284.304 51.9491C284.432 51.8211 284.592 51.7571 284.784 51.7571H288.48C288.664 51.7571 288.82 51.8251 288.948 51.9611C289.076 52.0971 289.132 52.2691 289.116 52.4771C289.108 52.5571 289.092 52.6371 289.068 52.7171C289.052 52.7971 289 52.8931 288.912 53.0051L285.972 56.8091V56.7371H288.54ZM291.616 57.3251C291.616 57.5331 291.548 57.7091 291.412 57.8531C291.276 57.9891 291.104 58.0571 290.896 58.0571C290.688 58.0571 290.516 57.9891 290.38 57.8531C290.244 57.7091 290.176 57.5331 290.176 57.3251V52.3691C290.176 52.1611 290.244 51.9891 290.38 51.8531C290.516 51.7091 290.688 51.6371 290.896 51.6371C291.104 51.6371 291.276 51.7091 291.412 51.8531C291.548 51.9891 291.616 52.1611 291.616 52.3691V57.3251ZM290.884 50.8571C290.612 50.8571 290.42 50.8131 290.308 50.7251C290.196 50.6371 290.14 50.4811 290.14 50.2571V50.0291C290.14 49.7971 290.2 49.6411 290.32 49.5611C290.448 49.4731 290.64 49.4291 290.896 49.4291C291.176 49.4291 291.372 49.4731 291.484 49.5611C291.596 49.6491 291.652 49.8051 291.652 50.0291V50.2571C291.652 50.4891 291.592 50.6491 291.472 50.7371C291.352 50.8171 291.156 50.8571 290.884 50.8571ZM299.324 54.8531C299.324 55.5091 299.176 56.0891 298.88 56.5931C298.592 57.0891 298.2 57.4771 297.704 57.7571C297.216 58.0371 296.668 58.1771 296.06 58.1771C295.452 58.1771 294.9 58.0371 294.404 57.7571C293.916 57.4771 293.524 57.0891 293.228 56.5931C292.94 56.0891 292.796 55.5091 292.796 54.8531C292.796 54.1971 292.94 53.6211 293.228 53.1251C293.524 52.6211 293.916 52.2291 294.404 51.9491C294.9 51.6611 295.452 51.5171 296.06 51.5171C296.668 51.5171 297.216 51.6611 297.704 51.9491C298.2 52.2291 298.592 52.6211 298.88 53.1251C299.176 53.6211 299.324 54.1971 299.324 54.8531ZM297.884 54.8531C297.884 54.4451 297.8 54.0931 297.632 53.7971C297.472 53.4931 297.252 53.2571 296.972 53.0891C296.7 52.9211 296.396 52.8371 296.06 52.8371C295.724 52.8371 295.416 52.9211 295.136 53.0891C294.864 53.2571 294.644 53.4931 294.476 53.7971C294.316 54.0931 294.236 54.4451 294.236 54.8531C294.236 55.2531 294.316 55.6051 294.476 55.9091C294.644 56.2051 294.864 56.4371 295.136 56.6051C295.416 56.7731 295.724 56.8571 296.06 56.8571C296.396 56.8571 296.7 56.7731 296.972 56.6051C297.252 56.4371 297.472 56.2051 297.632 55.9091C297.8 55.6051 297.884 55.2531 297.884 54.8531ZM304.017 51.5171C304.609 51.5171 305.057 51.6411 305.361 51.8891C305.673 52.1371 305.885 52.4691 305.997 52.8851C306.117 53.2931 306.177 53.7491 306.177 54.2531V57.3251C306.177 57.5331 306.109 57.7091 305.973 57.8531C305.837 57.9891 305.665 58.0571 305.457 58.0571C305.249 58.0571 305.077 57.9891 304.941 57.8531C304.805 57.7091 304.737 57.5331 304.737 57.3251V54.2531C304.737 53.9891 304.701 53.7531 304.629 53.5451C304.565 53.3291 304.445 53.1571 304.269 53.0291C304.093 52.9011 303.841 52.8371 303.513 52.8371C303.193 52.8371 302.921 52.9011 302.697 53.0291C302.481 53.1571 302.313 53.3291 302.193 53.5451C302.081 53.7531 302.025 53.9891 302.025 54.2531V57.3251C302.025 57.5331 301.957 57.7091 301.821 57.8531C301.685 57.9891 301.513 58.0571 301.305 58.0571C301.097 58.0571 300.925 57.9891 300.789 57.8531C300.653 57.7091 300.585 57.5331 300.585 57.3251V52.3691C300.585 52.1611 300.653 51.9891 300.789 51.8531C300.925 51.7091 301.097 51.6371 301.305 51.6371C301.513 51.6371 301.685 51.7091 301.821 51.8531C301.957 51.9891 302.025 52.1611 302.025 52.3691V52.8851L301.845 52.8491C301.917 52.7131 302.021 52.5691 302.157 52.4171C302.293 52.2571 302.453 52.1091 302.637 51.9731C302.821 51.8371 303.029 51.7291 303.261 51.6491C303.493 51.5611 303.745 51.5171 304.017 51.5171ZM310.757 58.1771C310.077 58.1771 309.485 58.0371 308.981 57.7571C308.485 57.4691 308.101 57.0811 307.829 56.5931C307.565 56.1051 307.433 55.5531 307.433 54.9371C307.433 54.2171 307.577 53.6051 307.865 53.1011C308.161 52.5891 308.545 52.1971 309.017 51.9251C309.489 51.6531 309.989 51.5171 310.517 51.5171C310.925 51.5171 311.309 51.6011 311.669 51.7691C312.037 51.9371 312.361 52.1691 312.641 52.4651C312.921 52.7531 313.141 53.0891 313.301 53.4731C313.469 53.8571 313.553 54.2651 313.553 54.6971C313.545 54.8891 313.469 55.0451 313.325 55.1651C313.181 55.2851 313.013 55.3451 312.821 55.3451H308.237L307.877 54.1451H312.281L312.017 54.3851V54.0611C312.001 53.8291 311.917 53.6211 311.765 53.4371C311.621 53.2531 311.437 53.1091 311.213 53.0051C310.997 52.8931 310.765 52.8371 310.517 52.8371C310.277 52.8371 310.053 52.8691 309.845 52.9331C309.637 52.9971 309.457 53.1051 309.305 53.2571C309.153 53.4091 309.033 53.6131 308.945 53.8691C308.857 54.1251 308.813 54.4491 308.813 54.8411C308.813 55.2731 308.901 55.6411 309.077 55.9451C309.261 56.2411 309.493 56.4691 309.773 56.6291C310.061 56.7811 310.365 56.8571 310.685 56.8571C310.981 56.8571 311.217 56.8331 311.393 56.7851C311.569 56.7371 311.709 56.6811 311.813 56.6171C311.925 56.5451 312.025 56.4851 312.113 56.4371C312.257 56.3651 312.393 56.3291 312.521 56.3291C312.697 56.3291 312.841 56.3891 312.953 56.5091C313.073 56.6291 313.133 56.7691 313.133 56.9291C313.133 57.1451 313.021 57.3411 312.797 57.5171C312.589 57.6931 312.297 57.8491 311.921 57.9851C311.545 58.1131 311.157 58.1771 310.757 58.1771ZM316.635 57.9611C316.635 58.2251 316.559 58.4891 316.407 58.7531C316.263 59.0251 316.071 59.2491 315.831 59.4251C315.599 59.6091 315.351 59.7011 315.087 59.7011C314.999 59.7011 314.903 59.6651 314.799 59.5931C314.703 59.5211 314.655 59.3971 314.655 59.2211C314.655 59.0371 314.711 58.9251 314.823 58.8851C314.943 58.8531 315.043 58.8171 315.123 58.7771C315.227 58.7211 315.307 58.6531 315.363 58.5731C315.427 58.5011 315.459 58.4091 315.459 58.2971C315.459 58.2091 315.415 58.1291 315.327 58.0571C315.247 57.9931 315.139 57.9611 315.003 57.9611C314.955 57.9611 314.899 57.9691 314.835 57.9851C314.771 57.9931 314.715 58.0131 314.667 58.0451C314.587 58.0051 314.515 57.9571 314.451 57.9011C314.395 57.8371 314.367 57.7371 314.367 57.6011C314.367 57.3531 314.479 57.1411 314.703 56.9651C314.935 56.7811 315.203 56.6891 315.507 56.6891C315.851 56.6891 316.123 56.8051 316.323 57.0371C316.531 57.2691 316.635 57.5771 316.635 57.9611ZM322.043 56.3651C322.115 56.3651 322.191 56.3771 322.271 56.4011C322.359 56.4251 322.455 56.4731 322.559 56.5451C322.695 56.6491 322.855 56.7411 323.039 56.8211C323.231 56.9011 323.451 56.9411 323.699 56.9411C323.947 56.9411 324.179 56.8811 324.395 56.7611C324.619 56.6331 324.803 56.4571 324.947 56.2331C325.091 56.0011 325.163 55.7251 325.163 55.4051C325.163 55.1011 325.099 54.8491 324.971 54.6491C324.851 54.4491 324.687 54.2971 324.479 54.1931C324.279 54.0891 324.063 54.0371 323.831 54.0371C323.655 54.0371 323.507 54.0531 323.387 54.0851C323.275 54.1171 323.163 54.1531 323.051 54.1931C322.947 54.2251 322.823 54.2411 322.679 54.2411C322.495 54.2411 322.351 54.1771 322.247 54.0491C322.151 53.9211 322.103 53.7691 322.103 53.5931C322.103 53.4811 322.123 53.3811 322.163 53.2931C322.211 53.2051 322.279 53.1091 322.367 53.0051L324.479 50.7611L324.803 51.0371H321.851C321.659 51.0371 321.499 50.9731 321.371 50.8451C321.243 50.7171 321.179 50.5571 321.179 50.3651C321.179 50.1811 321.243 50.0291 321.371 49.9091C321.499 49.7811 321.659 49.7171 321.851 49.7171H325.523C325.771 49.7171 325.955 49.7851 326.075 49.9211C326.203 50.0571 326.267 50.2291 326.267 50.4371C326.267 50.5411 326.239 50.6451 326.183 50.7491C326.127 50.8451 326.059 50.9331 325.979 51.0131L323.855 53.2931L323.531 52.8851C323.619 52.8451 323.739 52.8091 323.891 52.7771C324.051 52.7451 324.183 52.7291 324.287 52.7291C324.759 52.7291 325.167 52.8531 325.511 53.1011C325.863 53.3411 326.131 53.6571 326.315 54.0491C326.507 54.4331 326.603 54.8491 326.603 55.2971C326.603 55.8891 326.471 56.4011 326.207 56.8331C325.943 57.2651 325.571 57.5971 325.091 57.8291C324.611 58.0611 324.051 58.1771 323.411 58.1771C323.115 58.1771 322.823 58.1411 322.535 58.0691C322.247 57.9971 321.999 57.9011 321.791 57.7811C321.615 57.6851 321.495 57.5811 321.431 57.4691C321.375 57.3491 321.347 57.2371 321.347 57.1331C321.347 56.9491 321.411 56.7771 321.539 56.6171C321.675 56.4491 321.843 56.3651 322.043 56.3651ZM221.656 64.6451C221.768 64.6451 221.884 64.6771 222.004 64.7411C222.132 64.7971 222.228 64.8731 222.292 64.9691L225.208 69.4571L224.608 69.4331L227.596 64.9691C227.748 64.7531 227.944 64.6451 228.184 64.6451C228.376 64.6451 228.548 64.7131 228.7 64.8491C228.852 64.9851 228.928 65.1611 228.928 65.3771V72.3251C228.928 72.5331 228.86 72.7091 228.724 72.8531C228.588 72.9891 228.408 73.0571 228.184 73.0571C227.96 73.0571 227.776 72.9891 227.632 72.8531C227.496 72.7091 227.428 72.5331 227.428 72.3251V66.6731L227.896 66.7811L225.448 70.5131C225.376 70.6011 225.284 70.6771 225.172 70.7411C225.068 70.8051 224.96 70.8331 224.848 70.8251C224.744 70.8331 224.636 70.8051 224.524 70.7411C224.42 70.6771 224.332 70.6011 224.26 70.5131L221.968 66.8891L222.28 66.2531V72.3251C222.28 72.5331 222.216 72.7091 222.088 72.8531C221.96 72.9891 221.792 73.0571 221.584 73.0571C221.384 73.0571 221.22 72.9891 221.092 72.8531C220.964 72.7091 220.9 72.5331 220.9 72.3251V65.3771C220.9 65.1771 220.972 65.0051 221.116 64.8611C221.268 64.7171 221.448 64.6451 221.656 64.6451ZM231.968 72.3251C231.968 72.5331 231.9 72.7091 231.764 72.8531C231.628 72.9891 231.456 73.0571 231.248 73.0571C231.04 73.0571 230.868 72.9891 230.732 72.8531C230.596 72.7091 230.528 72.5331 230.528 72.3251V67.3691C230.528 67.1611 230.596 66.9891 230.732 66.8531C230.868 66.7091 231.04 66.6371 231.248 66.6371C231.456 66.6371 231.628 66.7091 231.764 66.8531C231.9 66.9891 231.968 67.1611 231.968 67.3691V72.3251ZM231.236 65.8571C230.964 65.8571 230.772 65.8131 230.66 65.7251C230.548 65.6371 230.492 65.4811 230.492 65.2571V65.0291C230.492 64.7971 230.552 64.6411 230.672 64.5611C230.8 64.4731 230.992 64.4291 231.248 64.4291C231.528 64.4291 231.724 64.4731 231.836 64.5611C231.948 64.6491 232.004 64.8051 232.004 65.0291V65.2571C232.004 65.4891 231.944 65.6491 231.824 65.7371C231.704 65.8171 231.508 65.8571 231.236 65.8571ZM235.008 72.3251C235.008 72.5331 234.936 72.7091 234.792 72.8531C234.656 72.9891 234.484 73.0571 234.276 73.0571C234.076 73.0571 233.908 72.9891 233.772 72.8531C233.636 72.7091 233.568 72.5331 233.568 72.3251V64.9091C233.568 64.7011 233.636 64.5291 233.772 64.3931C233.916 64.2491 234.092 64.1771 234.3 64.1771C234.508 64.1771 234.676 64.2491 234.804 64.3931C234.94 64.5291 235.008 64.7011 235.008 64.9091V72.3251ZM241.938 66.5171C242.146 66.5171 242.318 66.5851 242.454 66.7211C242.59 66.8571 242.658 67.0331 242.658 67.2491V72.3251C242.658 72.5331 242.59 72.7091 242.454 72.8531C242.318 72.9891 242.146 73.0571 241.938 73.0571C241.73 73.0571 241.558 72.9891 241.422 72.8531C241.286 72.7091 241.218 72.5331 241.218 72.3251V71.7371L241.482 71.8451C241.482 71.9491 241.426 72.0771 241.314 72.2291C241.202 72.3731 241.05 72.5171 240.858 72.6611C240.666 72.8051 240.438 72.9291 240.174 73.0331C239.918 73.1291 239.638 73.1771 239.334 73.1771C238.782 73.1771 238.282 73.0371 237.834 72.7571C237.386 72.4691 237.03 72.0771 236.766 71.5811C236.51 71.0771 236.382 70.5011 236.382 69.8531C236.382 69.1971 236.51 68.6211 236.766 68.1251C237.03 67.6211 237.382 67.2291 237.822 66.9491C238.262 66.6611 238.75 66.5171 239.286 66.5171C239.63 66.5171 239.946 66.5691 240.234 66.6731C240.522 66.7771 240.77 66.9091 240.978 67.0691C241.194 67.2291 241.358 67.3931 241.47 67.5611C241.59 67.7211 241.65 67.8571 241.65 67.9691L241.218 68.1251V67.2491C241.218 67.0411 241.286 66.8691 241.422 66.7331C241.558 66.5891 241.73 66.5171 241.938 66.5171ZM239.514 71.8571C239.866 71.8571 240.174 71.7691 240.438 71.5931C240.702 71.4171 240.906 71.1771 241.05 70.8731C241.202 70.5691 241.278 70.2291 241.278 69.8531C241.278 69.4691 241.202 69.1251 241.05 68.8211C240.906 68.5171 240.702 68.2771 240.438 68.1011C240.174 67.9251 239.866 67.8371 239.514 67.8371C239.17 67.8371 238.866 67.9251 238.602 68.1011C238.338 68.2771 238.13 68.5171 237.978 68.8211C237.834 69.1251 237.762 69.4691 237.762 69.8531C237.762 70.2291 237.834 70.5691 237.978 70.8731C238.13 71.1771 238.338 71.4171 238.602 71.5931C238.866 71.7691 239.17 71.8571 239.514 71.8571ZM247.65 66.5171C248.242 66.5171 248.69 66.6411 248.994 66.8891C249.306 67.1371 249.518 67.4691 249.63 67.8851C249.75 68.2931 249.81 68.7491 249.81 69.2531V72.3251C249.81 72.5331 249.742 72.7091 249.605 72.8531C249.47 72.9891 249.298 73.0571 249.09 73.0571C248.882 73.0571 248.71 72.9891 248.574 72.8531C248.438 72.7091 248.37 72.5331 248.37 72.3251V69.2531C248.37 68.9891 248.334 68.7531 248.262 68.5451C248.198 68.3291 248.078 68.1571 247.902 68.0291C247.726 67.9011 247.474 67.8371 247.146 67.8371C246.826 67.8371 246.554 67.9011 246.33 68.0291C246.114 68.1571 245.946 68.3291 245.826 68.5451C245.714 68.7531 245.658 68.9891 245.658 69.2531V72.3251C245.658 72.5331 245.59 72.7091 245.454 72.8531C245.318 72.9891 245.146 73.0571 244.938 73.0571C244.73 73.0571 244.558 72.9891 244.422 72.8531C244.286 72.7091 244.218 72.5331 244.218 72.3251V67.3691C244.218 67.1611 244.286 66.9891 244.422 66.8531C244.558 66.7091 244.73 66.6371 244.938 66.6371C245.146 66.6371 245.318 66.7091 245.454 66.8531C245.59 66.9891 245.658 67.1611 245.658 67.3691V67.8851L245.478 67.8491C245.55 67.7131 245.654 67.5691 245.79 67.4171C245.926 67.2571 246.086 67.1091 246.27 66.9731C246.454 66.8371 246.662 66.7291 246.894 66.6491C247.126 66.5611 247.378 66.5171 247.65 66.5171ZM257.594 69.8531C257.594 70.5091 257.446 71.0891 257.15 71.5931C256.862 72.0891 256.47 72.4771 255.974 72.7571C255.486 73.0371 254.938 73.1771 254.33 73.1771C253.722 73.1771 253.17 73.0371 252.674 72.7571C252.186 72.4771 251.794 72.0891 251.498 71.5931C251.21 71.0891 251.066 70.5091 251.066 69.8531C251.066 69.1971 251.21 68.6211 251.498 68.1251C251.794 67.6211 252.186 67.2291 252.674 66.9491C253.17 66.6611 253.722 66.5171 254.33 66.5171C254.938 66.5171 255.486 66.6611 255.974 66.9491C256.47 67.2291 256.862 67.6211 257.15 68.1251C257.446 68.6211 257.594 69.1971 257.594 69.8531ZM256.154 69.8531C256.154 69.4451 256.07 69.0931 255.902 68.7971C255.742 68.4931 255.522 68.2571 255.242 68.0891C254.97 67.9211 254.666 67.8371 254.33 67.8371C253.994 67.8371 253.686 67.9211 253.406 68.0891C253.134 68.2571 252.914 68.4931 252.746 68.7971C252.586 69.0931 252.506 69.4451 252.506 69.8531C252.506 70.2531 252.586 70.6051 252.746 70.9091C252.914 71.2051 253.134 71.4371 253.406 71.6051C253.686 71.7731 253.994 71.8571 254.33 71.8571C254.666 71.8571 254.97 71.7731 255.242 71.6051C255.522 71.4371 255.742 71.2051 255.902 70.9091C256.07 70.6051 256.154 70.2531 256.154 69.8531ZM266.934 71.7371C267.126 71.7371 267.286 71.8011 267.414 71.9291C267.542 72.0571 267.605 72.2171 267.605 72.4091C267.605 72.5931 267.542 72.7491 267.414 72.8771C267.286 72.9971 267.126 73.0571 266.934 73.0571H262.854C262.646 73.0571 262.482 72.9931 262.362 72.8651C262.242 72.7371 262.182 72.5731 262.182 72.3731C262.182 72.1731 262.254 71.9971 262.398 71.8451L265.014 69.0491C265.31 68.7291 265.542 68.4011 265.71 68.0651C265.886 67.7291 265.974 67.4371 265.974 67.1891C265.974 66.7891 265.858 66.4691 265.626 66.2291C265.394 65.9811 265.086 65.8571 264.702 65.8571C264.55 65.8571 264.394 65.8931 264.234 65.9651C264.074 66.0371 263.918 66.1371 263.766 66.2651C263.622 66.3931 263.486 66.5411 263.358 66.7091C263.262 66.8371 263.166 66.9171 263.07 66.9491C262.974 66.9811 262.886 66.9971 262.806 66.9971C262.63 66.9971 262.466 66.9331 262.314 66.8051C262.17 66.6691 262.098 66.5131 262.098 66.3371C262.098 66.2011 262.142 66.0691 262.229 65.9411C262.326 65.8131 262.442 65.6811 262.578 65.5451C262.778 65.3451 263.002 65.1691 263.25 65.0171C263.498 64.8651 263.754 64.7491 264.018 64.6691C264.282 64.5811 264.538 64.5371 264.786 64.5371C265.322 64.5371 265.786 64.6451 266.178 64.8611C266.578 65.0691 266.886 65.3691 267.102 65.7611C267.318 66.1451 267.426 66.6011 267.426 67.1291C267.426 67.5691 267.294 68.0611 267.03 68.6051C266.774 69.1411 266.426 69.6451 265.986 70.1171L264.366 71.8451L264.234 71.7371H266.934ZM271.954 73.1771C271.266 73.1771 270.682 72.9971 270.202 72.6371C269.73 72.2691 269.37 71.7611 269.122 71.1131C268.874 70.4571 268.75 69.7051 268.75 68.8571C268.75 68.0011 268.874 67.2491 269.122 66.6011C269.37 65.9531 269.73 65.4491 270.202 65.0891C270.682 64.7211 271.266 64.5371 271.954 64.5371C272.642 64.5371 273.222 64.7211 273.694 65.0891C274.174 65.4491 274.538 65.9531 274.786 66.6011C275.034 67.2491 275.158 68.0011 275.158 68.8571C275.158 69.7051 275.034 70.4571 274.786 71.1131C274.538 71.7611 274.174 72.2691 273.694 72.6371C273.222 72.9971 272.642 73.1771 271.954 73.1771ZM271.954 71.7371C272.29 71.7371 272.578 71.6331 272.818 71.4251C273.066 71.2091 273.258 70.8891 273.394 70.4651C273.53 70.0331 273.598 69.4971 273.598 68.8571C273.598 68.2091 273.53 67.6731 273.394 67.2491C273.258 66.8251 273.066 66.5091 272.818 66.3011C272.578 66.0851 272.29 65.9771 271.954 65.9771C271.626 65.9771 271.338 66.0851 271.09 66.3011C270.842 66.5091 270.65 66.8251 270.514 67.2491C270.378 67.6731 270.31 68.2091 270.31 68.8571C270.31 69.4971 270.378 70.0331 270.514 70.4651C270.65 70.8891 270.842 71.2091 271.09 71.4251C271.338 71.6331 271.626 71.7371 271.954 71.7371ZM278.497 73.0571C278.273 73.0571 278.089 72.9891 277.945 72.8531C277.801 72.7091 277.729 72.5331 277.729 72.3251V66.2771L277.897 66.5411L277.021 67.1891C276.909 67.2771 276.769 67.3211 276.601 67.3211C276.409 67.3211 276.241 67.2491 276.097 67.1051C275.953 66.9611 275.881 66.7891 275.881 66.5891C275.881 66.3331 276.005 66.1251 276.253 65.9651L277.981 64.8131C278.061 64.7571 278.149 64.7171 278.245 64.6931C278.349 64.6691 278.445 64.6571 278.533 64.6571C278.765 64.6571 278.949 64.7291 279.085 64.8731C279.221 65.0091 279.289 65.1811 279.289 65.3891V72.3251C279.289 72.5331 279.213 72.7091 279.061 72.8531C278.917 72.9891 278.729 73.0571 278.497 73.0571ZM285.801 71.7371C285.993 71.7371 286.153 71.8011 286.281 71.9291C286.409 72.0571 286.473 72.2171 286.473 72.4091C286.473 72.5931 286.409 72.7491 286.281 72.8771C286.153 72.9971 285.993 73.0571 285.801 73.0571H281.721C281.513 73.0571 281.349 72.9931 281.229 72.8651C281.109 72.7371 281.049 72.5731 281.049 72.3731C281.049 72.1731 281.121 71.9971 281.265 71.8451L283.881 69.0491C284.177 68.7291 284.409 68.4011 284.577 68.0651C284.753 67.7291 284.841 67.4371 284.841 67.1891C284.841 66.7891 284.725 66.4691 284.493 66.2291C284.261 65.9811 283.953 65.8571 283.569 65.8571C283.417 65.8571 283.261 65.8931 283.101 65.9651C282.941 66.0371 282.785 66.1371 282.633 66.2651C282.489 66.3931 282.353 66.5411 282.225 66.7091C282.129 66.8371 282.033 66.9171 281.937 66.9491C281.841 66.9811 281.753 66.9971 281.673 66.9971C281.497 66.9971 281.333 66.9331 281.181 66.8051C281.037 66.6691 280.965 66.5131 280.965 66.3371C280.965 66.2011 281.009 66.0691 281.097 65.9411C281.193 65.8131 281.309 65.6811 281.445 65.5451C281.645 65.3451 281.869 65.1691 282.117 65.0171C282.365 64.8651 282.621 64.7491 282.885 64.6691C283.149 64.5811 283.405 64.5371 283.653 64.5371C284.189 64.5371 284.653 64.6451 285.045 64.8611C285.445 65.0691 285.753 65.3691 285.969 65.7611C286.185 66.1451 286.293 66.6011 286.293 67.1291C286.293 67.5691 286.161 68.0611 285.897 68.6051C285.641 69.1411 285.293 69.6451 284.853 70.1171L283.233 71.8451L283.101 71.7371H285.801ZM290.557 73.1771C290.125 73.1771 289.733 73.0891 289.381 72.9131C289.037 72.7291 288.741 72.4811 288.493 72.1691C288.253 71.8571 288.065 71.5051 287.929 71.1131C287.801 70.7211 287.737 70.3171 287.737 69.9011C287.737 69.6291 287.765 69.3011 287.821 68.9171C287.885 68.5331 287.993 68.1291 288.145 67.7051C288.297 67.2811 288.509 66.8691 288.781 66.4691C289.053 66.0691 289.397 65.7091 289.813 65.3891C290.237 65.0691 290.753 64.8251 291.361 64.6571C291.457 64.6331 291.549 64.6211 291.637 64.6211C291.821 64.6211 291.985 64.6691 292.129 64.7651C292.281 64.8611 292.357 65.0371 292.357 65.2931C292.357 65.4691 292.297 65.6251 292.177 65.7611C292.065 65.8891 291.913 65.9811 291.721 66.0371C291.449 66.1171 291.177 66.2371 290.905 66.3971C290.641 66.5491 290.393 66.7371 290.161 66.9611C289.937 67.1851 289.741 67.4411 289.573 67.7291C289.413 68.0091 289.297 68.3131 289.225 68.6411L288.901 68.6291C289.013 68.4931 289.149 68.3491 289.309 68.1971C289.477 68.0371 289.677 67.9011 289.909 67.7891C290.149 67.6691 290.429 67.6091 290.749 67.6091C291.061 67.6091 291.369 67.6811 291.673 67.8251C291.985 67.9691 292.265 68.1691 292.513 68.4251C292.769 68.6731 292.973 68.9691 293.125 69.3131C293.277 69.6491 293.353 70.0091 293.353 70.3931C293.353 70.9051 293.225 71.3731 292.969 71.7971C292.721 72.2211 292.385 72.5571 291.961 72.8051C291.545 73.0531 291.077 73.1771 290.557 73.1771ZM290.557 71.8571C290.813 71.8571 291.041 71.7931 291.241 71.6651C291.449 71.5371 291.613 71.3611 291.733 71.1371C291.853 70.9131 291.913 70.6651 291.913 70.3931C291.913 70.1131 291.853 69.8651 291.733 69.6491C291.613 69.4251 291.449 69.2491 291.241 69.1211C291.041 68.9931 290.813 68.9291 290.557 68.9291C290.301 68.9291 290.069 68.9931 289.861 69.1211C289.661 69.2491 289.501 69.4251 289.381 69.6491C289.261 69.8651 289.201 70.1131 289.201 70.3931C289.201 70.6651 289.261 70.9131 289.381 71.1371C289.501 71.3611 289.661 71.5371 289.861 71.6651C290.069 71.7931 290.301 71.8571 290.557 71.8571Z" fill="white"/>
<path d="M191.15 16.0571V15.0571H190.871L190.632 15.2019L191.15 16.0571ZM139.029 46.8189C138.897 47.3553 139.225 47.8968 139.762 48.0283L148.503 50.1723C149.039 50.3039 149.581 49.9757 149.712 49.4394C149.844 48.903 149.516 48.3615 148.979 48.2299L141.209 46.3241L143.115 38.5545C143.247 38.0181 142.919 37.4766 142.382 37.345C141.846 37.2135 141.304 37.5416 141.173 38.078L139.029 46.8189ZM253 15.0571H191.15V17.0571H253V15.0571ZM190.632 15.2019L139.482 46.2019L140.518 47.9123L191.668 16.9123L190.632 15.2019Z" fill="white"/>
<defs>
<filter id="filter0_d_1387_3957" x="0" y="0" width="42.4082" height="76.8164" filterUnits="userSpaceOnUse" color-interpolation-filters="sRGB">
<feFlood flood-opacity="0" result="BackgroundImageFix"/>
<feColorMatrix in="SourceAlpha" type="matrix" values="0 0 0 0 0 0 0 0 0 0 0 0 0 0 0 0 0 0 127 0" result="hardAlpha"/>
<feOffset dy="4"/>
<feGaussianBlur stdDeviation="2"/>
<feComposite in2="hardAlpha" operator="out"/>
<feColorMatrix type="matrix" values="0 0 0 0 0 0 0 0 0 0 0 0 0 0 0 0 0 0 0.25 0"/>
<feBlend mode="normal" in2="BackgroundImageFix" result="effect1_dropShadow_1387_3957"/>
<feBlend mode="normal" in="SourceGraphic" in2="effect1_dropShadow_1387_3957" result="shape"/>
</filter>
</defs>
</svg>
