<svg width="25" height="19" viewBox="0 0 25 19" fill="none" xmlns="http://www.w3.org/2000/svg">
<path d="M1.37351 6.84837C1.81613 7.02291 2.26173 7.18438 2.75695 7.12651C2.83634 7.11438 2.93955 7.10971 2.91673 7.00424C2.88993 6.87917 2.77283 6.85303 2.65274 6.85023C1.45787 5.78339 0.882263 4.46921 0.994407 2.92915C1.03708 2.34859 1.07082 1.73723 1.46283 1.22201C1.74666 0.848665 1.94713 1.05587 2.13668 1.28828C2.6587 1.92764 3.25217 2.50446 3.94388 2.97582C5.80666 4.24613 7.80838 5.23737 10.1019 5.63592C10.6308 5.72832 11.1558 5.81139 11.6957 5.83193C12.0272 5.84406 12.1095 5.70872 12.0579 5.44831C11.7463 3.87932 12.3507 2.55393 13.4364 1.44789C14.2819 0.586388 15.3796 0.0851684 16.6906 0.0450335C18.2149 -0.000701626 19.5616 0.338112 20.6741 1.36482C20.8865 1.56083 21.1515 1.44602 21.4055 1.37882C22.268 1.15108 23.0897 0.833731 23.9084 0.447316C23.6742 1.46189 22.9984 2.18058 22.1786 2.80034C22.2888 2.96368 22.4069 2.92915 22.5677 2.88901C23.0847 2.75927 23.5899 2.5922 24.1 2.44099C24.2012 2.41113 24.3659 2.36446 24.5753 2.31499C24.491 2.52313 24.4007 2.6762 24.3451 2.76394C24.3451 2.76394 23.7496 3.65158 22.4625 4.52428C22.2064 4.69788 22.1419 4.87056 22.1509 5.13657C22.2302 7.42986 21.6725 9.58874 20.559 11.6216C19.388 13.76 17.8001 15.552 15.578 16.7962C15.0144 17.1117 14.4953 17.5009 13.876 17.724C12.4033 18.2532 10.9305 18.7236 9.32976 18.873C6.2592 19.1586 3.40698 18.593 0.707597 17.2349C0.511097 17.136 0.328492 17.0118 0 16.8158C2.74206 16.9222 5.15166 16.4079 7.3856 14.8595C6.95985 14.8081 5.76399 14.6299 4.73584 14.0008C4.17313 13.6564 3.7722 13.2457 3.7454 13.2168C3.49035 12.9526 3.34148 12.7333 3.19659 12.5214C3.14796 12.4495 3.16086 12.5513 2.8413 11.8148C2.78871 11.6935 2.75794 11.6142 2.79764 11.5591C2.85817 11.4751 2.97925 11.4835 3.07155 11.5134C3.62532 11.6916 4.15924 11.5684 4.77156 11.4349C4.5969 11.3649 4.36666 11.266 4.10366 11.1325C3.81983 10.9879 3.32263 10.7125 2.76886 10.2738C2.29746 9.89955 1.99874 9.66341 1.69704 9.24246C1.40428 8.83365 1.20381 8.49577 1.05197 7.7612C0.992422 7.47093 0.966619 7.17038 0.978528 6.8605C0.98349 6.73263 1.01822 6.64956 1.17701 6.67569L1.3745 6.8465L1.37351 6.84837Z" fill="#10B9C3"/>
</svg>
